<svg width="48" height="48" viewBox="0 0 48 48" fill="none" xmlns="http://www.w3.org/2000/svg">
<rect width="48" height="48" rx="4" fill="white"/>
<path d="M19.9246 17.6982C20.5238 17.6982 21.0702 17.751 21.5637 17.8566C22.0572 17.9621 22.4802 18.1352 22.8326 18.3753C23.1851 18.6157 23.4583 18.9352 23.6522 19.334C23.8461 19.7327 23.943 20.225 23.943 20.8112C23.943 21.4445 23.7991 21.9721 23.5112 22.394C23.2232 22.8161 22.7974 23.1619 22.2335 23.4317C23.0089 23.6545 23.5876 24.0445 23.9695 24.6012C24.3511 25.1582 24.5425 25.8296 24.5425 26.6149C24.5425 27.248 24.4191 27.7963 24.1722 28.2595C23.9256 28.7228 23.5935 29.1009 23.1766 29.3936C22.7594 29.6869 22.2835 29.9036 21.749 30.0446C21.2111 30.1855 20.6572 30.2564 20.101 30.2554H14.0027V17.6982H19.9246ZM19.5721 22.7811C20.0656 22.7811 20.4709 22.6639 20.7882 22.4293C21.1055 22.1949 21.2641 21.8137 21.2641 21.2861C21.2641 20.9931 21.2112 20.7526 21.1055 20.5651C20.9997 20.3776 20.8588 20.2307 20.6825 20.1254C20.5062 20.0198 20.3035 19.9468 20.0744 19.9055C19.8388 19.864 19.5999 19.8434 19.3606 19.844H16.7698V22.7812H19.5721V22.7811ZM19.7307 28.1098C20.0008 28.1098 20.2594 28.0833 20.5061 28.0306C20.7528 27.9778 20.9701 27.8899 21.1583 27.7667C21.3461 27.6438 21.496 27.4766 21.6077 27.2654C21.7193 27.0545 21.7751 26.7848 21.7751 26.4564C21.7751 25.8118 21.5928 25.3516 21.2287 25.076C20.8644 24.8004 20.3827 24.6626 19.7835 24.6626H16.7698V28.1096L19.7307 28.1098ZM28.0247 27.846C28.4007 28.2098 28.9412 28.3912 29.6462 28.3912C30.1512 28.3912 30.5861 28.2654 30.9503 28.0131C31.3145 27.7614 31.5378 27.4944 31.6201 27.2129H33.8231C33.4708 28.3032 32.9301 29.0831 32.2017 29.5519C31.473 30.021 30.5917 30.2554 29.5579 30.2554C28.8412 30.2554 28.1948 30.1411 27.6191 29.9124C27.0433 29.6839 26.5556 29.3584 26.1564 28.9364C25.7568 28.5144 25.4484 28.0105 25.231 27.4241C25.0135 26.8379 24.905 26.193 24.905 25.4894C24.905 24.8096 25.0164 24.1765 25.2399 23.5902C25.4629 23.0041 25.78 22.497 26.1917 22.0688C26.6027 21.641 27.0934 21.3039 27.6634 21.0576C28.2331 20.8113 28.8647 20.6883 29.558 20.6883C30.3335 20.6883 31.009 20.8378 31.585 21.1368C32.1605 21.4357 32.6335 21.8377 33.0038 22.3414C33.3738 22.8457 33.641 23.4203 33.8058 24.0649C33.9703 24.7099 34.0288 25.3839 33.9821 26.0874H27.408C27.4432 26.8963 27.6484 27.4827 28.0247 27.846ZM30.8534 23.0624C30.5539 22.7343 30.0984 22.5699 29.4876 22.5699C29.0881 22.5699 28.7562 22.6375 28.4919 22.7722C28.2275 22.9073 28.0159 23.074 27.8572 23.2734C27.6988 23.4729 27.5869 23.684 27.5225 23.9066C27.4578 24.1294 27.4195 24.3287 27.4078 24.5045H31.4791C31.3617 23.8713 31.1532 23.3907 30.8534 23.0624ZM26.9805 18.3359H32.0673V19.7433H26.9805V18.3359Z" fill="#1769FF"/>
</svg>
