<svg width="56" height="56" viewBox="0 0 56 56" fill="none" xmlns="http://www.w3.org/2000/svg">
<rect width="56" height="56" rx="8" fill="#F4EDFE"/>
<path d="M30.9438 19.75C32.2159 20.0914 33.3758 20.7614 34.3072 21.6928C35.2386 22.6242 35.9086 23.7841 36.25 25.0562" stroke="#9249F2" stroke-width="1.5" stroke-linecap="round" stroke-linejoin="round"/>
<path d="M30.1656 22.647C30.9307 22.8502 31.6285 23.252 32.1883 23.8118C32.7481 24.3716 33.1499 25.0694 33.3531 25.8345" stroke="#9249F2" stroke-width="1.5" stroke-linecap="round" stroke-linejoin="round"/>
<path d="M24.6719 27.7C25.4436 29.2938 26.7324 30.5792 28.3281 31.3469C28.4458 31.4026 28.576 31.4268 28.7059 31.4169C28.8358 31.407 28.9608 31.3635 29.0687 31.2907L31.4125 29.725C31.516 29.6548 31.6357 29.6119 31.7603 29.6005C31.8849 29.589 32.0104 29.6093 32.125 29.6594L36.5125 31.5438C36.6625 31.6062 36.7877 31.7162 36.869 31.8568C36.9504 31.9974 36.9832 32.1608 36.9625 32.3219C36.8234 33.4073 36.2937 34.4048 35.4723 35.1278C34.6509 35.8508 33.5943 36.2498 32.5 36.25C29.1185 36.25 25.8755 34.9067 23.4844 32.5156C21.0933 30.1246 19.75 26.8815 19.75 23.5C19.7502 22.4058 20.1492 21.3491 20.8722 20.5277C21.5952 19.7064 22.5927 19.1766 23.6781 19.0375C23.8392 19.0168 24.0027 19.0497 24.1433 19.131C24.2839 19.2123 24.3938 19.3376 24.4562 19.4875L26.3406 23.8844C26.3896 23.9972 26.4101 24.1204 26.4003 24.243C26.3905 24.3656 26.3507 24.4839 26.2844 24.5875L24.7187 26.9688C24.649 27.0765 24.6081 27.2003 24.5999 27.3283C24.5917 27.4563 24.6165 27.5843 24.6719 27.7V27.7Z" stroke="#9249F2" stroke-width="1.5" stroke-linecap="round" stroke-linejoin="round"/>
</svg>
