<svg width="346" height="24" viewBox="0 0 346 24" fill="none" xmlns="http://www.w3.org/2000/svg">
<path d="M0 18.12H16V2.12H0V18.12ZM22.5846 17.064V15.624H25.4966C26.2006 15.624 26.8246 15.512 27.3686 15.288C27.9233 15.0533 28.3926 14.7333 28.7766 14.328C29.1713 13.9227 29.47 13.448 29.6726 12.904C29.8753 12.36 29.9766 11.7733 29.9766 11.144C29.9766 10.4827 29.8753 9.88533 29.6726 9.352C29.47 8.808 29.1713 8.33867 28.7766 7.944C28.3926 7.53867 27.9233 7.22933 27.3686 7.016C26.8246 6.80267 26.2006 6.696 25.4966 6.696H22.5846V5.256H25.3366C26.3926 5.256 27.31 5.42133 28.0886 5.752C28.8673 6.072 29.5126 6.50933 30.0246 7.064C30.5473 7.608 30.9366 8.22133 31.1926 8.904C31.4486 9.576 31.5766 10.264 31.5766 10.968V11.32C31.5766 12.0027 31.4486 12.6853 31.1926 13.368C30.9366 14.0507 30.5473 14.6693 30.0246 15.224C29.5126 15.7787 28.8673 16.2267 28.0886 16.568C27.31 16.8987 26.3926 17.064 25.3366 17.064H22.5846ZM21.3366 17.064V5.256H22.9046V17.064H21.3366ZM37.4009 17.288C36.6542 17.288 36.0089 17.16 35.4649 16.904C34.9209 16.648 34.4782 16.312 34.1369 15.896C33.7955 15.4693 33.5395 14.9947 33.3689 14.472C33.2089 13.9493 33.1289 13.416 33.1289 12.872V12.584C33.1289 12.0293 33.2089 11.4907 33.3689 10.968C33.5395 10.4453 33.7955 9.976 34.1369 9.56C34.4782 9.13333 34.9102 8.79733 35.4329 8.552C35.9662 8.296 36.5902 8.168 37.3049 8.168C38.2329 8.168 38.9955 8.37067 39.5929 8.776C40.2009 9.17067 40.6489 9.68267 40.9369 10.312C41.2355 10.9413 41.3849 11.6133 41.3849 12.328V13.016H33.8009V11.864H40.2649L39.9129 12.488C39.9129 11.88 39.8169 11.3573 39.6249 10.92C39.4329 10.472 39.1449 10.1253 38.7609 9.88C38.3769 9.63467 37.8915 9.512 37.3049 9.512C36.6969 9.512 36.1902 9.65067 35.7849 9.928C35.3902 10.2053 35.0915 10.584 34.8889 11.064C34.6969 11.544 34.6009 12.0987 34.6009 12.728C34.6009 13.336 34.6969 13.8853 34.8889 14.376C35.0915 14.856 35.4009 15.24 35.8169 15.528C36.2329 15.8053 36.7609 15.944 37.4009 15.944C38.0729 15.944 38.6169 15.7947 39.0329 15.496C39.4595 15.1973 39.7155 14.8507 39.8009 14.456H41.2409C41.1235 15.0427 40.8889 15.5493 40.5369 15.976C40.1849 16.4027 39.7422 16.728 39.2089 16.952C38.6755 17.176 38.0729 17.288 37.4009 17.288ZM46.3658 17.256C45.2458 17.256 44.3764 17.016 43.7578 16.536C43.1498 16.056 42.8351 15.4 42.8138 14.568H44.2538C44.2751 14.8987 44.4404 15.2133 44.7498 15.512C45.0698 15.8 45.6084 15.944 46.3658 15.944C47.0484 15.944 47.5711 15.8107 47.9338 15.544C48.2964 15.2667 48.4778 14.9307 48.4778 14.536C48.4778 14.184 48.3444 13.912 48.0778 13.72C47.8111 13.5173 47.3791 13.384 46.7818 13.32L45.8538 13.224C45.0431 13.1387 44.3818 12.8987 43.8698 12.504C43.3578 12.0987 43.1018 11.5333 43.1018 10.808C43.1018 10.264 43.2404 9.8 43.5178 9.416C43.7951 9.02133 44.1791 8.72267 44.6698 8.52C45.1604 8.30667 45.7258 8.2 46.3658 8.2C47.3258 8.2 48.1044 8.41333 48.7018 8.84C49.2991 9.26667 49.6084 9.90133 49.6298 10.744H48.1898C48.1791 10.4027 48.0191 10.1147 47.7098 9.88C47.4111 9.63467 46.9631 9.512 46.3658 9.512C45.7684 9.512 45.3151 9.63467 45.0058 9.88C44.6964 10.1253 44.5418 10.4347 44.5418 10.808C44.5418 11.128 44.6484 11.384 44.8618 11.576C45.0858 11.768 45.4484 11.8907 45.9498 11.944L46.8778 12.04C47.7951 12.136 48.5311 12.392 49.0858 12.808C49.6404 13.2133 49.9178 13.7893 49.9178 14.536C49.9178 15.0693 49.7631 15.544 49.4538 15.96C49.1551 16.3653 48.7391 16.6853 48.2058 16.92C47.6724 17.144 47.0591 17.256 46.3658 17.256ZM52.5599 17V8.456H54.0959V17H52.5599ZM51.2479 9.672V8.456H54.0959V9.672H51.2479ZM52.9919 7.08C52.6505 7.08 52.3945 6.98933 52.2239 6.808C52.0639 6.62667 51.9839 6.39733 51.9839 6.12C51.9839 5.84267 52.0639 5.61333 52.2239 5.432C52.3945 5.25067 52.6505 5.16 52.9919 5.16C53.3332 5.16 53.5839 5.25067 53.7439 5.432C53.9145 5.61333 53.9999 5.84267 53.9999 6.12C53.9999 6.39733 53.9145 6.62667 53.7439 6.808C53.5839 6.98933 53.3332 7.08 52.9919 7.08ZM60.2977 20.328C59.9031 20.328 59.5031 20.312 59.0978 20.28C58.7031 20.248 58.3244 20.2053 57.9618 20.152V18.856C58.3458 18.9093 58.7458 18.952 59.1618 18.984C59.5884 19.0267 59.9884 19.048 60.3618 19.048C61.1404 19.048 61.7591 18.9413 62.2178 18.728C62.6871 18.5253 63.0231 18.2 63.2258 17.752C63.4391 17.3147 63.5458 16.7493 63.5458 16.056V14.424L64.0578 13.208C64.0258 14.072 63.8444 14.792 63.5138 15.368C63.1831 15.9333 62.7511 16.36 62.2178 16.648C61.6951 16.9253 61.1138 17.064 60.4738 17.064C59.8764 17.064 59.3271 16.952 58.8258 16.728C58.3351 16.4933 57.9084 16.1733 57.5458 15.768C57.1938 15.3627 56.9164 14.8987 56.7138 14.376C56.5218 13.8427 56.4258 13.2827 56.4258 12.696V12.408C56.4258 11.8107 56.5271 11.256 56.7298 10.744C56.9324 10.2213 57.2151 9.768 57.5778 9.384C57.9404 9 58.3724 8.70133 58.8738 8.488C59.3858 8.27467 59.9458 8.168 60.5538 8.168C61.2684 8.168 61.8978 8.32267 62.4418 8.632C62.9858 8.93067 63.4124 9.37333 63.7218 9.96C64.0418 10.536 64.2178 11.2453 64.2498 12.088L63.8018 12.104V8.456H65.0178V15.992C65.0178 17.016 64.8578 17.8427 64.5378 18.472C64.2284 19.112 63.7271 19.5813 63.0338 19.88C62.3511 20.1787 61.4391 20.328 60.2977 20.328ZM60.7618 15.656C61.2738 15.656 61.7378 15.544 62.1538 15.32C62.5804 15.096 62.9164 14.776 63.1618 14.36C63.4178 13.9333 63.5458 13.4267 63.5458 12.84V12.104C63.5458 11.528 63.4124 11.0427 63.1458 10.648C62.8898 10.2533 62.5538 9.95467 62.1378 9.752C61.7218 9.54933 61.2684 9.448 60.7778 9.448C60.2231 9.448 59.7324 9.576 59.3058 9.832C58.8791 10.088 58.5484 10.4507 58.3138 10.92C58.0791 11.3787 57.9618 11.9227 57.9618 12.552C57.9618 13.1813 58.0791 13.7307 58.3138 14.2C58.5591 14.6693 58.8898 15.032 59.3058 15.288C59.7324 15.5333 60.2178 15.656 60.7618 15.656ZM67.8626 17V8.456H69.0786V12.12H68.8866C68.8866 11.2773 68.9986 10.568 69.2226 9.992C69.4573 9.40533 69.8093 8.96267 70.2786 8.664C70.748 8.35467 71.34 8.2 72.0546 8.2H72.1186C73.196 8.2 73.9906 8.536 74.5026 9.208C75.0253 9.88 75.2866 10.8507 75.2866 12.12V17H73.7506V11.8C73.7506 11.1387 73.564 10.6107 73.1906 10.216C72.8173 9.81067 72.3053 9.608 71.6546 9.608C70.9826 9.608 70.4386 9.816 70.0226 10.232C69.6066 10.648 69.3986 11.2027 69.3986 11.896V17H67.8626ZM81.729 17.288C80.9823 17.288 80.337 17.16 79.793 16.904C79.249 16.648 78.8063 16.312 78.465 15.896C78.1237 15.4693 77.8677 14.9947 77.697 14.472C77.537 13.9493 77.457 13.416 77.457 12.872V12.584C77.457 12.0293 77.537 11.4907 77.697 10.968C77.8677 10.4453 78.1237 9.976 78.465 9.56C78.8063 9.13333 79.2383 8.79733 79.761 8.552C80.2943 8.296 80.9183 8.168 81.633 8.168C82.561 8.168 83.3237 8.37067 83.921 8.776C84.529 9.17067 84.977 9.68267 85.265 10.312C85.5637 10.9413 85.713 11.6133 85.713 12.328V13.016H78.129V11.864H84.593L84.241 12.488C84.241 11.88 84.145 11.3573 83.953 10.92C83.761 10.472 83.473 10.1253 83.089 9.88C82.705 9.63467 82.2197 9.512 81.633 9.512C81.025 9.512 80.5183 9.65067 80.113 9.928C79.7183 10.2053 79.4197 10.584 79.217 11.064C79.025 11.544 78.929 12.0987 78.929 12.728C78.929 13.336 79.025 13.8853 79.217 14.376C79.4197 14.856 79.729 15.24 80.145 15.528C80.561 15.8053 81.089 15.944 81.729 15.944C82.401 15.944 82.945 15.7947 83.361 15.496C83.7877 15.1973 84.0437 14.8507 84.129 14.456H85.569C85.4517 15.0427 85.217 15.5493 84.865 15.976C84.513 16.4027 84.0703 16.728 83.537 16.952C83.0037 17.176 82.401 17.288 81.729 17.288ZM87.8939 17V8.456H89.1099V11.976H89.0459C89.0459 10.728 89.3179 9.816 89.8619 9.24C90.4165 8.65333 91.2432 8.36 92.3419 8.36H92.6299V9.736H92.0859C91.2325 9.736 90.5765 9.96533 90.1179 10.424C89.6592 10.872 89.4299 11.5227 89.4299 12.376V17H87.8939Z" fill="#CF5955"/>
<path d="M117 18.12H133V2.12H117V18.12ZM138.147 17V5.32H140.067V17H138.147ZM143.048 17V8.376H144.536V12.072H144.36C144.36 11.2187 144.472 10.4987 144.696 9.912C144.931 9.32533 145.283 8.88267 145.752 8.584C146.221 8.27467 146.803 8.12 147.496 8.12H147.576C148.643 8.12 149.437 8.456 149.96 9.128C150.483 9.8 150.744 10.7813 150.744 12.072V17H148.872V11.816C148.872 11.2187 148.701 10.7387 148.36 10.376C148.019 10.0027 147.549 9.816 146.952 9.816C146.344 9.816 145.853 10.008 145.48 10.392C145.107 10.7653 144.92 11.2667 144.92 11.896V17H143.048ZM156.321 17.256C155.158 17.256 154.251 17.0107 153.601 16.52C152.961 16.0293 152.625 15.352 152.593 14.488H154.321C154.342 14.808 154.507 15.1013 154.817 15.368C155.126 15.6347 155.633 15.768 156.337 15.768C156.934 15.768 157.403 15.6507 157.745 15.416C158.086 15.1813 158.257 14.888 158.257 14.536C158.257 14.216 158.129 13.9653 157.873 13.784C157.627 13.592 157.206 13.464 156.609 13.4L155.761 13.32C154.875 13.224 154.171 12.9627 153.649 12.536C153.137 12.1093 152.881 11.5333 152.881 10.808C152.881 10.232 153.025 9.74667 153.313 9.352C153.601 8.95733 153.995 8.65333 154.497 8.44C155.009 8.22667 155.595 8.12 156.257 8.12C157.281 8.12 158.107 8.34933 158.737 8.808C159.366 9.256 159.691 9.91733 159.713 10.792H158.001C157.979 10.4613 157.825 10.184 157.537 9.96C157.249 9.736 156.822 9.624 156.257 9.624C155.723 9.624 155.313 9.73067 155.025 9.944C154.747 10.1573 154.609 10.4293 154.609 10.76C154.609 11.0587 154.715 11.2933 154.929 11.464C155.142 11.6347 155.489 11.7467 155.969 11.8L156.817 11.88C157.787 11.9867 158.555 12.2587 159.121 12.696C159.697 13.1227 159.985 13.72 159.985 14.488C159.985 15.0427 159.83 15.528 159.521 15.944C159.211 16.36 158.779 16.6853 158.225 16.92C157.681 17.144 157.046 17.256 156.321 17.256ZM165.568 17.096C164.854 17.096 164.251 17 163.76 16.808C163.27 16.616 162.896 16.2853 162.64 15.816C162.395 15.3467 162.272 14.712 162.272 13.912V5.864H164.048V14.072C164.048 14.52 164.166 14.8667 164.4 15.112C164.646 15.3467 164.987 15.464 165.424 15.464H166.864V17.096H165.568ZM160.848 9.768V8.376H166.864V9.768H160.848ZM168.892 17V8.376H170.38V11.976H170.316C170.316 10.7387 170.588 9.816 171.132 9.208C171.676 8.58933 172.481 8.28 173.548 8.28H173.852V9.928H173.276C172.465 9.928 171.841 10.1467 171.404 10.584C170.977 11.0107 170.764 11.624 170.764 12.424V17H168.892ZM178.477 17.256C177.463 17.256 176.685 16.9307 176.141 16.28C175.597 15.6187 175.325 14.648 175.325 13.368V8.376H177.197V13.624C177.197 14.2213 177.362 14.696 177.693 15.048C178.023 15.3893 178.471 15.56 179.037 15.56C179.613 15.56 180.082 15.3787 180.445 15.016C180.818 14.6427 181.005 14.136 181.005 13.496V8.376H182.877V17H181.389V13.32H181.581C181.581 14.184 181.463 14.9093 181.229 15.496C181.005 16.072 180.669 16.5093 180.221 16.808C179.783 17.1067 179.229 17.256 178.557 17.256H178.477ZM189.401 17.288C188.665 17.288 188.02 17.1653 187.465 16.92C186.921 16.664 186.468 16.3227 186.105 15.896C185.753 15.4587 185.487 14.9787 185.305 14.456C185.135 13.9227 185.049 13.384 185.049 12.84V12.552C185.049 11.9867 185.14 11.4427 185.321 10.92C185.503 10.3867 185.775 9.90667 186.137 9.48C186.5 9.05333 186.948 8.71733 187.481 8.472C188.025 8.216 188.66 8.088 189.385 8.088C190.121 8.088 190.777 8.22667 191.353 8.504C191.94 8.78133 192.409 9.176 192.761 9.688C193.113 10.1893 193.311 10.776 193.353 11.448H191.545C191.481 10.968 191.263 10.5627 190.889 10.232C190.527 9.90133 190.025 9.736 189.385 9.736C188.831 9.736 188.372 9.864 188.009 10.12C187.647 10.376 187.375 10.728 187.193 11.176C187.012 11.6133 186.921 12.12 186.921 12.696C186.921 13.2507 187.007 13.752 187.177 14.2C187.359 14.648 187.631 15 187.993 15.256C188.367 15.512 188.836 15.64 189.401 15.64C189.839 15.64 190.212 15.5653 190.521 15.416C190.841 15.256 191.097 15.048 191.289 14.792C191.481 14.5253 191.593 14.2213 191.625 13.88H193.449C193.417 14.5733 193.22 15.176 192.857 15.688C192.495 16.1893 192.015 16.584 191.417 16.872C190.82 17.1493 190.148 17.288 189.401 17.288ZM198.928 17.096C198.213 17.096 197.61 17 197.12 16.808C196.629 16.616 196.256 16.2853 196 15.816C195.754 15.3467 195.632 14.712 195.632 13.912V5.864H197.408V14.072C197.408 14.52 197.525 14.8667 197.76 15.112C198.005 15.3467 198.346 15.464 198.784 15.464H200.224V17.096H198.928ZM194.208 9.768V8.376H200.224V9.768H194.208ZM206.252 17.288C205.495 17.288 204.828 17.1653 204.252 16.92C203.676 16.664 203.191 16.328 202.796 15.912C202.401 15.496 202.103 15.0267 201.9 14.504C201.697 13.9707 201.596 13.4213 201.596 12.856V12.536C201.596 11.9707 201.697 11.4213 201.9 10.888C202.113 10.3547 202.417 9.88 202.812 9.464C203.217 9.03733 203.708 8.70133 204.284 8.456C204.86 8.21067 205.516 8.088 206.252 8.088C206.988 8.088 207.639 8.21067 208.204 8.456C208.78 8.70133 209.271 9.03733 209.676 9.464C210.081 9.88 210.385 10.3547 210.588 10.888C210.801 11.4213 210.908 11.9707 210.908 12.536V12.856C210.908 13.4213 210.807 13.9707 210.604 14.504C210.401 15.0267 210.103 15.496 209.708 15.912C209.313 16.328 208.828 16.664 208.252 16.92C207.676 17.1653 207.009 17.288 206.252 17.288ZM206.252 15.656C206.839 15.656 207.34 15.528 207.756 15.272C208.172 15.0053 208.487 14.648 208.7 14.2C208.924 13.752 209.036 13.2507 209.036 12.696C209.036 12.1307 208.924 11.624 208.7 11.176C208.476 10.728 208.156 10.376 207.74 10.12C207.324 9.85333 206.828 9.72 206.252 9.72C205.676 9.72 205.18 9.85333 204.764 10.12C204.348 10.376 204.028 10.728 203.804 11.176C203.58 11.624 203.468 12.1307 203.468 12.696C203.468 13.2507 203.575 13.752 203.788 14.2C204.012 14.648 204.332 15.0053 204.748 15.272C205.164 15.528 205.665 15.656 206.252 15.656ZM213.048 17V8.376H214.536V11.976H214.472C214.472 10.7387 214.744 9.816 215.288 9.208C215.832 8.58933 216.637 8.28 217.704 8.28H218.008V9.928H217.432C216.621 9.928 215.997 10.1467 215.56 10.584C215.133 11.0107 214.92 11.624 214.92 12.424V17H213.048Z" fill="#1777E5"/>
<path d="M243 18.12H259V2.12H243V18.12ZM265.585 12.936V11.56H268.193C268.747 11.56 269.206 11.4533 269.569 11.24C269.931 11.016 270.203 10.7173 270.385 10.344C270.577 9.97067 270.673 9.55467 270.673 9.096C270.673 8.62667 270.577 8.20533 270.385 7.832C270.203 7.45867 269.931 7.16533 269.569 6.952C269.206 6.73867 268.747 6.632 268.193 6.632H265.585V5.256H267.905C268.865 5.256 269.665 5.41067 270.305 5.72C270.955 6.01867 271.446 6.44533 271.777 7C272.107 7.55467 272.273 8.21067 272.273 8.968V9.224C272.273 9.97067 272.107 10.6267 271.777 11.192C271.446 11.7467 270.955 12.1787 270.305 12.488C269.665 12.7867 268.865 12.936 267.905 12.936H265.585ZM264.337 17V5.256H265.905V17H264.337ZM278.127 17.288C277.38 17.288 276.724 17.16 276.159 16.904C275.593 16.648 275.113 16.312 274.719 15.896C274.335 15.4693 274.041 14.9947 273.839 14.472C273.647 13.9493 273.551 13.416 273.551 12.872V12.584C273.551 12.04 273.652 11.5067 273.855 10.984C274.057 10.4507 274.356 9.976 274.751 9.56C275.145 9.13333 275.625 8.79733 276.191 8.552C276.756 8.296 277.401 8.168 278.127 8.168C278.852 8.168 279.497 8.296 280.063 8.552C280.628 8.79733 281.108 9.13333 281.503 9.56C281.897 9.976 282.196 10.4507 282.399 10.984C282.601 11.5067 282.703 12.04 282.703 12.584V12.872C282.703 13.416 282.601 13.9493 282.399 14.472C282.207 14.9947 281.913 15.4693 281.519 15.896C281.135 16.312 280.66 16.648 280.095 16.904C279.529 17.16 278.873 17.288 278.127 17.288ZM278.127 15.912C278.767 15.912 279.311 15.7733 279.759 15.496C280.217 15.208 280.564 14.824 280.799 14.344C281.044 13.864 281.167 13.3253 281.167 12.728C281.167 12.12 281.044 11.576 280.799 11.096C280.553 10.616 280.201 10.2373 279.743 9.96C279.295 9.68267 278.756 9.544 278.127 9.544C277.508 9.544 276.969 9.68267 276.511 9.96C276.052 10.2373 275.7 10.616 275.455 11.096C275.209 11.576 275.087 12.12 275.087 12.728C275.087 13.3253 275.204 13.864 275.439 14.344C275.684 14.824 276.031 15.208 276.479 15.496C276.937 15.7733 277.487 15.912 278.127 15.912ZM288.571 17.288C287.963 17.288 287.403 17.176 286.891 16.952C286.379 16.728 285.931 16.4133 285.547 16.008C285.174 15.6027 284.881 15.1333 284.667 14.6C284.465 14.0667 284.363 13.4907 284.363 12.872V12.584C284.363 11.976 284.465 11.4053 284.667 10.872C284.87 10.3387 285.153 9.86933 285.515 9.464C285.889 9.05867 286.326 8.744 286.827 8.52C287.339 8.28533 287.905 8.168 288.523 8.168C289.174 8.168 289.766 8.30667 290.299 8.584C290.833 8.85067 291.27 9.272 291.611 9.848C291.953 10.424 292.145 11.1707 292.187 12.088L291.547 11.064V5.32H293.083V17H291.867V13.208H292.315C292.273 14.1787 292.07 14.968 291.707 15.576C291.345 16.1733 290.886 16.6107 290.331 16.888C289.787 17.1547 289.201 17.288 288.571 17.288ZM288.779 15.944C289.302 15.944 289.777 15.8267 290.203 15.592C290.63 15.3573 290.971 15.0213 291.227 14.584C291.483 14.136 291.611 13.6133 291.611 13.016V12.28C291.611 11.6933 291.478 11.1973 291.211 10.792C290.955 10.376 290.609 10.0613 290.171 9.848C289.745 9.624 289.275 9.512 288.763 9.512C288.198 9.512 287.697 9.64533 287.259 9.912C286.833 10.1787 286.497 10.552 286.251 11.032C286.017 11.512 285.899 12.0773 285.899 12.728C285.899 13.3787 286.022 13.9493 286.267 14.44C286.513 14.92 286.854 15.2933 287.291 15.56C287.729 15.816 288.225 15.944 288.779 15.944ZM299.699 17.288C298.963 17.288 298.323 17.16 297.779 16.904C297.245 16.648 296.803 16.3067 296.451 15.88C296.099 15.4427 295.832 14.9627 295.651 14.44C295.48 13.9173 295.395 13.3947 295.395 12.872V12.584C295.395 12.04 295.48 11.5067 295.651 10.984C295.832 10.4613 296.099 9.992 296.451 9.576C296.813 9.14933 297.261 8.808 297.795 8.552C298.328 8.296 298.952 8.168 299.667 8.168C300.381 8.168 301.021 8.30133 301.587 8.568C302.163 8.83467 302.621 9.21333 302.963 9.704C303.315 10.184 303.512 10.7547 303.555 11.416H302.083C302.008 10.8827 301.763 10.44 301.347 10.088C300.931 9.72533 300.371 9.544 299.667 9.544C299.059 9.544 298.552 9.68267 298.147 9.96C297.741 10.2373 297.437 10.616 297.235 11.096C297.032 11.576 296.931 12.12 296.931 12.728C296.931 13.3147 297.032 13.8533 297.235 14.344C297.437 14.824 297.741 15.208 298.147 15.496C298.563 15.7733 299.08 15.912 299.699 15.912C300.179 15.912 300.595 15.8267 300.947 15.656C301.299 15.4853 301.581 15.256 301.795 14.968C302.008 14.68 302.136 14.3547 302.179 13.992H303.651C303.619 14.664 303.421 15.2453 303.059 15.736C302.707 16.2267 302.237 16.6107 301.651 16.888C301.075 17.1547 300.424 17.288 299.699 17.288ZM310.906 17V14.44H310.65V11.48C310.65 10.8933 310.495 10.4507 310.186 10.152C309.887 9.85333 309.444 9.704 308.858 9.704C308.527 9.704 308.186 9.70933 307.834 9.72C307.482 9.73067 307.146 9.74133 306.826 9.752C306.506 9.76267 306.228 9.77867 305.994 9.8V8.456C306.228 8.43467 306.474 8.41867 306.73 8.408C306.996 8.38667 307.268 8.376 307.546 8.376C307.823 8.36533 308.09 8.36 308.346 8.36C309.22 8.36 309.935 8.46667 310.49 8.68C311.044 8.88267 311.455 9.21867 311.722 9.688C311.988 10.1573 312.122 10.792 312.122 11.592V17H310.906ZM308.106 17.224C307.466 17.224 306.911 17.1173 306.442 16.904C305.983 16.68 305.626 16.36 305.37 15.944C305.124 15.528 305.002 15.0267 305.002 14.44C305.002 13.832 305.135 13.3253 305.402 12.92C305.679 12.5147 306.079 12.2107 306.602 12.008C307.124 11.7947 307.754 11.688 308.49 11.688H310.81V12.84H308.426C307.807 12.84 307.332 12.9893 307.002 13.288C306.671 13.5867 306.506 13.9707 306.506 14.44C306.506 14.9093 306.671 15.288 307.002 15.576C307.332 15.864 307.807 16.008 308.426 16.008C308.788 16.008 309.135 15.944 309.466 15.816C309.796 15.6773 310.068 15.4533 310.282 15.144C310.506 14.824 310.628 14.3867 310.65 13.832L311.066 14.44C311.012 15.048 310.863 15.56 310.618 15.976C310.383 16.3813 310.052 16.6907 309.626 16.904C309.21 17.1173 308.703 17.224 308.106 17.224ZM317.741 17.256C316.621 17.256 315.751 17.016 315.133 16.536C314.525 16.056 314.21 15.4 314.189 14.568H315.629C315.65 14.8987 315.815 15.2133 316.125 15.512C316.445 15.8 316.983 15.944 317.741 15.944C318.423 15.944 318.946 15.8107 319.309 15.544C319.671 15.2667 319.853 14.9307 319.853 14.536C319.853 14.184 319.719 13.912 319.453 13.72C319.186 13.5173 318.754 13.384 318.157 13.32L317.229 13.224C316.418 13.1387 315.757 12.8987 315.245 12.504C314.733 12.0987 314.477 11.5333 314.477 10.808C314.477 10.264 314.615 9.8 314.893 9.416C315.17 9.02133 315.554 8.72267 316.045 8.52C316.535 8.30667 317.101 8.2 317.741 8.2C318.701 8.2 319.479 8.41333 320.077 8.84C320.674 9.26667 320.983 9.90133 321.005 10.744H319.565C319.554 10.4027 319.394 10.1147 319.085 9.88C318.786 9.63467 318.338 9.512 317.741 9.512C317.143 9.512 316.69 9.63467 316.381 9.88C316.071 10.1253 315.917 10.4347 315.917 10.808C315.917 11.128 316.023 11.384 316.237 11.576C316.461 11.768 316.823 11.8907 317.325 11.944L318.253 12.04C319.17 12.136 319.906 12.392 320.461 12.808C321.015 13.2133 321.293 13.7893 321.293 14.536C321.293 15.0693 321.138 15.544 320.829 15.96C320.53 16.3653 320.114 16.6853 319.581 16.92C319.047 17.144 318.434 17.256 317.741 17.256ZM326.847 17.096C326.207 17.096 325.652 17.0053 325.183 16.824C324.724 16.6427 324.367 16.3333 324.111 15.896C323.866 15.448 323.743 14.8453 323.743 14.088V5.864H325.215V14.28C325.215 14.7387 325.338 15.096 325.583 15.352C325.839 15.5973 326.196 15.72 326.655 15.72H328.159V17.096H326.847ZM322.271 9.608V8.456H328.159V9.608H322.271ZM333.901 17.288C333.154 17.288 332.509 17.16 331.965 16.904C331.421 16.648 330.978 16.312 330.637 15.896C330.296 15.4693 330.04 14.9947 329.869 14.472C329.709 13.9493 329.629 13.416 329.629 12.872V12.584C329.629 12.0293 329.709 11.4907 329.869 10.968C330.04 10.4453 330.296 9.976 330.637 9.56C330.978 9.13333 331.41 8.79733 331.933 8.552C332.466 8.296 333.09 8.168 333.805 8.168C334.733 8.168 335.496 8.37067 336.093 8.776C336.701 9.17067 337.149 9.68267 337.437 10.312C337.736 10.9413 337.885 11.6133 337.885 12.328V13.016H330.301V11.864H336.765L336.413 12.488C336.413 11.88 336.317 11.3573 336.125 10.92C335.933 10.472 335.645 10.1253 335.261 9.88C334.877 9.63467 334.392 9.512 333.805 9.512C333.197 9.512 332.69 9.65067 332.285 9.928C331.89 10.2053 331.592 10.584 331.389 11.064C331.197 11.544 331.101 12.0987 331.101 12.728C331.101 13.336 331.197 13.8853 331.389 14.376C331.592 14.856 331.901 15.24 332.317 15.528C332.733 15.8053 333.261 15.944 333.901 15.944C334.573 15.944 335.117 15.7947 335.533 15.496C335.96 15.1973 336.216 14.8507 336.301 14.456H337.741C337.624 15.0427 337.389 15.5493 337.037 15.976C336.685 16.4027 336.242 16.728 335.709 16.952C335.176 17.176 334.573 17.288 333.901 17.288ZM340.066 17V8.456H341.282V11.976H341.218C341.218 10.728 341.49 9.816 342.034 9.24C342.588 8.65333 343.415 8.36 344.514 8.36H344.802V9.736H344.258C343.404 9.736 342.748 9.96533 342.29 10.424C341.831 10.872 341.602 11.5227 341.602 12.376V17H340.066Z" fill="#9249F2"/>
</svg>
