<svg width="200" height="96" viewBox="0 0 200 96" fill="none" xmlns="http://www.w3.org/2000/svg">
<g filter="url(#filter0_b_480_15785)">
<rect width="200" height="96" rx="12" fill="white"/>
<g opacity="0.4">
<g clip-path="url(#clip0_480_15785)">
<path d="M82.5052 45.7862C83.5349 45.7862 84.3696 44.9565 84.3696 43.9332C84.3696 42.9096 83.5349 42.0801 82.5052 42.0801C81.4756 42.0801 80.6409 42.9096 80.6409 43.9332C80.6409 44.9565 81.4756 45.7862 82.5052 45.7862ZM144.033 52.1175C143.75 51.9193 143.531 51.8865 143.349 52.2713C140.218 59.0103 134.941 55.6475 135.465 55.9434C136.636 55.4114 139.714 52.9582 139.249 49.5709C138.966 47.5008 137.178 46.5826 135.28 46.9114C131.967 47.4853 130.749 51.036 131.369 54.1796C131.478 54.7195 131.672 55.1647 131.865 55.6009C128.122 58.626 126.635 52.8928 126.466 52.2076C126.46 52.1709 129.357 49.7712 130.163 44.0528C131.007 38.0595 129.083 36.9683 127.116 37.0023C123.475 37.0653 122.491 44.6241 123.813 50.9238C123.702 50.9524 123.187 51.2359 122.359 51.2677C121.764 49.4052 119.218 47.7727 118.552 48.4018C116.885 49.9755 118.957 53.0522 120.414 53.2935C119.539 58.6522 114.063 57.3251 115.082 50.6114C116.865 47.321 118.221 42.4284 117.979 39.4749C117.894 38.4292 117.116 37.0281 115.356 37.0976C111.972 37.2307 111.604 44.7915 112 50.1578C111.981 50.0256 111.792 50.8097 110.405 51.1996C110.077 49.3902 107.145 47.574 106.455 48.4472C105.163 50.0815 107.402 52.9954 108.463 53.1987C107.587 58.5572 102.112 57.2301 103.131 50.5164C104.914 47.2262 106.27 42.3336 106.028 39.38C105.943 38.3342 105.165 36.9332 103.405 37.0025C100.02 37.1357 99.6525 44.6965 100.049 50.0628C100.029 49.9285 99.8366 50.7385 98.3931 51.1219C98.3448 48.7744 95.4021 47.698 94.6952 48.447C93.4354 49.7822 94.9838 52.5217 96.4162 53.1987C95.5406 58.5572 90.065 57.2301 91.0843 50.5164C92.8675 47.2262 94.2236 42.3336 93.9815 39.38C93.8959 38.3342 93.1179 36.9332 91.3581 37.0025C87.9738 37.1357 87.7015 45.0766 88.0982 50.4427C86.9835 55.1886 83.2452 61.1153 83.7309 49.2429C83.7788 48.41 83.8312 48.0938 83.4133 47.7819C83.1002 47.5396 82.3882 47.6562 81.999 47.6658C81.526 47.6847 81.4074 47.9597 81.3028 48.3754C81.0593 49.4489 81.0155 50.4895 80.9808 51.9094C80.9579 52.5736 80.9043 52.8835 80.6469 53.7892C80.3898 54.6947 78.9231 56.3497 78.1201 56.073C77.0061 55.6923 77.3716 52.5673 77.5803 50.4202C77.7543 48.7234 77.1973 47.9614 75.7701 47.6843C74.9346 47.5113 74.427 47.5379 73.5568 47.2653C72.734 47.0076 72.5479 45.4609 70.7928 45.9764C69.8329 46.2585 70.45 48.2796 70.2193 49.7775C69.0851 57.1459 66.7251 57.3483 65.6302 53.7689C70.5613 41.7683 67.0566 37.0372 65.0052 37.0372C62.8685 37.0372 60.4261 38.4997 61.4603 47.857C60.9574 47.7112 60.8028 47.6327 60.2523 47.6327C57.1388 47.6327 55.0176 50.1337 55.0176 53.2189C55.0176 56.3042 57.139 58.8053 60.2525 58.8053C62.0904 58.8053 63.3809 57.9748 64.3582 56.6899C64.9959 57.5973 65.7723 58.8193 67.1923 58.7643C71.4247 58.6005 72.6556 49.9736 72.8009 49.4924C73.2534 49.5617 73.6814 49.6928 74.0993 49.7621C74.7954 49.866 74.846 50.1398 74.8302 50.8356C74.6457 56.7029 75.7353 58.7573 78.2069 58.7573C79.584 58.7573 80.8114 57.4129 81.6569 56.4515C82.2884 57.7467 83.2947 58.7177 84.6447 58.7572C87.916 58.838 89.1685 53.657 89.0543 54.3388C88.9647 54.8738 90.1156 58.728 93.4833 58.742C97.655 58.7594 98.4304 54.2009 98.5228 53.4373C98.5344 53.2854 98.5395 53.3012 98.5228 53.4373L98.5197 53.4836C99.844 53.2388 100.527 52.5332 100.527 52.5332C100.527 52.5332 101.591 58.8129 105.53 58.7421C109.621 58.6685 110.392 54.5478 110.493 53.7443C110.507 53.5536 110.514 53.576 110.493 53.7443C110.493 53.7522 110.492 53.76 110.492 53.7679C112.065 53.1992 112.479 52.6284 112.479 52.6284C112.479 52.6284 113.324 58.7832 117.481 58.8369C121.186 58.8851 122.559 55.1153 122.567 53.5374C123.192 53.544 124.348 53.169 124.321 53.1477C124.321 53.1477 125.678 58.5289 129.467 58.8053C131.247 58.9351 132.581 57.8105 133.342 57.2975C135.13 58.7364 141.084 60.5742 144.844 54.2405C145.375 53.3315 144.234 52.2577 144.033 52.1175ZM60.1022 56.716C58.2857 56.716 57.1209 55.047 57.1209 53.2474C57.1209 51.4479 58.1901 49.7789 60.0066 49.7789C60.8241 49.7789 61.2788 49.8683 61.9154 50.4185C62.0309 50.8705 62.358 51.9132 62.5172 52.3868C62.7306 53.0204 62.9843 53.5597 63.2401 54.1468C62.8746 55.6524 61.6764 56.716 60.1022 56.716ZM64.5288 50.4714C64.4533 50.3518 64.4691 50.4253 64.3845 50.3123C64.0516 49.4122 63.4099 47.4032 63.3355 45.1213C63.2515 42.54 63.6845 39.5143 64.9609 39.5143C65.8258 39.5143 66.7449 45.6464 64.5286 50.4714H64.5288ZM90.1059 47.7818C89.9011 46.25 89.8903 39.4213 91.5401 39.6093C92.451 39.976 90.9625 46.4197 90.1059 47.7818ZM102.153 47.7818C101.948 46.25 101.937 39.4213 103.587 39.6093C104.498 39.976 103.009 46.4197 102.153 47.7818ZM114.104 47.8769C113.899 46.345 113.888 39.5162 115.538 39.7043C116.449 40.071 114.96 46.5149 114.104 47.8769ZM127.298 39.2096C128.806 39.0542 128.744 45.5994 125.717 49.7316C125.326 48.238 124.727 39.7224 127.298 39.2095V39.2096ZM133.638 53.2935C133.153 50.8618 134.405 49.2647 135.696 49.0896C136.147 49.018 136.8 49.3083 136.931 49.8512C137.145 50.8742 136.9 52.3916 134.011 54.317C134.016 54.3334 133.746 53.8351 133.638 53.2935H133.638Z" fill="#132238"/>
</g>
</g>
</g>
<defs>
<filter id="filter0_b_480_15785" x="-32" y="-32" width="264" height="160" filterUnits="userSpaceOnUse" color-interpolation-filters="sRGB">
<feFlood flood-opacity="0" result="BackgroundImageFix"/>
<feGaussianBlur in="BackgroundImageFix" stdDeviation="16"/>
<feComposite in2="SourceAlpha" operator="in" result="effect1_backgroundBlur_480_15785"/>
<feBlend mode="normal" in="SourceGraphic" in2="effect1_backgroundBlur_480_15785" result="shape"/>
</filter>
<clipPath id="clip0_480_15785">
<rect width="90" height="22" fill="white" transform="translate(55 37)"/>
</clipPath>
</defs>
</svg>
