<svg width="48" height="48" viewBox="0 0 48 48" fill="none" xmlns="http://www.w3.org/2000/svg">
<rect width="48" height="48" rx="4" fill="white"/>
<path fill-rule="evenodd" clip-rule="evenodd" d="M33.8549 23.996C33.8549 18.5509 29.4408 14.1367 23.9956 14.1367C18.5505 14.1367 14.1364 18.5509 14.1364 23.996C14.1364 29.4411 18.5505 33.8553 23.9956 33.8553C23.3326 33.8553 22.6849 33.7893 22.0585 33.6645V26.1575H20.4506V23.4769H22.0585V21.8679C22.0585 19.6811 22.9663 18.3809 25.5457 18.3809H27.6931V21.0616H26.3508C25.3467 21.0616 25.2803 21.4361 25.2803 22.1351L25.2767 23.4767H27.7082L27.4236 26.157H25.2767V33.7725C24.9008 33.8213 24.5224 33.8486 24.1435 33.8542C29.5204 33.7752 33.8549 29.3918 33.8549 23.996Z" fill="url(#paint0_linear_712_3432)"/>
<defs>
<linearGradient id="paint0_linear_712_3432" x1="23.9956" y1="13.9571" x2="23.9956" y2="34.6961" gradientUnits="userSpaceOnUse">
<stop stop-color="#00B2FF"/>
<stop offset="1" stop-color="#006AFF"/>
</linearGradient>
</defs>
</svg>
