<svg width="209" height="88" viewBox="0 0 209 88" fill="none" xmlns="http://www.w3.org/2000/svg">
<g filter="url(#filter0_d_900_4013)">
<rect x="16" y="8" width="56" height="56" rx="8" fill="#9249F2" shape-rendering="crispEdges"/>
<path d="M35 40.5L44 45.75L53 40.5" stroke="white" stroke-width="1.5" stroke-linecap="round" stroke-linejoin="round"/>
<path d="M35 36L44 41.25L53 36" stroke="white" stroke-width="1.5" stroke-linecap="round" stroke-linejoin="round"/>
<path d="M35 31.5L44 36.75L53 31.5L44 26.25L35 31.5Z" stroke="white" stroke-width="1.5" stroke-linecap="round" stroke-linejoin="round"/>
</g>
<path d="M99.38 30V15.4H102.22V30H99.38ZM89.8 30V15.4H92.64V30H89.8ZM92.12 23.94V21.44H99.9V23.94H92.12ZM112.176 30V26.78H111.716V23.2C111.716 22.5733 111.562 22.1067 111.256 21.8C110.949 21.4933 110.476 21.34 109.836 21.34C109.502 21.34 109.102 21.3467 108.636 21.36C108.169 21.3733 107.696 21.3933 107.216 21.42C106.749 21.4333 106.329 21.4533 105.956 21.48V19.12C106.262 19.0933 106.609 19.0667 106.996 19.04C107.382 19.0133 107.776 19 108.176 19C108.589 18.9867 108.976 18.98 109.336 18.98C110.456 18.98 111.382 19.1267 112.116 19.42C112.862 19.7133 113.422 20.1733 113.796 20.8C114.182 21.4267 114.376 22.2467 114.376 23.26V30H112.176ZM108.676 30.28C107.889 30.28 107.196 30.14 106.596 29.86C106.009 29.58 105.549 29.18 105.216 28.66C104.896 28.14 104.736 27.5133 104.736 26.78C104.736 25.98 104.929 25.3267 105.316 24.82C105.716 24.3133 106.269 23.9333 106.976 23.68C107.696 23.4267 108.536 23.3 109.496 23.3H112.016V24.96H109.456C108.816 24.96 108.322 25.12 107.976 25.44C107.642 25.7467 107.476 26.1467 107.476 26.64C107.476 27.1333 107.642 27.5333 107.976 27.84C108.322 28.1467 108.816 28.3 109.456 28.3C109.842 28.3 110.196 28.2333 110.516 28.1C110.849 27.9533 111.122 27.7133 111.336 27.38C111.562 27.0333 111.689 26.5667 111.716 25.98L112.396 26.76C112.329 27.52 112.142 28.16 111.836 28.68C111.542 29.2 111.129 29.6 110.596 29.88C110.076 30.1467 109.436 30.28 108.676 30.28ZM117.353 30V19.14H119.553V23.8H119.353C119.353 22.6933 119.5 21.7733 119.793 21.04C120.087 20.2933 120.52 19.7333 121.093 19.36C121.68 18.9867 122.407 18.8 123.273 18.8H123.393C124.687 18.8 125.667 19.22 126.333 20.06C127 20.8867 127.333 22.1267 127.333 23.78V30H124.553V23.54C124.553 22.8733 124.36 22.3333 123.973 21.92C123.6 21.5067 123.08 21.3 122.413 21.3C121.733 21.3 121.18 21.5133 120.753 21.94C120.34 22.3533 120.133 22.9133 120.133 23.62V30H117.353ZM135.542 30.38C134.582 30.38 133.736 30.2267 133.002 29.92C132.269 29.6133 131.649 29.2 131.142 28.68C130.636 28.1467 130.249 27.5467 129.982 26.88C129.729 26.2133 129.602 25.52 129.602 24.8V24.38C129.602 23.6333 129.736 22.9267 130.002 22.26C130.282 21.58 130.676 20.98 131.182 20.46C131.702 19.9267 132.329 19.5133 133.062 19.22C133.796 18.9133 134.622 18.76 135.542 18.76C136.462 18.76 137.289 18.9133 138.022 19.22C138.756 19.5133 139.376 19.9267 139.882 20.46C140.402 20.98 140.796 21.58 141.062 22.26C141.329 22.9267 141.462 23.6333 141.462 24.38V24.8C141.462 25.52 141.329 26.2133 141.062 26.88C140.809 27.5467 140.429 28.1467 139.922 28.68C139.416 29.2 138.796 29.6133 138.062 29.92C137.329 30.2267 136.489 30.38 135.542 30.38ZM135.542 28C136.222 28 136.796 27.8533 137.262 27.56C137.729 27.2533 138.082 26.8467 138.322 26.34C138.562 25.82 138.682 25.2333 138.682 24.58C138.682 23.9133 138.556 23.3267 138.302 22.82C138.062 22.3 137.702 21.8933 137.222 21.6C136.756 21.2933 136.196 21.14 135.542 21.14C134.889 21.14 134.322 21.2933 133.842 21.6C133.376 21.8933 133.016 22.3 132.762 22.82C132.509 23.3267 132.382 23.9133 132.382 24.58C132.382 25.2333 132.502 25.82 132.742 26.34C132.996 26.8467 133.356 27.2533 133.822 27.56C134.289 27.8533 134.862 28 135.542 28ZM157.893 30L152.553 23.18H150.493L156.833 15.4H160.093L154.373 22.4L154.293 21L161.353 30H157.893ZM148.433 30V15.4H151.273V30H148.433ZM166.132 30.34C164.878 30.34 163.905 29.9267 163.212 29.1C162.532 28.2733 162.192 27.0467 162.192 25.42V19.12H164.972V25.66C164.972 26.3267 165.158 26.86 165.532 27.26C165.905 27.6467 166.412 27.84 167.052 27.84C167.692 27.84 168.212 27.6333 168.612 27.22C169.025 26.8067 169.232 26.2467 169.232 25.54V19.12H172.012V30H169.812V25.38H170.032C170.032 26.4733 169.892 27.3867 169.612 28.12C169.332 28.8533 168.912 29.4067 168.352 29.78C167.792 30.1533 167.092 30.34 166.252 30.34H166.132ZM175.205 30V19.14H177.405V23.74H177.345C177.345 22.18 177.678 21 178.345 20.2C179.012 19.4 179.992 19 181.285 19H181.685V21.42H180.925C179.992 21.42 179.265 21.6733 178.745 22.18C178.238 22.6733 177.985 23.3933 177.985 24.34V30H175.205ZM188.687 30.38C187.727 30.38 186.88 30.2267 186.147 29.92C185.413 29.6133 184.793 29.2 184.287 28.68C183.78 28.1467 183.393 27.5467 183.127 26.88C182.873 26.2133 182.747 25.52 182.747 24.8V24.38C182.747 23.6333 182.88 22.9267 183.147 22.26C183.427 21.58 183.82 20.98 184.327 20.46C184.847 19.9267 185.473 19.5133 186.207 19.22C186.94 18.9133 187.767 18.76 188.687 18.76C189.607 18.76 190.433 18.9133 191.167 19.22C191.9 19.5133 192.52 19.9267 193.027 20.46C193.547 20.98 193.94 21.58 194.207 22.26C194.473 22.9267 194.607 23.6333 194.607 24.38V24.8C194.607 25.52 194.473 26.2133 194.207 26.88C193.953 27.5467 193.573 28.1467 193.067 28.68C192.56 29.2 191.94 29.6133 191.207 29.92C190.473 30.2267 189.633 30.38 188.687 30.38ZM188.687 28C189.367 28 189.94 27.8533 190.407 27.56C190.873 27.2533 191.227 26.8467 191.467 26.34C191.707 25.82 191.827 25.2333 191.827 24.58C191.827 23.9133 191.7 23.3267 191.447 22.82C191.207 22.3 190.847 21.8933 190.367 21.6C189.9 21.2933 189.34 21.14 188.687 21.14C188.033 21.14 187.467 21.2933 186.987 21.6C186.52 21.8933 186.16 22.3 185.907 22.82C185.653 23.3267 185.527 23.9133 185.527 24.58C185.527 25.2333 185.647 25.82 185.887 26.34C186.14 26.8467 186.5 27.2533 186.967 27.56C187.433 27.8533 188.007 28 188.687 28ZM200.741 30.34C199.488 30.34 198.514 29.9267 197.821 29.1C197.141 28.2733 196.801 27.0467 196.801 25.42V19.12H199.581V25.66C199.581 26.3267 199.768 26.86 200.141 27.26C200.514 27.6467 201.021 27.84 201.661 27.84C202.301 27.84 202.821 27.6333 203.221 27.22C203.634 26.8067 203.841 26.2467 203.841 25.54V19.12H206.621V30H204.421V25.38H204.641C204.641 26.4733 204.501 27.3867 204.221 28.12C203.941 28.8533 203.521 29.4067 202.961 29.78C202.401 30.1533 201.701 30.34 200.861 30.34H200.741Z" fill="white"/>
<path d="M93.53 59.252C92.606 59.252 91.8267 59.0747 91.192 58.72C90.5667 58.356 90.0907 57.852 89.764 57.208C89.4467 56.5547 89.288 55.7987 89.288 54.94V48.78H90.66V55.108C90.66 55.6773 90.7673 56.1813 90.982 56.62C91.206 57.0493 91.5327 57.3853 91.962 57.628C92.3913 57.8707 92.914 57.992 93.53 57.992C94.146 57.992 94.664 57.8753 95.084 57.642C95.5133 57.3993 95.8353 57.0633 96.05 56.634C96.274 56.1953 96.386 55.6867 96.386 55.108V48.78H97.758V54.94C97.758 55.7987 97.5993 56.5547 97.282 57.208C96.9647 57.852 96.4933 58.356 95.868 58.72C95.2427 59.0747 94.4633 59.252 93.53 59.252ZM100.559 59V48.78H101.931V59H100.559ZM103.799 59.84L106.655 48.08H107.915L105.059 59.84H103.799ZM113.792 59.252C112.868 59.252 112.088 59.0747 111.454 58.72C110.828 58.356 110.352 57.852 110.026 57.208C109.708 56.5547 109.55 55.7987 109.55 54.94V48.78H110.922V55.108C110.922 55.6773 111.029 56.1813 111.244 56.62C111.468 57.0493 111.794 57.3853 112.224 57.628C112.653 57.8707 113.176 57.992 113.792 57.992C114.408 57.992 114.926 57.8753 115.346 57.642C115.775 57.3993 116.097 57.0633 116.312 56.634C116.536 56.1953 116.648 55.6867 116.648 55.108V48.78H118.02V54.94C118.02 55.7987 117.861 56.5547 117.544 57.208C117.226 57.852 116.755 58.356 116.13 58.72C115.504 59.0747 114.725 59.252 113.792 59.252ZM119.451 59L123.259 53.54V53.792L119.787 48.78H121.341L124.015 52.7H124.239L126.955 48.78H128.439L124.869 53.848L124.855 53.596L128.719 59H127.165L124.113 54.702H123.889L120.935 59H119.451ZM134.736 59.056V57.796H137.284C137.9 57.796 138.446 57.698 138.922 57.502C139.407 57.2967 139.818 57.0167 140.154 56.662C140.499 56.3073 140.761 55.892 140.938 55.416C141.115 54.94 141.204 54.4267 141.204 53.876C141.204 53.2973 141.115 52.7747 140.938 52.308C140.761 51.832 140.499 51.4213 140.154 51.076C139.818 50.7213 139.407 50.4507 138.922 50.264C138.446 50.0773 137.9 49.984 137.284 49.984H134.736V48.724H137.144C138.068 48.724 138.871 48.8687 139.552 49.158C140.233 49.438 140.798 49.8207 141.246 50.306C141.703 50.782 142.044 51.3187 142.268 51.916C142.492 52.504 142.604 53.106 142.604 53.722V54.03C142.604 54.6273 142.492 55.2247 142.268 55.822C142.044 56.4193 141.703 56.9607 141.246 57.446C140.798 57.9313 140.233 58.3233 139.552 58.622C138.871 58.9113 138.068 59.056 137.144 59.056H134.736ZM133.644 59.056V48.724H135.016V59.056H133.644ZM144.718 59V48.78H146.09V59H144.718ZM145.81 59V57.768H150.766V59H145.81ZM145.81 54.422V53.19H150.332V54.422H145.81ZM145.81 50.012V48.78H150.626V50.012H145.81ZM156.322 59.252C155.472 59.252 154.749 59.112 154.152 58.832C153.554 58.552 153.097 58.1647 152.78 57.67C152.462 57.1753 152.304 56.6153 152.304 55.99H153.676C153.676 56.298 153.755 56.606 153.914 56.914C154.082 57.222 154.357 57.4787 154.74 57.684C155.132 57.8893 155.659 57.992 156.322 57.992C156.938 57.992 157.442 57.9033 157.834 57.726C158.226 57.5393 158.515 57.3013 158.702 57.012C158.888 56.7133 158.982 56.3913 158.982 56.046C158.982 55.626 158.8 55.2807 158.436 55.01C158.072 54.73 157.54 54.5573 156.84 54.492L155.706 54.394C154.8 54.3193 154.077 54.0393 153.536 53.554C152.994 53.0687 152.724 52.4293 152.724 51.636C152.724 51.0107 152.873 50.4647 153.172 49.998C153.48 49.5313 153.904 49.1673 154.446 48.906C154.987 48.6353 155.617 48.5 156.336 48.5C157.045 48.5 157.67 48.6307 158.212 48.892C158.753 49.1533 159.173 49.522 159.472 49.998C159.78 50.4647 159.934 51.0247 159.934 51.678H158.562C158.562 51.3513 158.482 51.0433 158.324 50.754C158.174 50.4647 157.936 50.2267 157.61 50.04C157.283 49.8533 156.858 49.76 156.336 49.76C155.832 49.76 155.412 49.8487 155.076 50.026C154.749 50.2033 154.502 50.4367 154.334 50.726C154.175 51.006 154.096 51.3093 154.096 51.636C154.096 52.0093 154.24 52.3407 154.53 52.63C154.819 52.9193 155.248 53.0873 155.818 53.134L156.952 53.232C157.652 53.288 158.254 53.4373 158.758 53.68C159.271 53.9133 159.663 54.2307 159.934 54.632C160.214 55.024 160.354 55.4953 160.354 56.046C160.354 56.6713 160.186 57.2267 159.85 57.712C159.514 58.1973 159.042 58.5753 158.436 58.846C157.829 59.1167 157.124 59.252 156.322 59.252ZM162.684 59V48.78H164.056V59H162.684ZM171.622 59.252C170.829 59.252 170.11 59.1213 169.466 58.86C168.822 58.5987 168.267 58.23 167.8 57.754C167.343 57.278 166.988 56.718 166.736 56.074C166.484 55.4207 166.358 54.7113 166.358 53.946V53.638C166.358 52.9847 166.47 52.3547 166.694 51.748C166.928 51.132 167.259 50.5813 167.688 50.096C168.127 49.6013 168.659 49.214 169.284 48.934C169.91 48.6447 170.614 48.5 171.398 48.5C172.248 48.5 173.004 48.6633 173.666 48.99C174.329 49.3073 174.861 49.7553 175.262 50.334C175.664 50.9033 175.897 51.566 175.962 52.322H174.562C174.497 51.7527 174.31 51.2813 174.002 50.908C173.694 50.5253 173.312 50.2407 172.854 50.054C172.406 49.858 171.921 49.76 171.398 49.76C170.866 49.76 170.376 49.858 169.928 50.054C169.48 50.2407 169.093 50.5113 168.766 50.866C168.449 51.2207 168.202 51.6453 168.024 52.14C167.847 52.6347 167.758 53.19 167.758 53.806C167.758 54.506 167.852 55.122 168.038 55.654C168.234 56.1767 168.505 56.6153 168.85 56.97C169.196 57.3153 169.602 57.5767 170.068 57.754C170.544 57.9313 171.062 58.02 171.622 58.02C172.416 58.02 173.111 57.8613 173.708 57.544C174.315 57.2173 174.772 56.7973 175.08 56.284L174.576 57.95V54.912H175.864V57.348C175.407 57.9453 174.819 58.412 174.1 58.748C173.382 59.084 172.556 59.252 171.622 59.252ZM171.258 55.192V54.044H176.732V55.192H171.258ZM178.693 59V48.78H180.933L186.127 57.768H186.575L186.295 58.02V48.78H187.611V59H185.343L180.149 50.012H179.701L179.981 49.76V59H178.693ZM190.574 59V48.78H191.946V59H190.574ZM191.666 59V57.768H196.622V59H191.666ZM191.666 54.422V53.19H196.188V54.422H191.666ZM191.666 50.012V48.78H196.482V50.012H191.666ZM198.968 59V48.724H200.34V59H198.968ZM205.282 59L201.894 54.45H203.504L206.948 59H205.282ZM199.822 55.304V54.086H202.566C202.996 54.086 203.364 53.9973 203.672 53.82C203.98 53.6427 204.218 53.4 204.386 53.092C204.554 52.7747 204.638 52.4153 204.638 52.014C204.638 51.6127 204.554 51.258 204.386 50.95C204.218 50.6327 203.98 50.3853 203.672 50.208C203.364 50.0213 202.996 49.928 202.566 49.928H199.822V48.724H202.314C203.061 48.724 203.714 48.836 204.274 49.06C204.834 49.284 205.268 49.6293 205.576 50.096C205.884 50.5627 206.038 51.1647 206.038 51.902V52.126C206.038 52.8633 205.88 53.4653 205.562 53.932C205.254 54.3987 204.82 54.744 204.26 54.968C203.71 55.192 203.061 55.304 202.314 55.304H199.822Z" fill="#7B848B"/>
<defs>
<filter id="filter0_d_900_4013" x="0" y="0" width="88" height="88" filterUnits="userSpaceOnUse" color-interpolation-filters="sRGB">
<feFlood flood-opacity="0" result="BackgroundImageFix"/>
<feColorMatrix in="SourceAlpha" type="matrix" values="0 0 0 0 0 0 0 0 0 0 0 0 0 0 0 0 0 0 127 0" result="hardAlpha"/>
<feOffset dy="8"/>
<feGaussianBlur stdDeviation="8"/>
<feComposite in2="hardAlpha" operator="out"/>
<feColorMatrix type="matrix" values="0 0 0 0 0.54275 0 0 0 0 0.2625 0 0 0 0 1 0 0 0 0.24 0"/>
<feBlend mode="normal" in2="BackgroundImageFix" result="effect1_dropShadow_900_4013"/>
<feBlend mode="normal" in="SourceGraphic" in2="effect1_dropShadow_900_4013" result="shape"/>
</filter>
</defs>
</svg>
