<svg width="238" height="24" viewBox="0 0 238 24" fill="none" xmlns="http://www.w3.org/2000/svg">
<path d="M19.5 3.75H4.5C4.08579 3.75 3.75 4.08579 3.75 4.5V19.5C3.75 19.9142 4.08579 20.25 4.5 20.25H19.5C19.9142 20.25 20.25 19.9142 20.25 19.5V4.5C20.25 4.08579 19.9142 3.75 19.5 3.75Z" stroke="#9249F2" stroke-width="1.5" stroke-linecap="round" stroke-linejoin="round"/>
<path d="M16.5 2.25V5.25" stroke="#9249F2" stroke-width="1.5" stroke-linecap="round" stroke-linejoin="round"/>
<path d="M7.5 2.25V5.25" stroke="#9249F2" stroke-width="1.5" stroke-linecap="round" stroke-linejoin="round"/>
<path d="M3.75 8.25H20.25" stroke="#9249F2" stroke-width="1.5" stroke-linecap="round" stroke-linejoin="round"/>
<path d="M34.968 17V7.326L35.43 7.69H32.644V6.78H36.018V17H34.968ZM42.6878 17V6.78H43.7518V17H42.6878ZM43.4718 12.282V11.316L47.9938 11.302V12.268L43.4718 12.282ZM43.4718 7.732V6.78H48.2598V7.732H43.4718ZM53.2411 17.238C52.6064 17.238 52.0557 17.1307 51.5891 16.916C51.1224 16.692 50.7397 16.398 50.4411 16.034C50.1424 15.6607 49.9184 15.2453 49.7691 14.788C49.6291 14.3307 49.5591 13.8593 49.5591 13.374V13.178C49.5591 12.702 49.6291 12.2353 49.7691 11.778C49.9184 11.3207 50.1424 10.91 50.4411 10.546C50.7397 10.182 51.1131 9.89267 51.5611 9.678C52.0184 9.454 52.5504 9.342 53.1571 9.342C53.9317 9.342 54.5757 9.51467 55.0891 9.86C55.6117 10.2053 56.0037 10.6487 56.2651 11.19C56.5264 11.722 56.6571 12.296 56.6571 12.912V13.458H50.0351V12.646H55.9291L55.6631 13.052C55.6631 12.5013 55.5651 12.0207 55.3691 11.61C55.1824 11.19 54.9024 10.8633 54.5291 10.63C54.1651 10.3873 53.7077 10.266 53.1571 10.266C52.5784 10.266 52.0977 10.4013 51.7151 10.672C51.3324 10.9427 51.0431 11.302 50.8471 11.75C50.6604 12.198 50.5671 12.7067 50.5671 13.276C50.5671 13.836 50.6604 14.3493 50.8471 14.816C51.0431 15.2733 51.3371 15.6373 51.7291 15.908C52.1304 16.1787 52.6344 16.314 53.2411 16.314C53.8851 16.314 54.4077 16.1693 54.8091 15.88C55.2104 15.5813 55.4577 15.2313 55.5511 14.83H56.5311C56.4377 15.3247 56.2417 15.754 55.9431 16.118C55.6444 16.4727 55.2664 16.748 54.8091 16.944C54.3517 17.14 53.8291 17.238 53.2411 17.238ZM62.5003 17.238C61.847 17.238 61.273 17.0933 60.7783 16.804C60.293 16.5147 59.9103 16.1087 59.6303 15.586C59.3596 15.0633 59.215 14.4613 59.1963 13.78H59.5183V17H58.6783V6.78H59.7283V11.89L59.3223 12.828C59.341 12.0813 59.4903 11.4513 59.7703 10.938C60.0596 10.4153 60.4423 10.0187 60.9183 9.748C61.4036 9.47733 61.9543 9.342 62.5703 9.342C63.1116 9.342 63.6016 9.44467 64.0403 9.65C64.479 9.85533 64.8523 10.1353 65.1603 10.49C65.4776 10.8447 65.7156 11.2553 65.8743 11.722C66.0423 12.1793 66.1263 12.6647 66.1263 13.178V13.374C66.1263 13.878 66.0423 14.3633 65.8743 14.83C65.7063 15.2873 65.4636 15.698 65.1463 16.062C64.8383 16.426 64.4603 16.7153 64.0123 16.93C63.5643 17.1353 63.0603 17.238 62.5003 17.238ZM62.3883 16.314C62.9483 16.314 63.429 16.1787 63.8303 15.908C64.2316 15.6373 64.5396 15.2733 64.7543 14.816C64.969 14.3587 65.0763 13.8453 65.0763 13.276C65.0763 12.6973 64.9643 12.184 64.7403 11.736C64.5256 11.2787 64.213 10.9193 63.8023 10.658C63.401 10.3967 62.9296 10.266 62.3883 10.266C61.8843 10.266 61.427 10.378 61.0163 10.602C60.6056 10.826 60.279 11.1433 60.0363 11.554C59.803 11.9553 59.6863 12.4313 59.6863 12.982V13.668C59.6863 14.1907 59.803 14.6527 60.0363 15.054C60.279 15.446 60.6056 15.754 61.0163 15.978C61.427 16.202 61.8843 16.314 62.3883 16.314ZM68.0159 19.142L67.1619 18.834L68.3799 15.46L69.2619 15.782L68.0159 19.142ZM74.6828 17V15.446C74.6828 15.0447 74.7388 14.704 74.8508 14.424C74.9628 14.144 75.1588 13.8873 75.4388 13.654C75.7188 13.4207 76.1015 13.1967 76.5868 12.982L78.5888 12.044C79.0742 11.82 79.4615 11.526 79.7508 11.162C80.0402 10.798 80.1848 10.322 80.1848 9.734C80.1848 9.01533 79.9795 8.45533 79.5688 8.054C79.1675 7.64333 78.6122 7.438 77.9028 7.438C77.2028 7.438 76.6428 7.64333 76.2228 8.054C75.8122 8.45533 75.6068 9.01533 75.6068 9.734H74.5848C74.5848 9.12733 74.7108 8.58133 74.9628 8.096C75.2148 7.61067 75.5882 7.228 76.0828 6.948C76.5775 6.65867 77.1842 6.514 77.9028 6.514C78.6308 6.514 79.2375 6.65867 79.7228 6.948C80.2082 7.228 80.5768 7.606 80.8288 8.082C81.0808 8.54867 81.2068 9.06667 81.2068 9.636V9.832C81.2068 10.56 80.9968 11.1713 80.5768 11.666C80.1662 12.1513 79.6248 12.5527 78.9528 12.87L76.9368 13.808C76.4608 14.0227 76.1388 14.2467 75.9708 14.48C75.8122 14.704 75.7328 14.9933 75.7328 15.348V16.594L75.4248 16.09H81.3748V17H74.6828ZM87.3004 17.238C86.5818 17.238 85.9658 17.112 85.4524 16.86C84.9391 16.608 84.5191 16.258 84.1924 15.81C83.8658 15.3527 83.6231 14.8207 83.4644 14.214C83.3151 13.598 83.2404 12.9353 83.2404 12.226V11.568C83.2404 10.5693 83.3851 9.692 83.6744 8.936C83.9731 8.18 84.4211 7.58733 85.0184 7.158C85.6251 6.72867 86.3858 6.514 87.3004 6.514C88.2151 6.514 88.9711 6.72867 89.5684 7.158C90.1658 7.58733 90.6091 8.18 90.8984 8.936C91.1971 9.692 91.3464 10.5693 91.3464 11.568V12.226C91.3464 12.9353 91.2671 13.598 91.1084 14.214C90.9591 14.8207 90.7211 15.3527 90.3944 15.81C90.0678 16.258 89.6478 16.608 89.1344 16.86C88.6211 17.112 88.0098 17.238 87.3004 17.238ZM87.3004 16.286C88.3084 16.286 89.0551 15.9313 89.5404 15.222C90.0351 14.5127 90.2824 13.4067 90.2824 11.904C90.2824 10.336 90.0304 9.20667 89.5264 8.516C89.0318 7.816 88.2898 7.466 87.3004 7.466C86.3018 7.466 85.5504 7.816 85.0464 8.516C84.5518 9.20667 84.3044 10.3267 84.3044 11.876C84.3044 13.388 84.5471 14.5033 85.0324 15.222C85.5271 15.9313 86.2831 16.286 87.3004 16.286ZM93.5774 17V15.446C93.5774 15.0447 93.6334 14.704 93.7454 14.424C93.8574 14.144 94.0534 13.8873 94.3334 13.654C94.6134 13.4207 94.996 13.1967 95.4814 12.982L97.4834 12.044C97.9687 11.82 98.356 11.526 98.6454 11.162C98.9347 10.798 99.0794 10.322 99.0794 9.734C99.0794 9.01533 98.874 8.45533 98.4634 8.054C98.062 7.64333 97.5067 7.438 96.7974 7.438C96.0974 7.438 95.5374 7.64333 95.1174 8.054C94.7067 8.45533 94.5014 9.01533 94.5014 9.734H93.4794C93.4794 9.12733 93.6054 8.58133 93.8574 8.096C94.1094 7.61067 94.4827 7.228 94.9774 6.948C95.472 6.65867 96.0787 6.514 96.7974 6.514C97.5254 6.514 98.132 6.65867 98.6174 6.948C99.1027 7.228 99.4714 7.606 99.7234 8.082C99.9754 8.54867 100.101 9.06667 100.101 9.636V9.832C100.101 10.56 99.8914 11.1713 99.4714 11.666C99.0607 12.1513 98.5194 12.5527 97.8474 12.87L95.8314 13.808C95.3554 14.0227 95.0334 14.2467 94.8654 14.48C94.7067 14.704 94.6274 14.9933 94.6274 15.348V16.594L94.3194 16.09H100.269V17H93.5774ZM106.195 17.238C105.476 17.238 104.86 17.112 104.347 16.86C103.834 16.608 103.414 16.258 103.087 15.81C102.76 15.3527 102.518 14.8207 102.359 14.214C102.21 13.598 102.135 12.9353 102.135 12.226V11.568C102.135 10.5693 102.28 9.692 102.569 8.936C102.868 8.18 103.316 7.58733 103.913 7.158C104.52 6.72867 105.28 6.514 106.195 6.514C107.11 6.514 107.866 6.72867 108.463 7.158C109.06 7.58733 109.504 8.18 109.793 8.936C110.092 9.692 110.241 10.5693 110.241 11.568V12.226C110.241 12.9353 110.162 13.598 110.003 14.214C109.854 14.8207 109.616 15.3527 109.289 15.81C108.962 16.258 108.542 16.608 108.029 16.86C107.516 17.112 106.904 17.238 106.195 17.238ZM106.195 16.286C107.203 16.286 107.95 15.9313 108.435 15.222C108.93 14.5127 109.177 13.4067 109.177 11.904C109.177 10.336 108.925 9.20667 108.421 8.516C107.926 7.816 107.184 7.466 106.195 7.466C105.196 7.466 104.445 7.816 103.941 8.516C103.446 9.20667 103.199 10.3267 103.199 11.876C103.199 13.388 103.442 14.5033 103.927 15.222C104.422 15.9313 105.178 16.286 106.195 16.286Z" fill="#132238"/>
<path d="M142.5 10.5H148.5" stroke="#9249F2" stroke-width="1.5" stroke-linecap="round" stroke-linejoin="round"/>
<path d="M142.5 13.5H148.5" stroke="#9249F2" stroke-width="1.5" stroke-linecap="round" stroke-linejoin="round"/>
<path d="M151.5 3.75H136.5C136.086 3.75 135.75 4.08579 135.75 4.5V19.5C135.75 19.9142 136.086 20.25 136.5 20.25H151.5C151.914 20.25 152.25 19.9142 152.25 19.5V4.5C152.25 4.08579 151.914 3.75 151.5 3.75Z" stroke="#9249F2" stroke-width="1.5" stroke-linecap="round" stroke-linejoin="round"/>
<path d="M139.5 3.75V20.25" stroke="#9249F2" stroke-width="1.5" stroke-linecap="round" stroke-linejoin="round"/>
<path d="M168.382 17.238C167.607 17.238 166.959 17.084 166.436 16.776C165.913 16.4587 165.517 16.0433 165.246 15.53C164.975 15.0167 164.84 14.466 164.84 13.878H165.862C165.862 14.3447 165.96 14.76 166.156 15.124C166.361 15.488 166.651 15.7773 167.024 15.992C167.397 16.2067 167.85 16.314 168.382 16.314C168.914 16.314 169.367 16.2113 169.74 16.006C170.113 15.7913 170.398 15.502 170.594 15.138C170.799 14.7647 170.902 14.3447 170.902 13.878C170.902 13.4207 170.804 13.0053 170.608 12.632C170.412 12.2587 170.123 11.9647 169.74 11.75C169.367 11.526 168.914 11.414 168.382 11.414C168.009 11.414 167.64 11.4793 167.276 11.61C166.912 11.7313 166.609 11.9133 166.366 12.156H165.4L165.932 6.78H171.014V7.69H166.506L166.8 7.326L166.38 11.526L166.058 11.456C166.347 11.1667 166.688 10.938 167.08 10.77C167.472 10.602 167.92 10.518 168.424 10.518C169.189 10.518 169.833 10.6767 170.356 10.994C170.879 11.3113 171.271 11.722 171.532 12.226C171.803 12.7207 171.938 13.2433 171.938 13.794V13.976C171.938 14.5267 171.803 15.054 171.532 15.558C171.261 16.0527 170.86 16.4587 170.328 16.776C169.805 17.084 169.157 17.238 168.382 17.238ZM177.266 17V9.58H178.106V12.702H177.938C177.938 12.0207 178.032 11.4327 178.218 10.938C178.414 10.4433 178.704 10.0607 179.086 9.79C179.469 9.51 179.954 9.37 180.542 9.37H180.584C181.172 9.37 181.658 9.50533 182.04 9.776C182.423 10.0467 182.708 10.4293 182.894 10.924C183.081 11.4187 183.174 12.0113 183.174 12.702H182.838C182.838 12.0207 182.932 11.4327 183.118 10.938C183.314 10.4433 183.604 10.0607 183.986 9.79C184.378 9.51 184.868 9.37 185.456 9.37H185.498C186.086 9.37 186.572 9.50533 186.954 9.776C187.346 10.0467 187.636 10.4293 187.822 10.924C188.018 11.4187 188.116 12.0113 188.116 12.702V17H187.066V12.464C187.066 11.8107 186.908 11.2927 186.59 10.91C186.273 10.5273 185.816 10.336 185.218 10.336C184.602 10.336 184.112 10.5367 183.748 10.938C183.394 11.33 183.216 11.862 183.216 12.534V17H182.166V12.464C182.166 11.8107 182.008 11.2927 181.69 10.91C181.373 10.5273 180.916 10.336 180.318 10.336C179.702 10.336 179.212 10.5367 178.848 10.938C178.494 11.33 178.316 11.862 178.316 12.534V17H177.266ZM191.125 17V9.594H192.161V17H191.125ZM189.935 10.434V9.594H192.161V10.434H189.935ZM191.349 8.222C191.097 8.222 190.906 8.15667 190.775 8.026C190.654 7.886 190.593 7.71333 190.593 7.508C190.593 7.30267 190.654 7.13467 190.775 7.004C190.906 6.864 191.097 6.794 191.349 6.794C191.601 6.794 191.788 6.864 191.909 7.004C192.03 7.13467 192.091 7.30267 192.091 7.508C192.091 7.71333 192.03 7.886 191.909 8.026C191.788 8.15667 191.601 8.222 191.349 8.222ZM194.917 17V9.594H195.757V12.702H195.589C195.589 12.0113 195.691 11.4187 195.897 10.924C196.102 10.4293 196.41 10.0467 196.821 9.776C197.231 9.50533 197.749 9.37 198.375 9.37H198.417C199.35 9.37 200.045 9.664 200.503 10.252C200.96 10.8307 201.189 11.6473 201.189 12.702V17H200.153V12.478C200.153 11.834 199.975 11.316 199.621 10.924C199.266 10.532 198.771 10.336 198.137 10.336C197.483 10.336 196.956 10.5413 196.555 10.952C196.163 11.3533 195.967 11.8853 195.967 12.548V17H194.917ZM207.071 17V9.594H207.911V12.688H207.827C207.827 11.6053 208.065 10.8073 208.541 10.294C209.017 9.77133 209.764 9.51 210.781 9.51H211.019V10.462H210.585C209.782 10.462 209.171 10.672 208.751 11.092C208.331 11.5027 208.121 12.1093 208.121 12.912V17H207.071ZM215.716 17.238C215.081 17.238 214.53 17.1307 214.064 16.916C213.597 16.692 213.214 16.398 212.916 16.034C212.617 15.6607 212.393 15.2453 212.244 14.788C212.104 14.3307 212.034 13.8593 212.034 13.374V13.178C212.034 12.702 212.104 12.2353 212.244 11.778C212.393 11.3207 212.617 10.91 212.916 10.546C213.214 10.182 213.588 9.89267 214.036 9.678C214.493 9.454 215.025 9.342 215.632 9.342C216.406 9.342 217.05 9.51467 217.564 9.86C218.086 10.2053 218.478 10.6487 218.74 11.19C219.001 11.722 219.132 12.296 219.132 12.912V13.458H212.51V12.646H218.404L218.138 13.052C218.138 12.5013 218.04 12.0207 217.844 11.61C217.657 11.19 217.377 10.8633 217.004 10.63C216.64 10.3873 216.182 10.266 215.632 10.266C215.053 10.266 214.572 10.4013 214.19 10.672C213.807 10.9427 213.518 11.302 213.322 11.75C213.135 12.198 213.042 12.7067 213.042 13.276C213.042 13.836 213.135 14.3493 213.322 14.816C213.518 15.2733 213.812 15.6373 214.204 15.908C214.605 16.1787 215.109 16.314 215.716 16.314C216.36 16.314 216.882 16.1693 217.284 15.88C217.685 15.5813 217.932 15.2313 218.026 14.83H219.006C218.912 15.3247 218.716 15.754 218.418 16.118C218.119 16.4727 217.741 16.748 217.284 16.944C216.826 17.14 216.304 17.238 215.716 17.238ZM225.661 17V14.774H225.493V12.142C225.493 11.5913 225.348 11.1713 225.059 10.882C224.77 10.5833 224.322 10.434 223.715 10.434C223.435 10.434 223.15 10.4387 222.861 10.448C222.581 10.4573 222.31 10.4713 222.049 10.49C221.797 10.4993 221.573 10.5133 221.377 10.532V9.608C221.582 9.58933 221.792 9.57067 222.007 9.552C222.222 9.53333 222.441 9.524 222.665 9.524C222.898 9.51467 223.122 9.51 223.337 9.51C224.093 9.51 224.7 9.60333 225.157 9.79C225.624 9.97667 225.964 10.2707 226.179 10.672C226.394 11.064 226.501 11.5867 226.501 12.24V17H225.661ZM223.155 17.196C222.632 17.196 222.17 17.1027 221.769 16.916C221.368 16.7293 221.055 16.4587 220.831 16.104C220.616 15.7493 220.509 15.32 220.509 14.816C220.509 14.3213 220.621 13.9013 220.845 13.556C221.078 13.2107 221.41 12.9493 221.839 12.772C222.278 12.5853 222.805 12.492 223.421 12.492H225.591V13.29H223.351C222.763 13.29 222.31 13.4347 221.993 13.724C221.685 14.004 221.531 14.3727 221.531 14.83C221.531 15.2967 221.694 15.67 222.021 15.95C222.348 16.2207 222.791 16.356 223.351 16.356C223.696 16.356 224.028 16.2953 224.345 16.174C224.662 16.0433 224.928 15.8287 225.143 15.53C225.358 15.222 225.474 14.802 225.493 14.27L225.801 14.704C225.764 15.2547 225.633 15.7167 225.409 16.09C225.185 16.454 224.882 16.7293 224.499 16.916C224.116 17.1027 223.668 17.196 223.155 17.196ZM232.162 17.238C231.62 17.238 231.126 17.14 230.678 16.944C230.239 16.7387 229.856 16.4587 229.53 16.104C229.212 15.74 228.965 15.3293 228.788 14.872C228.62 14.4053 228.536 13.9107 228.536 13.388V13.192C228.536 12.688 228.62 12.2073 228.788 11.75C228.956 11.2833 229.194 10.8727 229.502 10.518C229.819 10.154 230.197 9.86933 230.636 9.664C231.084 9.44933 231.583 9.342 232.134 9.342C232.759 9.342 233.31 9.47733 233.786 9.748C234.262 10.0187 234.644 10.4107 234.934 10.924C235.223 11.428 235.377 12.0487 235.396 12.786L234.934 11.918V6.78H235.984V17H235.144V13.71H235.48C235.461 14.4847 235.298 15.138 234.99 15.67C234.691 16.1927 234.294 16.5847 233.8 16.846C233.314 17.1073 232.768 17.238 232.162 17.238ZM232.302 16.314C232.806 16.314 233.258 16.202 233.66 15.978C234.07 15.754 234.392 15.4367 234.626 15.026C234.859 14.606 234.976 14.1253 234.976 13.584V12.912C234.976 12.3893 234.859 11.932 234.626 11.54C234.392 11.1387 234.07 10.826 233.66 10.602C233.258 10.378 232.801 10.266 232.288 10.266C231.737 10.266 231.256 10.4013 230.846 10.672C230.444 10.9333 230.132 11.2927 229.908 11.75C229.693 12.2073 229.586 12.7207 229.586 13.29C229.586 13.878 229.698 14.4007 229.922 14.858C230.146 15.3153 230.463 15.6747 230.874 15.936C231.284 16.188 231.76 16.314 232.302 16.314Z" fill="#132238"/>
</svg>
