<svg width="244" height="24" viewBox="0 0 244 24" fill="none" xmlns="http://www.w3.org/2000/svg">
<path d="M19.5 3.75H4.5C4.08579 3.75 3.75 4.08579 3.75 4.5V19.5C3.75 19.9142 4.08579 20.25 4.5 20.25H19.5C19.9142 20.25 20.25 19.9142 20.25 19.5V4.5C20.25 4.08579 19.9142 3.75 19.5 3.75Z" stroke="#9249F2" stroke-width="1.5" stroke-linecap="round" stroke-linejoin="round"/>
<path d="M16.5 2.25V5.25" stroke="#9249F2" stroke-width="1.5" stroke-linecap="round" stroke-linejoin="round"/>
<path d="M7.5 2.25V5.25" stroke="#9249F2" stroke-width="1.5" stroke-linecap="round" stroke-linejoin="round"/>
<path d="M3.75 8.25H20.25" stroke="#9249F2" stroke-width="1.5" stroke-linecap="round" stroke-linejoin="round"/>
<path d="M34.968 17V7.326L35.43 7.69H32.644V6.78H36.018V17H34.968ZM39.9382 17L44.2502 7.83L44.1662 7.69H38.5662V6.78H45.1882V8.082L41.0302 17H39.9382ZM38.5662 9.398V6.78H39.4622V9.398H38.5662ZM55.0838 17.238C54.1971 17.238 53.4271 17.0793 52.7738 16.762C52.1205 16.4447 51.5791 16.0247 51.1498 15.502C50.7205 14.9793 50.3985 14.41 50.1838 13.794C49.9691 13.178 49.8618 12.576 49.8618 11.988V11.736C49.8618 11.1107 49.9691 10.49 50.1838 9.874C50.4078 9.24867 50.7391 8.684 51.1778 8.18C51.6165 7.676 52.1625 7.27467 52.8158 6.976C53.4691 6.668 54.2251 6.514 55.0838 6.514C55.9518 6.514 56.7078 6.668 57.3518 6.976C58.0051 7.27467 58.5511 7.676 58.9898 8.18C59.4285 8.684 59.7551 9.24867 59.9698 9.874C60.1938 10.49 60.3058 11.1107 60.3058 11.736V12.002C60.3058 12.59 60.1985 13.192 59.9838 13.808C59.7785 14.4147 59.4565 14.9793 59.0178 15.502C58.5885 16.0247 58.0471 16.4447 57.3938 16.762C56.7405 17.0793 55.9705 17.238 55.0838 17.238ZM55.0838 16.258C55.7371 16.258 56.3205 16.1413 56.8338 15.908C57.3471 15.6653 57.7811 15.3387 58.1358 14.928C58.4905 14.508 58.7611 14.0367 58.9478 13.514C59.1345 12.9913 59.2278 12.4453 59.2278 11.876C59.2278 11.2787 59.1345 10.7187 58.9478 10.196C58.7611 9.67333 58.4858 9.21133 58.1218 8.81C57.7671 8.39933 57.3331 8.07733 56.8198 7.844C56.3065 7.61067 55.7278 7.494 55.0838 7.494C54.4491 7.494 53.8751 7.61067 53.3618 7.844C52.8485 8.07733 52.4098 8.39933 52.0458 8.81C51.6911 9.21133 51.4158 9.67333 51.2198 10.196C51.0331 10.7187 50.9398 11.2787 50.9398 11.876C50.9398 12.4453 51.0331 12.9913 51.2198 13.514C51.4065 14.0367 51.6771 14.508 52.0318 14.928C52.3865 15.3387 52.8205 15.6653 53.3338 15.908C53.8565 16.1413 54.4398 16.258 55.0838 16.258ZM65.6284 17.238C65.0031 17.238 64.4571 17.1307 63.9904 16.916C63.5331 16.692 63.1504 16.3933 62.8424 16.02C62.5344 15.6373 62.3011 15.2173 62.1424 14.76C61.9931 14.3027 61.9184 13.8407 61.9184 13.374V13.178C61.9184 12.702 61.9931 12.24 62.1424 11.792C62.3011 11.3347 62.5344 10.924 62.8424 10.56C63.1504 10.1867 63.5331 9.89267 63.9904 9.678C64.4571 9.454 64.9938 9.342 65.6004 9.342C66.2164 9.342 66.7624 9.454 67.2384 9.678C67.7238 9.902 68.1158 10.2193 68.4144 10.63C68.7131 11.0407 68.8904 11.526 68.9464 12.086H67.9384C67.8544 11.5727 67.6118 11.148 67.2104 10.812C66.8184 10.4667 66.2818 10.294 65.6004 10.294C65.0124 10.294 64.5224 10.4293 64.1304 10.7C63.7478 10.9613 63.4584 11.3207 63.2624 11.778C63.0664 12.226 62.9684 12.7253 62.9684 13.276C62.9684 13.8173 63.0664 14.3213 63.2624 14.788C63.4584 15.2453 63.7524 15.614 64.1444 15.894C64.5364 16.1647 65.0311 16.3 65.6284 16.3C66.0858 16.3 66.4824 16.2207 66.8184 16.062C67.1638 15.894 67.4391 15.67 67.6444 15.39C67.8591 15.11 67.9851 14.802 68.0224 14.466H69.0304C68.9931 15.026 68.8158 15.516 68.4984 15.936C68.1904 16.3467 67.7891 16.6687 67.2944 16.902C66.7998 17.126 66.2444 17.238 65.6284 17.238ZM73.6437 17.084C73.1303 17.084 72.687 17.0093 72.3137 16.86C71.9403 16.7107 71.651 16.4587 71.4457 16.104C71.2403 15.74 71.1377 15.2547 71.1377 14.648V7.256H72.1457V14.802C72.1457 15.2313 72.2623 15.5627 72.4957 15.796C72.729 16.02 73.0603 16.132 73.4897 16.132H74.8197V17.084H73.6437ZM69.8077 10.392V9.594H74.8197V10.392H69.8077ZM76.8342 19.142L75.9802 18.834L77.1982 15.46L78.0802 15.782L76.8342 19.142ZM83.5012 17V15.446C83.5012 15.0447 83.5572 14.704 83.6692 14.424C83.7812 14.144 83.9772 13.8873 84.2572 13.654C84.5372 13.4207 84.9199 13.1967 85.4052 12.982L87.4072 12.044C87.8925 11.82 88.2799 11.526 88.5692 11.162C88.8585 10.798 89.0032 10.322 89.0032 9.734C89.0032 9.01533 88.7979 8.45533 88.3872 8.054C87.9859 7.64333 87.4305 7.438 86.7212 7.438C86.0212 7.438 85.4612 7.64333 85.0412 8.054C84.6305 8.45533 84.4252 9.01533 84.4252 9.734H83.4032C83.4032 9.12733 83.5292 8.58133 83.7812 8.096C84.0332 7.61067 84.4065 7.228 84.9012 6.948C85.3959 6.65867 86.0025 6.514 86.7212 6.514C87.4492 6.514 88.0559 6.65867 88.5412 6.948C89.0265 7.228 89.3952 7.606 89.6472 8.082C89.8992 8.54867 90.0252 9.06667 90.0252 9.636V9.832C90.0252 10.56 89.8152 11.1713 89.3952 11.666C88.9845 12.1513 88.4432 12.5527 87.7712 12.87L85.7552 13.808C85.2792 14.0227 84.9572 14.2467 84.7892 14.48C84.6305 14.704 84.5512 14.9933 84.5512 15.348V16.594L84.2432 16.09H90.1932V17H83.5012ZM96.1188 17.238C95.4001 17.238 94.7841 17.112 94.2708 16.86C93.7575 16.608 93.3375 16.258 93.0108 15.81C92.6841 15.3527 92.4415 14.8207 92.2828 14.214C92.1335 13.598 92.0588 12.9353 92.0588 12.226V11.568C92.0588 10.5693 92.2035 9.692 92.4928 8.936C92.7915 8.18 93.2395 7.58733 93.8368 7.158C94.4435 6.72867 95.2041 6.514 96.1188 6.514C97.0335 6.514 97.7895 6.72867 98.3868 7.158C98.9841 7.58733 99.4275 8.18 99.7168 8.936C100.015 9.692 100.165 10.5693 100.165 11.568V12.226C100.165 12.9353 100.085 13.598 99.9268 14.214C99.7775 14.8207 99.5395 15.3527 99.2128 15.81C98.8861 16.258 98.4661 16.608 97.9528 16.86C97.4395 17.112 96.8281 17.238 96.1188 17.238ZM96.1188 16.286C97.1268 16.286 97.8735 15.9313 98.3588 15.222C98.8535 14.5127 99.1008 13.4067 99.1008 11.904C99.1008 10.336 98.8488 9.20667 98.3448 8.516C97.8501 7.816 97.1081 7.466 96.1188 7.466C95.1201 7.466 94.3688 7.816 93.8648 8.516C93.3701 9.20667 93.1228 10.3267 93.1228 11.876C93.1228 13.388 93.3655 14.5033 93.8508 15.222C94.3455 15.9313 95.1015 16.286 96.1188 16.286ZM102.396 17V15.446C102.396 15.0447 102.452 14.704 102.564 14.424C102.676 14.144 102.872 13.8873 103.152 13.654C103.432 13.4207 103.814 13.1967 104.3 12.982L106.302 12.044C106.787 11.82 107.174 11.526 107.464 11.162C107.753 10.798 107.898 10.322 107.898 9.734C107.898 9.01533 107.692 8.45533 107.282 8.054C106.88 7.64333 106.325 7.438 105.616 7.438C104.916 7.438 104.356 7.64333 103.936 8.054C103.525 8.45533 103.32 9.01533 103.32 9.734H102.298C102.298 9.12733 102.424 8.58133 102.676 8.096C102.928 7.61067 103.301 7.228 103.796 6.948C104.29 6.65867 104.897 6.514 105.616 6.514C106.344 6.514 106.95 6.65867 107.436 6.948C107.921 7.228 108.29 7.606 108.542 8.082C108.794 8.54867 108.92 9.06667 108.92 9.636V9.832C108.92 10.56 108.71 11.1713 108.29 11.666C107.879 12.1513 107.338 12.5527 106.666 12.87L104.65 13.808C104.174 14.0227 103.852 14.2467 103.684 14.48C103.525 14.704 103.446 14.9933 103.446 15.348V16.594L103.138 16.09H109.088V17H102.396ZM115.013 17.238C114.295 17.238 113.679 17.112 113.165 16.86C112.652 16.608 112.232 16.258 111.905 15.81C111.579 15.3527 111.336 14.8207 111.177 14.214C111.028 13.598 110.953 12.9353 110.953 12.226V11.568C110.953 10.5693 111.098 9.692 111.387 8.936C111.686 8.18 112.134 7.58733 112.731 7.158C113.338 6.72867 114.099 6.514 115.013 6.514C115.928 6.514 116.684 6.72867 117.281 7.158C117.879 7.58733 118.322 8.18 118.611 8.936C118.91 9.692 119.059 10.5693 119.059 11.568V12.226C119.059 12.9353 118.98 13.598 118.821 14.214C118.672 14.8207 118.434 15.3527 118.107 15.81C117.781 16.258 117.361 16.608 116.847 16.86C116.334 17.112 115.723 17.238 115.013 17.238ZM115.013 16.286C116.021 16.286 116.768 15.9313 117.253 15.222C117.748 14.5127 117.995 13.4067 117.995 11.904C117.995 10.336 117.743 9.20667 117.239 8.516C116.745 7.816 116.003 7.466 115.013 7.466C114.015 7.466 113.263 7.816 112.759 8.516C112.265 9.20667 112.017 10.3267 112.017 11.876C112.017 13.388 112.26 14.5033 112.745 15.222C113.24 15.9313 113.996 16.286 115.013 16.286Z" fill="#132238"/>
<path d="M148.5 10.5H154.5" stroke="#9249F2" stroke-width="1.5" stroke-linecap="round" stroke-linejoin="round"/>
<path d="M148.5 13.5H154.5" stroke="#9249F2" stroke-width="1.5" stroke-linecap="round" stroke-linejoin="round"/>
<path d="M157.5 3.75H142.5C142.086 3.75 141.75 4.08579 141.75 4.5V19.5C141.75 19.9142 142.086 20.25 142.5 20.25H157.5C157.914 20.25 158.25 19.9142 158.25 19.5V4.5C158.25 4.08579 157.914 3.75 157.5 3.75Z" stroke="#9249F2" stroke-width="1.5" stroke-linecap="round" stroke-linejoin="round"/>
<path d="M145.5 3.75V20.25" stroke="#9249F2" stroke-width="1.5" stroke-linecap="round" stroke-linejoin="round"/>
<path d="M174.382 17.238C173.607 17.238 172.959 17.084 172.436 16.776C171.913 16.4587 171.517 16.0433 171.246 15.53C170.975 15.0167 170.84 14.466 170.84 13.878H171.862C171.862 14.3447 171.96 14.76 172.156 15.124C172.361 15.488 172.651 15.7773 173.024 15.992C173.397 16.2067 173.85 16.314 174.382 16.314C174.914 16.314 175.367 16.2113 175.74 16.006C176.113 15.7913 176.398 15.502 176.594 15.138C176.799 14.7647 176.902 14.3447 176.902 13.878C176.902 13.4207 176.804 13.0053 176.608 12.632C176.412 12.2587 176.123 11.9647 175.74 11.75C175.367 11.526 174.914 11.414 174.382 11.414C174.009 11.414 173.64 11.4793 173.276 11.61C172.912 11.7313 172.609 11.9133 172.366 12.156H171.4L171.932 6.78H177.014V7.69H172.506L172.8 7.326L172.38 11.526L172.058 11.456C172.347 11.1667 172.688 10.938 173.08 10.77C173.472 10.602 173.92 10.518 174.424 10.518C175.189 10.518 175.833 10.6767 176.356 10.994C176.879 11.3113 177.271 11.722 177.532 12.226C177.803 12.7207 177.938 13.2433 177.938 13.794V13.976C177.938 14.5267 177.803 15.054 177.532 15.558C177.261 16.0527 176.86 16.4587 176.328 16.776C175.805 17.084 175.157 17.238 174.382 17.238ZM183.266 17V9.58H184.106V12.702H183.938C183.938 12.0207 184.032 11.4327 184.218 10.938C184.414 10.4433 184.704 10.0607 185.086 9.79C185.469 9.51 185.954 9.37 186.542 9.37H186.584C187.172 9.37 187.658 9.50533 188.04 9.776C188.423 10.0467 188.708 10.4293 188.894 10.924C189.081 11.4187 189.174 12.0113 189.174 12.702H188.838C188.838 12.0207 188.932 11.4327 189.118 10.938C189.314 10.4433 189.604 10.0607 189.986 9.79C190.378 9.51 190.868 9.37 191.456 9.37H191.498C192.086 9.37 192.572 9.50533 192.954 9.776C193.346 10.0467 193.636 10.4293 193.822 10.924C194.018 11.4187 194.116 12.0113 194.116 12.702V17H193.066V12.464C193.066 11.8107 192.908 11.2927 192.59 10.91C192.273 10.5273 191.816 10.336 191.218 10.336C190.602 10.336 190.112 10.5367 189.748 10.938C189.394 11.33 189.216 11.862 189.216 12.534V17H188.166V12.464C188.166 11.8107 188.008 11.2927 187.69 10.91C187.373 10.5273 186.916 10.336 186.318 10.336C185.702 10.336 185.212 10.5367 184.848 10.938C184.494 11.33 184.316 11.862 184.316 12.534V17H183.266ZM197.125 17V9.594H198.161V17H197.125ZM195.935 10.434V9.594H198.161V10.434H195.935ZM197.349 8.222C197.097 8.222 196.906 8.15667 196.775 8.026C196.654 7.886 196.593 7.71333 196.593 7.508C196.593 7.30267 196.654 7.13467 196.775 7.004C196.906 6.864 197.097 6.794 197.349 6.794C197.601 6.794 197.788 6.864 197.909 7.004C198.03 7.13467 198.091 7.30267 198.091 7.508C198.091 7.71333 198.03 7.886 197.909 8.026C197.788 8.15667 197.601 8.222 197.349 8.222ZM200.917 17V9.594H201.757V12.702H201.589C201.589 12.0113 201.691 11.4187 201.897 10.924C202.102 10.4293 202.41 10.0467 202.821 9.776C203.231 9.50533 203.749 9.37 204.375 9.37H204.417C205.35 9.37 206.045 9.664 206.503 10.252C206.96 10.8307 207.189 11.6473 207.189 12.702V17H206.153V12.478C206.153 11.834 205.975 11.316 205.621 10.924C205.266 10.532 204.771 10.336 204.137 10.336C203.483 10.336 202.956 10.5413 202.555 10.952C202.163 11.3533 201.967 11.8853 201.967 12.548V17H200.917ZM213.071 17V9.594H213.911V12.688H213.827C213.827 11.6053 214.065 10.8073 214.541 10.294C215.017 9.77133 215.764 9.51 216.781 9.51H217.019V10.462H216.585C215.782 10.462 215.171 10.672 214.751 11.092C214.331 11.5027 214.121 12.1093 214.121 12.912V17H213.071ZM221.716 17.238C221.081 17.238 220.53 17.1307 220.064 16.916C219.597 16.692 219.214 16.398 218.916 16.034C218.617 15.6607 218.393 15.2453 218.244 14.788C218.104 14.3307 218.034 13.8593 218.034 13.374V13.178C218.034 12.702 218.104 12.2353 218.244 11.778C218.393 11.3207 218.617 10.91 218.916 10.546C219.214 10.182 219.588 9.89267 220.036 9.678C220.493 9.454 221.025 9.342 221.632 9.342C222.406 9.342 223.05 9.51467 223.564 9.86C224.086 10.2053 224.478 10.6487 224.74 11.19C225.001 11.722 225.132 12.296 225.132 12.912V13.458H218.51V12.646H224.404L224.138 13.052C224.138 12.5013 224.04 12.0207 223.844 11.61C223.657 11.19 223.377 10.8633 223.004 10.63C222.64 10.3873 222.182 10.266 221.632 10.266C221.053 10.266 220.572 10.4013 220.19 10.672C219.807 10.9427 219.518 11.302 219.322 11.75C219.135 12.198 219.042 12.7067 219.042 13.276C219.042 13.836 219.135 14.3493 219.322 14.816C219.518 15.2733 219.812 15.6373 220.204 15.908C220.605 16.1787 221.109 16.314 221.716 16.314C222.36 16.314 222.882 16.1693 223.284 15.88C223.685 15.5813 223.932 15.2313 224.026 14.83H225.006C224.912 15.3247 224.716 15.754 224.418 16.118C224.119 16.4727 223.741 16.748 223.284 16.944C222.826 17.14 222.304 17.238 221.716 17.238ZM231.661 17V14.774H231.493V12.142C231.493 11.5913 231.348 11.1713 231.059 10.882C230.77 10.5833 230.322 10.434 229.715 10.434C229.435 10.434 229.15 10.4387 228.861 10.448C228.581 10.4573 228.31 10.4713 228.049 10.49C227.797 10.4993 227.573 10.5133 227.377 10.532V9.608C227.582 9.58933 227.792 9.57067 228.007 9.552C228.222 9.53333 228.441 9.524 228.665 9.524C228.898 9.51467 229.122 9.51 229.337 9.51C230.093 9.51 230.7 9.60333 231.157 9.79C231.624 9.97667 231.964 10.2707 232.179 10.672C232.394 11.064 232.501 11.5867 232.501 12.24V17H231.661ZM229.155 17.196C228.632 17.196 228.17 17.1027 227.769 16.916C227.368 16.7293 227.055 16.4587 226.831 16.104C226.616 15.7493 226.509 15.32 226.509 14.816C226.509 14.3213 226.621 13.9013 226.845 13.556C227.078 13.2107 227.41 12.9493 227.839 12.772C228.278 12.5853 228.805 12.492 229.421 12.492H231.591V13.29H229.351C228.763 13.29 228.31 13.4347 227.993 13.724C227.685 14.004 227.531 14.3727 227.531 14.83C227.531 15.2967 227.694 15.67 228.021 15.95C228.348 16.2207 228.791 16.356 229.351 16.356C229.696 16.356 230.028 16.2953 230.345 16.174C230.662 16.0433 230.928 15.8287 231.143 15.53C231.358 15.222 231.474 14.802 231.493 14.27L231.801 14.704C231.764 15.2547 231.633 15.7167 231.409 16.09C231.185 16.454 230.882 16.7293 230.499 16.916C230.116 17.1027 229.668 17.196 229.155 17.196ZM238.162 17.238C237.62 17.238 237.126 17.14 236.678 16.944C236.239 16.7387 235.856 16.4587 235.53 16.104C235.212 15.74 234.965 15.3293 234.788 14.872C234.62 14.4053 234.536 13.9107 234.536 13.388V13.192C234.536 12.688 234.62 12.2073 234.788 11.75C234.956 11.2833 235.194 10.8727 235.502 10.518C235.819 10.154 236.197 9.86933 236.636 9.664C237.084 9.44933 237.583 9.342 238.134 9.342C238.759 9.342 239.31 9.47733 239.786 9.748C240.262 10.0187 240.644 10.4107 240.934 10.924C241.223 11.428 241.377 12.0487 241.396 12.786L240.934 11.918V6.78H241.984V17H241.144V13.71H241.48C241.461 14.4847 241.298 15.138 240.99 15.67C240.691 16.1927 240.294 16.5847 239.8 16.846C239.314 17.1073 238.768 17.238 238.162 17.238ZM238.302 16.314C238.806 16.314 239.258 16.202 239.66 15.978C240.07 15.754 240.392 15.4367 240.626 15.026C240.859 14.606 240.976 14.1253 240.976 13.584V12.912C240.976 12.3893 240.859 11.932 240.626 11.54C240.392 11.1387 240.07 10.826 239.66 10.602C239.258 10.378 238.801 10.266 238.288 10.266C237.737 10.266 237.256 10.4013 236.846 10.672C236.444 10.9333 236.132 11.2927 235.908 11.75C235.693 12.2073 235.586 12.7207 235.586 13.29C235.586 13.878 235.698 14.4007 235.922 14.858C236.146 15.3153 236.463 15.6747 236.874 15.936C237.284 16.188 237.76 16.314 238.302 16.314Z" fill="#132238"/>
</svg>
