<svg width="251" height="24" viewBox="0 0 251 24" fill="none" xmlns="http://www.w3.org/2000/svg">
<path d="M19.5 3.75H4.5C4.08579 3.75 3.75 4.08579 3.75 4.5V19.5C3.75 19.9142 4.08579 20.25 4.5 20.25H19.5C19.9142 20.25 20.25 19.9142 20.25 19.5V4.5C20.25 4.08579 19.9142 3.75 19.5 3.75Z" stroke="#9249F2" stroke-width="1.5" stroke-linecap="round" stroke-linejoin="round"/>
<path d="M16.5 2.25V5.25" stroke="#9249F2" stroke-width="1.5" stroke-linecap="round" stroke-linejoin="round"/>
<path d="M7.5 2.25V5.25" stroke="#9249F2" stroke-width="1.5" stroke-linecap="round" stroke-linejoin="round"/>
<path d="M3.75 8.25H20.25" stroke="#9249F2" stroke-width="1.5" stroke-linecap="round" stroke-linejoin="round"/>
<path d="M33.134 17V15.446C33.134 15.0447 33.19 14.704 33.302 14.424C33.414 14.144 33.61 13.8873 33.89 13.654C34.17 13.4207 34.5527 13.1967 35.038 12.982L37.04 12.044C37.5253 11.82 37.9127 11.526 38.202 11.162C38.4913 10.798 38.636 10.322 38.636 9.734C38.636 9.01533 38.4307 8.45533 38.02 8.054C37.6187 7.64333 37.0633 7.438 36.354 7.438C35.654 7.438 35.094 7.64333 34.674 8.054C34.2633 8.45533 34.058 9.01533 34.058 9.734H33.036C33.036 9.12733 33.162 8.58133 33.414 8.096C33.666 7.61067 34.0393 7.228 34.534 6.948C35.0287 6.65867 35.6353 6.514 36.354 6.514C37.082 6.514 37.6887 6.65867 38.174 6.948C38.6593 7.228 39.028 7.606 39.28 8.082C39.532 8.54867 39.658 9.06667 39.658 9.636V9.832C39.658 10.56 39.448 11.1713 39.028 11.666C38.6173 12.1513 38.076 12.5527 37.404 12.87L35.388 13.808C34.912 14.0227 34.59 14.2467 34.422 14.48C34.2633 14.704 34.184 14.9933 34.184 15.348V16.594L33.876 16.09H39.826V17H33.134ZM41.3136 14.452V13.136L45.6536 6.584L46.3816 7.158L42.2656 13.402L42.3776 13.612H49.0416V14.452H41.3136ZM46.6616 17V9.804H47.6416V17H46.6616ZM54.2952 17V6.78H55.6812L58.9012 13.85H59.1532L62.3592 6.78H63.7732V17H62.7092V7.97L62.7932 7.984L59.6852 14.844H58.2852L55.1632 7.984L55.2752 7.97V17H54.2952ZM71.239 17V14.774H71.071V12.142C71.071 11.5913 70.9264 11.1713 70.637 10.882C70.3477 10.5833 69.8997 10.434 69.293 10.434C69.013 10.434 68.7284 10.4387 68.439 10.448C68.159 10.4573 67.8884 10.4713 67.627 10.49C67.375 10.4993 67.151 10.5133 66.955 10.532V9.608C67.1604 9.58933 67.3704 9.57067 67.585 9.552C67.7997 9.53333 68.019 9.524 68.243 9.524C68.4764 9.51467 68.7004 9.51 68.915 9.51C69.671 9.51 70.2777 9.60333 70.735 9.79C71.2017 9.97667 71.5424 10.2707 71.757 10.672C71.9717 11.064 72.079 11.5867 72.079 12.24V17H71.239ZM68.733 17.196C68.2104 17.196 67.7484 17.1027 67.347 16.916C66.9457 16.7293 66.633 16.4587 66.409 16.104C66.1944 15.7493 66.087 15.32 66.087 14.816C66.087 14.3213 66.199 13.9013 66.423 13.556C66.6564 13.2107 66.9877 12.9493 67.417 12.772C67.8557 12.5853 68.383 12.492 68.999 12.492H71.169V13.29H68.929C68.341 13.29 67.8884 13.4347 67.571 13.724C67.263 14.004 67.109 14.3727 67.109 14.83C67.109 15.2967 67.2724 15.67 67.599 15.95C67.9257 16.2207 68.369 16.356 68.929 16.356C69.2744 16.356 69.6057 16.2953 69.923 16.174C70.2404 16.0433 70.5064 15.8287 70.721 15.53C70.9357 15.222 71.0524 14.802 71.071 14.27L71.379 14.704C71.3417 15.2547 71.211 15.7167 70.987 16.09C70.763 16.454 70.4597 16.7293 70.077 16.916C69.6944 17.1027 69.2464 17.196 68.733 17.196ZM74.0301 19.884V18.946H74.9821C75.3087 18.946 75.5887 18.904 75.8221 18.82C76.0554 18.7453 76.2514 18.61 76.4101 18.414C76.5687 18.218 76.7041 17.9473 76.8161 17.602L79.3081 9.594H80.3301L77.7261 17.896C77.5767 18.372 77.3714 18.7547 77.1101 19.044C76.8487 19.3427 76.5361 19.5573 76.1721 19.688C75.8081 19.8187 75.3927 19.884 74.9261 19.884H74.0301ZM76.4381 16.818V15.936H77.7681V16.818H76.4381ZM76.3121 16.818L73.6241 9.594H74.7021L77.2921 16.818H76.3121ZM81.6057 19.142L80.7517 18.834L81.9697 15.46L82.8517 15.782L81.6057 19.142ZM88.2727 17V15.446C88.2727 15.0447 88.3287 14.704 88.4407 14.424C88.5527 14.144 88.7487 13.8873 89.0287 13.654C89.3087 13.4207 89.6913 13.1967 90.1767 12.982L92.1787 12.044C92.664 11.82 93.0513 11.526 93.3407 11.162C93.63 10.798 93.7747 10.322 93.7747 9.734C93.7747 9.01533 93.5693 8.45533 93.1587 8.054C92.7573 7.64333 92.202 7.438 91.4927 7.438C90.7927 7.438 90.2327 7.64333 89.8127 8.054C89.402 8.45533 89.1967 9.01533 89.1967 9.734H88.1747C88.1747 9.12733 88.3007 8.58133 88.5527 8.096C88.8047 7.61067 89.178 7.228 89.6727 6.948C90.1673 6.65867 90.774 6.514 91.4927 6.514C92.2207 6.514 92.8273 6.65867 93.3127 6.948C93.798 7.228 94.1667 7.606 94.4187 8.082C94.6707 8.54867 94.7967 9.06667 94.7967 9.636V9.832C94.7967 10.56 94.5867 11.1713 94.1667 11.666C93.756 12.1513 93.2147 12.5527 92.5427 12.87L90.5267 13.808C90.0507 14.0227 89.7287 14.2467 89.5607 14.48C89.402 14.704 89.3227 14.9933 89.3227 15.348V16.594L89.0147 16.09H94.9647V17H88.2727ZM100.89 17.238C100.172 17.238 99.5556 17.112 99.0423 16.86C98.5289 16.608 98.1089 16.258 97.7823 15.81C97.4556 15.3527 97.2129 14.8207 97.0543 14.214C96.9049 13.598 96.8303 12.9353 96.8303 12.226V11.568C96.8303 10.5693 96.9749 9.692 97.2643 8.936C97.5629 8.18 98.0109 7.58733 98.6083 7.158C99.2149 6.72867 99.9756 6.514 100.89 6.514C101.805 6.514 102.561 6.72867 103.158 7.158C103.756 7.58733 104.199 8.18 104.488 8.936C104.787 9.692 104.936 10.5693 104.936 11.568V12.226C104.936 12.9353 104.857 13.598 104.698 14.214C104.549 14.8207 104.311 15.3527 103.984 15.81C103.658 16.258 103.238 16.608 102.724 16.86C102.211 17.112 101.6 17.238 100.89 17.238ZM100.89 16.286C101.898 16.286 102.645 15.9313 103.13 15.222C103.625 14.5127 103.872 13.4067 103.872 11.904C103.872 10.336 103.62 9.20667 103.116 8.516C102.622 7.816 101.88 7.466 100.89 7.466C99.8916 7.466 99.1403 7.816 98.6363 8.516C98.1416 9.20667 97.8943 10.3267 97.8943 11.876C97.8943 13.388 98.1369 14.5033 98.6223 15.222C99.1169 15.9313 99.8729 16.286 100.89 16.286ZM107.167 17V15.446C107.167 15.0447 107.223 14.704 107.335 14.424C107.447 14.144 107.643 13.8873 107.923 13.654C108.203 13.4207 108.586 13.1967 109.071 12.982L111.073 12.044C111.559 11.82 111.946 11.526 112.235 11.162C112.525 10.798 112.669 10.322 112.669 9.734C112.669 9.01533 112.464 8.45533 112.053 8.054C111.652 7.64333 111.097 7.438 110.387 7.438C109.687 7.438 109.127 7.64333 108.707 8.054C108.297 8.45533 108.091 9.01533 108.091 9.734H107.069C107.069 9.12733 107.195 8.58133 107.447 8.096C107.699 7.61067 108.073 7.228 108.567 6.948C109.062 6.65867 109.669 6.514 110.387 6.514C111.115 6.514 111.722 6.65867 112.207 6.948C112.693 7.228 113.061 7.606 113.313 8.082C113.565 8.54867 113.691 9.06667 113.691 9.636V9.832C113.691 10.56 113.481 11.1713 113.061 11.666C112.651 12.1513 112.109 12.5527 111.437 12.87L109.421 13.808C108.945 14.0227 108.623 14.2467 108.455 14.48C108.297 14.704 108.217 14.9933 108.217 15.348V16.594L107.909 16.09H113.859V17H107.167ZM119.785 17.238C119.066 17.238 118.45 17.112 117.937 16.86C117.423 16.608 117.003 16.258 116.677 15.81C116.35 15.3527 116.107 14.8207 115.949 14.214C115.799 13.598 115.725 12.9353 115.725 12.226V11.568C115.725 10.5693 115.869 9.692 116.159 8.936C116.457 8.18 116.905 7.58733 117.503 7.158C118.109 6.72867 118.87 6.514 119.785 6.514C120.699 6.514 121.455 6.72867 122.053 7.158C122.65 7.58733 123.093 8.18 123.383 8.936C123.681 9.692 123.831 10.5693 123.831 11.568V12.226C123.831 12.9353 123.751 13.598 123.593 14.214C123.443 14.8207 123.205 15.3527 122.879 15.81C122.552 16.258 122.132 16.608 121.619 16.86C121.105 17.112 120.494 17.238 119.785 17.238ZM119.785 16.286C120.793 16.286 121.539 15.9313 122.025 15.222C122.519 14.5127 122.767 13.4067 122.767 11.904C122.767 10.336 122.515 9.20667 122.011 8.516C121.516 7.816 120.774 7.466 119.785 7.466C118.786 7.466 118.035 7.816 117.531 8.516C117.036 9.20667 116.789 10.3267 116.789 11.876C116.789 13.388 117.031 14.5033 117.517 15.222C118.011 15.9313 118.767 16.286 119.785 16.286Z" fill="#132238"/>
<path d="M155.5 10.5H161.5" stroke="#9249F2" stroke-width="1.5" stroke-linecap="round" stroke-linejoin="round"/>
<path d="M155.5 13.5H161.5" stroke="#9249F2" stroke-width="1.5" stroke-linecap="round" stroke-linejoin="round"/>
<path d="M164.5 3.75H149.5C149.086 3.75 148.75 4.08579 148.75 4.5V19.5C148.75 19.9142 149.086 20.25 149.5 20.25H164.5C164.914 20.25 165.25 19.9142 165.25 19.5V4.5C165.25 4.08579 164.914 3.75 164.5 3.75Z" stroke="#9249F2" stroke-width="1.5" stroke-linecap="round" stroke-linejoin="round"/>
<path d="M152.5 3.75V20.25" stroke="#9249F2" stroke-width="1.5" stroke-linecap="round" stroke-linejoin="round"/>
<path d="M181.382 17.238C180.607 17.238 179.959 17.084 179.436 16.776C178.913 16.4587 178.517 16.0433 178.246 15.53C177.975 15.0167 177.84 14.466 177.84 13.878H178.862C178.862 14.3447 178.96 14.76 179.156 15.124C179.361 15.488 179.651 15.7773 180.024 15.992C180.397 16.2067 180.85 16.314 181.382 16.314C181.914 16.314 182.367 16.2113 182.74 16.006C183.113 15.7913 183.398 15.502 183.594 15.138C183.799 14.7647 183.902 14.3447 183.902 13.878C183.902 13.4207 183.804 13.0053 183.608 12.632C183.412 12.2587 183.123 11.9647 182.74 11.75C182.367 11.526 181.914 11.414 181.382 11.414C181.009 11.414 180.64 11.4793 180.276 11.61C179.912 11.7313 179.609 11.9133 179.366 12.156H178.4L178.932 6.78H184.014V7.69H179.506L179.8 7.326L179.38 11.526L179.058 11.456C179.347 11.1667 179.688 10.938 180.08 10.77C180.472 10.602 180.92 10.518 181.424 10.518C182.189 10.518 182.833 10.6767 183.356 10.994C183.879 11.3113 184.271 11.722 184.532 12.226C184.803 12.7207 184.938 13.2433 184.938 13.794V13.976C184.938 14.5267 184.803 15.054 184.532 15.558C184.261 16.0527 183.86 16.4587 183.328 16.776C182.805 17.084 182.157 17.238 181.382 17.238ZM190.266 17V9.58H191.106V12.702H190.938C190.938 12.0207 191.032 11.4327 191.218 10.938C191.414 10.4433 191.704 10.0607 192.086 9.79C192.469 9.51 192.954 9.37 193.542 9.37H193.584C194.172 9.37 194.658 9.50533 195.04 9.776C195.423 10.0467 195.708 10.4293 195.894 10.924C196.081 11.4187 196.174 12.0113 196.174 12.702H195.838C195.838 12.0207 195.932 11.4327 196.118 10.938C196.314 10.4433 196.604 10.0607 196.986 9.79C197.378 9.51 197.868 9.37 198.456 9.37H198.498C199.086 9.37 199.572 9.50533 199.954 9.776C200.346 10.0467 200.636 10.4293 200.822 10.924C201.018 11.4187 201.116 12.0113 201.116 12.702V17H200.066V12.464C200.066 11.8107 199.908 11.2927 199.59 10.91C199.273 10.5273 198.816 10.336 198.218 10.336C197.602 10.336 197.112 10.5367 196.748 10.938C196.394 11.33 196.216 11.862 196.216 12.534V17H195.166V12.464C195.166 11.8107 195.008 11.2927 194.69 10.91C194.373 10.5273 193.916 10.336 193.318 10.336C192.702 10.336 192.212 10.5367 191.848 10.938C191.494 11.33 191.316 11.862 191.316 12.534V17H190.266ZM204.125 17V9.594H205.161V17H204.125ZM202.935 10.434V9.594H205.161V10.434H202.935ZM204.349 8.222C204.097 8.222 203.906 8.15667 203.775 8.026C203.654 7.886 203.593 7.71333 203.593 7.508C203.593 7.30267 203.654 7.13467 203.775 7.004C203.906 6.864 204.097 6.794 204.349 6.794C204.601 6.794 204.788 6.864 204.909 7.004C205.03 7.13467 205.091 7.30267 205.091 7.508C205.091 7.71333 205.03 7.886 204.909 8.026C204.788 8.15667 204.601 8.222 204.349 8.222ZM207.917 17V9.594H208.757V12.702H208.589C208.589 12.0113 208.691 11.4187 208.897 10.924C209.102 10.4293 209.41 10.0467 209.821 9.776C210.231 9.50533 210.749 9.37 211.375 9.37H211.417C212.35 9.37 213.045 9.664 213.503 10.252C213.96 10.8307 214.189 11.6473 214.189 12.702V17H213.153V12.478C213.153 11.834 212.975 11.316 212.621 10.924C212.266 10.532 211.771 10.336 211.137 10.336C210.483 10.336 209.956 10.5413 209.555 10.952C209.163 11.3533 208.967 11.8853 208.967 12.548V17H207.917ZM220.071 17V9.594H220.911V12.688H220.827C220.827 11.6053 221.065 10.8073 221.541 10.294C222.017 9.77133 222.764 9.51 223.781 9.51H224.019V10.462H223.585C222.782 10.462 222.171 10.672 221.751 11.092C221.331 11.5027 221.121 12.1093 221.121 12.912V17H220.071ZM228.716 17.238C228.081 17.238 227.53 17.1307 227.064 16.916C226.597 16.692 226.214 16.398 225.916 16.034C225.617 15.6607 225.393 15.2453 225.244 14.788C225.104 14.3307 225.034 13.8593 225.034 13.374V13.178C225.034 12.702 225.104 12.2353 225.244 11.778C225.393 11.3207 225.617 10.91 225.916 10.546C226.214 10.182 226.588 9.89267 227.036 9.678C227.493 9.454 228.025 9.342 228.632 9.342C229.406 9.342 230.05 9.51467 230.564 9.86C231.086 10.2053 231.478 10.6487 231.74 11.19C232.001 11.722 232.132 12.296 232.132 12.912V13.458H225.51V12.646H231.404L231.138 13.052C231.138 12.5013 231.04 12.0207 230.844 11.61C230.657 11.19 230.377 10.8633 230.004 10.63C229.64 10.3873 229.182 10.266 228.632 10.266C228.053 10.266 227.572 10.4013 227.19 10.672C226.807 10.9427 226.518 11.302 226.322 11.75C226.135 12.198 226.042 12.7067 226.042 13.276C226.042 13.836 226.135 14.3493 226.322 14.816C226.518 15.2733 226.812 15.6373 227.204 15.908C227.605 16.1787 228.109 16.314 228.716 16.314C229.36 16.314 229.882 16.1693 230.284 15.88C230.685 15.5813 230.932 15.2313 231.026 14.83H232.006C231.912 15.3247 231.716 15.754 231.418 16.118C231.119 16.4727 230.741 16.748 230.284 16.944C229.826 17.14 229.304 17.238 228.716 17.238ZM238.661 17V14.774H238.493V12.142C238.493 11.5913 238.348 11.1713 238.059 10.882C237.77 10.5833 237.322 10.434 236.715 10.434C236.435 10.434 236.15 10.4387 235.861 10.448C235.581 10.4573 235.31 10.4713 235.049 10.49C234.797 10.4993 234.573 10.5133 234.377 10.532V9.608C234.582 9.58933 234.792 9.57067 235.007 9.552C235.222 9.53333 235.441 9.524 235.665 9.524C235.898 9.51467 236.122 9.51 236.337 9.51C237.093 9.51 237.7 9.60333 238.157 9.79C238.624 9.97667 238.964 10.2707 239.179 10.672C239.394 11.064 239.501 11.5867 239.501 12.24V17H238.661ZM236.155 17.196C235.632 17.196 235.17 17.1027 234.769 16.916C234.368 16.7293 234.055 16.4587 233.831 16.104C233.616 15.7493 233.509 15.32 233.509 14.816C233.509 14.3213 233.621 13.9013 233.845 13.556C234.078 13.2107 234.41 12.9493 234.839 12.772C235.278 12.5853 235.805 12.492 236.421 12.492H238.591V13.29H236.351C235.763 13.29 235.31 13.4347 234.993 13.724C234.685 14.004 234.531 14.3727 234.531 14.83C234.531 15.2967 234.694 15.67 235.021 15.95C235.348 16.2207 235.791 16.356 236.351 16.356C236.696 16.356 237.028 16.2953 237.345 16.174C237.662 16.0433 237.928 15.8287 238.143 15.53C238.358 15.222 238.474 14.802 238.493 14.27L238.801 14.704C238.764 15.2547 238.633 15.7167 238.409 16.09C238.185 16.454 237.882 16.7293 237.499 16.916C237.116 17.1027 236.668 17.196 236.155 17.196ZM245.162 17.238C244.62 17.238 244.126 17.14 243.678 16.944C243.239 16.7387 242.856 16.4587 242.53 16.104C242.212 15.74 241.965 15.3293 241.788 14.872C241.62 14.4053 241.536 13.9107 241.536 13.388V13.192C241.536 12.688 241.62 12.2073 241.788 11.75C241.956 11.2833 242.194 10.8727 242.502 10.518C242.819 10.154 243.197 9.86933 243.636 9.664C244.084 9.44933 244.583 9.342 245.134 9.342C245.759 9.342 246.31 9.47733 246.786 9.748C247.262 10.0187 247.644 10.4107 247.934 10.924C248.223 11.428 248.377 12.0487 248.396 12.786L247.934 11.918V6.78H248.984V17H248.144V13.71H248.48C248.461 14.4847 248.298 15.138 247.99 15.67C247.691 16.1927 247.294 16.5847 246.8 16.846C246.314 17.1073 245.768 17.238 245.162 17.238ZM245.302 16.314C245.806 16.314 246.258 16.202 246.66 15.978C247.07 15.754 247.392 15.4367 247.626 15.026C247.859 14.606 247.976 14.1253 247.976 13.584V12.912C247.976 12.3893 247.859 11.932 247.626 11.54C247.392 11.1387 247.07 10.826 246.66 10.602C246.258 10.378 245.801 10.266 245.288 10.266C244.737 10.266 244.256 10.4013 243.846 10.672C243.444 10.9333 243.132 11.2927 242.908 11.75C242.693 12.2073 242.586 12.7207 242.586 13.29C242.586 13.878 242.698 14.4007 242.922 14.858C243.146 15.3153 243.463 15.6747 243.874 15.936C244.284 16.188 244.76 16.314 245.302 16.314Z" fill="#132238"/>
</svg>
