<svg width="200" height="96" viewBox="0 0 200 96" fill="none" xmlns="http://www.w3.org/2000/svg">
<g filter="url(#filter0_b_480_15809)">
<rect width="200" height="96" rx="12" fill="white"/>
<g opacity="0.4">
<g clip-path="url(#clip0_480_15809)">
<path d="M61.6854 35.0029H62.6013C65.7812 35.0728 68.9092 36.3662 71.1559 38.6558C70.3263 39.5122 69.4795 40.3336 68.6673 41.19C67.4057 40.0365 65.8849 39.1451 64.2258 38.8305C61.7718 38.3062 59.1277 38.7781 57.0711 40.1938C54.8245 41.6794 53.3037 44.1962 52.9753 46.8877C52.6124 49.5443 53.3555 52.3407 55.0664 54.4031C56.7082 56.413 59.2141 57.6714 61.8064 57.7588C64.2258 57.8986 66.749 57.1471 68.5117 55.4343C69.8943 54.2283 70.5337 52.3932 70.7411 50.6104C67.8723 50.6104 65.0035 50.6279 62.1347 50.6104V47.0101H74.2148C74.8369 50.8726 73.9383 55.2245 71.0349 57.986C69.0993 59.9435 66.4206 61.097 63.6901 61.3242C61.046 61.5864 58.3154 61.0795 55.9651 59.7862C53.1482 58.2656 50.9015 55.6964 49.7955 52.6728C48.7586 49.8939 48.7413 46.7479 49.7091 43.9515C50.5904 41.3997 52.2841 39.1451 54.4616 37.5721C56.5527 36.0166 59.0931 35.1602 61.6854 35.0029Z" fill="#132238"/>
<path d="M130.984 35.9121H134.683V60.8702C133.456 60.8702 132.211 60.8876 130.984 60.8527C131.002 52.5508 130.984 44.2315 130.984 35.9121Z" fill="#132238"/>
<path d="M82.4395 44.5632C84.7207 44.1263 87.192 44.6157 89.0757 45.9964C90.7866 47.2198 91.9791 49.1424 92.342 51.2397C92.8086 53.6691 92.221 56.3257 90.6657 58.2482C88.9893 60.398 86.2415 61.5515 83.5628 61.3767C81.1088 61.2369 78.7239 59.996 77.2722 57.9686C75.6304 55.7314 75.2329 52.6554 76.1316 50.0337C77.0303 47.2198 79.5707 45.0701 82.4395 44.5632ZM82.9579 47.884C82.0247 48.1287 81.1606 48.6705 80.5385 49.4395C78.8621 51.4669 78.9658 54.7702 80.815 56.6578C81.8692 57.7414 83.4591 58.2482 84.9281 57.9511C86.2934 57.7064 87.4858 56.7801 88.1425 55.5567C89.2831 53.4768 88.9548 50.6105 87.2093 48.9851C86.086 47.9364 84.4442 47.4995 82.9579 47.884Z" fill="#132238"/>
<path d="M100.758 44.5636C103.368 44.0567 106.219 44.7908 108.172 46.6434C111.352 49.5272 111.698 54.9278 108.984 58.2485C107.343 60.3458 104.681 61.4993 102.054 61.377C99.5485 61.3071 97.0772 60.0487 95.591 57.9689C93.9146 55.6793 93.5517 52.5333 94.5022 49.8593C95.4527 47.1328 97.9413 45.0529 100.758 44.5636ZM101.277 47.8843C100.343 48.129 99.4794 48.6708 98.8573 49.4223C97.1982 51.4148 97.2673 54.6656 99.0474 56.5707C100.102 57.7067 101.743 58.266 103.264 57.9514C104.612 57.6892 105.822 56.7804 106.479 55.557C107.602 53.4596 107.274 50.5933 105.511 48.9679C104.387 47.9193 102.746 47.4998 101.277 47.8843Z" fill="#132238"/>
<path d="M116.295 45.5768C118.282 44.3184 120.926 43.9689 123.069 45.0525C123.743 45.3496 124.296 45.8565 124.832 46.3633C124.849 45.8914 124.832 45.402 124.849 44.9127C126.007 44.9301 127.165 44.9127 128.34 44.9301V60.3454C128.323 62.6699 127.735 65.1343 126.076 66.8296C124.262 68.6997 121.479 69.2765 118.973 68.892C116.295 68.49 113.962 66.515 112.925 64.0157C113.962 63.5089 115.051 63.1069 116.122 62.635C116.727 64.0681 117.954 65.2916 119.492 65.5712C121.03 65.8509 122.81 65.4664 123.812 64.173C124.884 62.8447 124.884 61.027 124.832 59.4016C124.037 60.1881 123.121 60.8872 122.015 61.1494C119.613 61.831 116.969 60.9921 115.12 59.3492C113.253 57.7063 112.147 55.172 112.251 52.6553C112.303 49.8064 113.893 47.0624 116.295 45.5768ZM119.872 47.814C118.818 47.9887 117.833 48.583 117.159 49.4044C115.534 51.3619 115.534 54.4904 117.176 56.4129C118.109 57.549 119.613 58.1782 121.065 58.0209C122.43 57.8811 123.691 57.0072 124.365 55.8012C125.506 53.7563 125.316 50.9774 123.778 49.1947C122.827 48.0936 121.307 47.5518 119.872 47.814Z" fill="#132238"/>
<path d="M139.124 46.4683C141.198 44.5109 144.395 43.8467 147.057 44.8779C149.58 45.8392 151.187 48.2685 151.999 50.7678C148.249 52.3408 144.516 53.8963 140.766 55.4693C141.284 56.4655 142.079 57.3744 143.151 57.7414C144.654 58.2832 146.452 58.091 147.713 57.0773C148.215 56.6928 148.612 56.1859 148.992 55.6965C149.943 56.3432 150.893 56.9724 151.844 57.6191C150.496 59.6639 148.232 61.0971 145.795 61.3243C143.099 61.6564 140.23 60.6077 138.485 58.4755C135.616 55.1198 135.892 49.492 139.124 46.4683ZM140.973 49.7017C140.386 50.5581 140.144 51.6068 140.161 52.6379C142.667 51.5893 145.173 50.5406 147.679 49.4745C147.264 48.4958 146.262 47.9015 145.242 47.7442C143.6 47.4471 141.889 48.3385 140.973 49.7017Z" fill="#132238"/>
</g>
</g>
</g>
<defs>
<filter id="filter0_b_480_15809" x="-32" y="-32" width="264" height="160" filterUnits="userSpaceOnUse" color-interpolation-filters="sRGB">
<feFlood flood-opacity="0" result="BackgroundImageFix"/>
<feGaussianBlur in="BackgroundImageFix" stdDeviation="16"/>
<feComposite in2="SourceAlpha" operator="in" result="effect1_backgroundBlur_480_15809"/>
<feBlend mode="normal" in="SourceGraphic" in2="effect1_backgroundBlur_480_15809" result="shape"/>
</filter>
<clipPath id="clip0_480_15809">
<rect width="103" height="34" fill="white" transform="translate(49 35)"/>
</clipPath>
</defs>
</svg>
