<svg width="48" height="48" viewBox="0 0 48 48" fill="none" xmlns="http://www.w3.org/2000/svg">
<rect width="48" height="48" rx="4" fill="url(#paint0_radial_712_3444)"/>
<rect width="48" height="48" rx="4" fill="url(#paint1_radial_712_3444)"/>
<path d="M20.6677 24C20.6677 22.1591 22.1596 20.6664 24.0005 20.6664C25.8413 20.6664 27.3341 22.1591 27.3341 24C27.3341 25.8409 25.8413 27.3336 24.0005 27.3336C22.1596 27.3336 20.6677 25.8409 20.6677 24ZM18.8656 24C18.8656 26.836 21.1645 29.1349 24.0005 29.1349C26.8365 29.1349 29.1353 26.836 29.1353 24C29.1353 21.164 26.8365 18.8651 24.0005 18.8651C21.1645 18.8651 18.8656 21.164 18.8656 24ZM28.1386 18.6615C28.1385 18.8989 28.2088 19.1309 28.3406 19.3283C28.4724 19.5257 28.6597 19.6796 28.879 19.7705C29.0982 19.8614 29.3395 19.8852 29.5723 19.839C29.805 19.7928 30.0189 19.6786 30.1868 19.5109C30.3547 19.3431 30.4691 19.1293 30.5155 18.8966C30.5619 18.6638 30.5382 18.4225 30.4475 18.2032C30.3567 17.9839 30.203 17.7964 30.0057 17.6645C29.8084 17.5326 29.5764 17.4621 29.3391 17.462H29.3386C29.0205 17.4621 28.7154 17.5886 28.4904 17.8135C28.2654 18.0384 28.1389 18.3434 28.1386 18.6615ZM19.9605 32.1398C18.9855 32.0954 18.4556 31.933 18.1034 31.7958C17.6366 31.614 17.3034 31.3975 16.9532 31.0478C16.603 30.698 16.3862 30.3652 16.2052 29.8983C16.0679 29.5463 15.9055 29.0162 15.8612 28.0413C15.8127 26.9872 15.803 26.6706 15.803 24.0001C15.803 21.3296 15.8135 21.0138 15.8612 19.9589C15.9056 18.9839 16.0692 18.4549 16.2052 18.1018C16.387 17.635 16.6034 17.3018 16.9532 16.9516C17.303 16.6014 17.6358 16.3846 18.1034 16.2036C18.4554 16.0663 18.9855 15.9039 19.9605 15.8596C21.0146 15.8111 21.3312 15.8014 24.0005 15.8014C26.6697 15.8014 26.9867 15.8119 28.0417 15.8596C29.0166 15.904 29.5457 16.0676 29.8987 16.2036C30.3656 16.3846 30.6987 16.6018 31.0489 16.9516C31.3992 17.3014 31.6152 17.635 31.7969 18.1018C31.9342 18.4538 32.0966 18.9839 32.1409 19.9589C32.1894 21.0138 32.1991 21.3296 32.1991 24.0001C32.1991 26.6706 32.1894 26.9863 32.1409 28.0413C32.0965 29.0162 31.9333 29.5462 31.7969 29.8983C31.6152 30.3652 31.3987 30.6983 31.0489 31.0478C30.6992 31.3972 30.3656 31.614 29.8987 31.7958C29.5467 31.933 29.0166 32.0954 28.0417 32.1398C26.9876 32.1882 26.6709 32.1979 24.0005 32.1979C21.33 32.1979 21.0142 32.1882 19.9605 32.1398ZM19.8777 14.0606C18.8131 14.109 18.0857 14.2778 17.4504 14.525C16.7925 14.7803 16.2355 15.1228 15.679 15.6785C15.1224 16.2342 14.7808 16.792 14.5255 17.4499C14.2783 18.0856 14.1095 18.8126 14.061 19.8772C14.0118 20.9434 14.0005 21.2843 14.0005 24C14.0005 26.7157 14.0118 27.0566 14.061 28.1228C14.1095 29.1874 14.2783 29.9144 14.5255 30.5501C14.7808 31.2076 15.1225 31.7661 15.679 32.3215C16.2354 32.877 16.7925 33.219 17.4504 33.475C18.0869 33.7222 18.8131 33.891 19.8777 33.9394C20.9445 33.9879 21.2848 34 24.0005 34C26.7161 34 27.057 33.9887 28.1233 33.9394C29.1879 33.891 29.9149 33.7222 30.5505 33.475C31.2081 33.219 31.7654 32.8772 32.322 32.3215C32.8785 31.7658 33.2194 31.2076 33.4754 30.5501C33.7226 29.9144 33.8922 29.1874 33.9399 28.1228C33.9884 27.0558 33.9996 26.7157 33.9996 24C33.9996 21.2843 33.9884 20.9434 33.9399 19.8772C33.8914 18.8126 33.7226 18.0852 33.4754 17.4499C33.2194 16.7924 32.8776 16.235 32.322 15.6785C31.7663 15.1219 31.2081 14.7803 30.5513 14.525C29.9149 14.2778 29.1878 14.1082 28.1241 14.0606C27.0578 14.0121 26.7169 14 24.0013 14C21.2856 14 20.9445 14.0113 19.8777 14.0606Z" fill="white"/>
<path d="M20.6677 24C20.6677 22.1591 22.1596 20.6664 24.0005 20.6664C25.8413 20.6664 27.3341 22.1591 27.3341 24C27.3341 25.8409 25.8413 27.3336 24.0005 27.3336C22.1596 27.3336 20.6677 25.8409 20.6677 24ZM18.8656 24C18.8656 26.836 21.1645 29.1349 24.0005 29.1349C26.8365 29.1349 29.1353 26.836 29.1353 24C29.1353 21.164 26.8365 18.8651 24.0005 18.8651C21.1645 18.8651 18.8656 21.164 18.8656 24ZM28.1386 18.6615C28.1385 18.8989 28.2088 19.1309 28.3406 19.3283C28.4724 19.5257 28.6597 19.6796 28.879 19.7705C29.0982 19.8614 29.3395 19.8852 29.5723 19.839C29.805 19.7928 30.0189 19.6786 30.1868 19.5109C30.3547 19.3431 30.4691 19.1293 30.5155 18.8966C30.5619 18.6638 30.5382 18.4225 30.4475 18.2032C30.3567 17.9839 30.203 17.7964 30.0057 17.6645C29.8084 17.5326 29.5764 17.4621 29.3391 17.462H29.3386C29.0205 17.4621 28.7154 17.5886 28.4904 17.8135C28.2654 18.0384 28.1389 18.3434 28.1386 18.6615ZM19.9605 32.1398C18.9855 32.0954 18.4556 31.933 18.1034 31.7958C17.6366 31.614 17.3034 31.3975 16.9532 31.0478C16.603 30.698 16.3862 30.3652 16.2052 29.8983C16.0679 29.5463 15.9055 29.0162 15.8612 28.0413C15.8127 26.9872 15.803 26.6706 15.803 24.0001C15.803 21.3296 15.8135 21.0138 15.8612 19.9589C15.9056 18.9839 16.0692 18.4549 16.2052 18.1018C16.387 17.635 16.6034 17.3018 16.9532 16.9516C17.303 16.6014 17.6358 16.3846 18.1034 16.2036C18.4554 16.0663 18.9855 15.9039 19.9605 15.8596C21.0146 15.8111 21.3312 15.8014 24.0005 15.8014C26.6697 15.8014 26.9867 15.8119 28.0417 15.8596C29.0166 15.904 29.5457 16.0676 29.8987 16.2036C30.3656 16.3846 30.6987 16.6018 31.0489 16.9516C31.3992 17.3014 31.6152 17.635 31.7969 18.1018C31.9342 18.4538 32.0966 18.9839 32.1409 19.9589C32.1894 21.0138 32.1991 21.3296 32.1991 24.0001C32.1991 26.6706 32.1894 26.9863 32.1409 28.0413C32.0965 29.0162 31.9333 29.5462 31.7969 29.8983C31.6152 30.3652 31.3987 30.6983 31.0489 31.0478C30.6992 31.3972 30.3656 31.614 29.8987 31.7958C29.5467 31.933 29.0166 32.0954 28.0417 32.1398C26.9876 32.1882 26.6709 32.1979 24.0005 32.1979C21.33 32.1979 21.0142 32.1882 19.9605 32.1398ZM19.8777 14.0606C18.8131 14.109 18.0857 14.2778 17.4504 14.525C16.7925 14.7803 16.2355 15.1228 15.679 15.6785C15.1224 16.2342 14.7808 16.792 14.5255 17.4499C14.2783 18.0856 14.1095 18.8126 14.061 19.8772C14.0118 20.9434 14.0005 21.2843 14.0005 24C14.0005 26.7157 14.0118 27.0566 14.061 28.1228C14.1095 29.1874 14.2783 29.9144 14.5255 30.5501C14.7808 31.2076 15.1225 31.7661 15.679 32.3215C16.2354 32.877 16.7925 33.219 17.4504 33.475C18.0869 33.7222 18.8131 33.891 19.8777 33.9394C20.9445 33.9879 21.2848 34 24.0005 34C26.7161 34 27.057 33.9887 28.1233 33.9394C29.1879 33.891 29.9149 33.7222 30.5505 33.475C31.2081 33.219 31.7654 32.8772 32.322 32.3215C32.8785 31.7658 33.2194 31.2076 33.4754 30.5501C33.7226 29.9144 33.8922 29.1874 33.9399 28.1228C33.9884 27.0558 33.9996 26.7157 33.9996 24C33.9996 21.2843 33.9884 20.9434 33.9399 19.8772C33.8914 18.8126 33.7226 18.0852 33.4754 17.4499C33.2194 16.7924 32.8776 16.235 32.322 15.6785C31.7663 15.1219 31.2081 14.7803 30.5513 14.525C29.9149 14.2778 29.1878 14.1082 28.1241 14.0606C27.0578 14.0121 26.7169 14 24.0013 14C21.2856 14 20.9445 14.0113 19.8777 14.0606Z" fill="white"/>
<defs>
<radialGradient id="paint0_radial_712_3444" cx="0" cy="0" r="1" gradientUnits="userSpaceOnUse" gradientTransform="translate(6.37734 48.2268) scale(62.6625 62.66)">
<stop offset="0.09" stop-color="#FA8F21"/>
<stop offset="0.78" stop-color="#D82D7E"/>
</radialGradient>
<radialGradient id="paint1_radial_712_3444" cx="0" cy="0" r="1" gradientUnits="userSpaceOnUse" gradientTransform="translate(29.1111 50.3772) scale(49.3867 49.3847)">
<stop offset="0.64" stop-color="#8C3AAA" stop-opacity="0"/>
<stop offset="1" stop-color="#8C3AAA"/>
</radialGradient>
</defs>
</svg>
