<svg width="52" height="52" viewBox="0 0 52 52" fill="none" xmlns="http://www.w3.org/2000/svg">
<rect x="1" y="1" width="50" height="50" rx="25" fill="#9249F2"/>
<rect x="1" y="1" width="50" height="50" rx="25" stroke="white" stroke-width="2"/>
<path d="M26 31.625C29.1066 31.625 31.625 29.1066 31.625 26C31.625 22.8934 29.1066 20.375 26 20.375C22.8934 20.375 20.375 22.8934 20.375 26C20.375 29.1066 22.8934 31.625 26 31.625Z" stroke="white" stroke-width="1.5" stroke-linecap="round" stroke-linejoin="round"/>
<path d="M26 17.375V15.5" stroke="white" stroke-width="1.5" stroke-linecap="round" stroke-linejoin="round"/>
<path d="M19.8968 19.8971L18.575 18.5752" stroke="white" stroke-width="1.5" stroke-linecap="round" stroke-linejoin="round"/>
<path d="M17.375 26H15.5" stroke="white" stroke-width="1.5" stroke-linecap="round" stroke-linejoin="round"/>
<path d="M19.8968 32.1035L18.575 33.4254" stroke="white" stroke-width="1.5" stroke-linecap="round" stroke-linejoin="round"/>
<path d="M26 34.625V36.5" stroke="white" stroke-width="1.5" stroke-linecap="round" stroke-linejoin="round"/>
<path d="M32.1031 32.1035L33.425 33.4254" stroke="white" stroke-width="1.5" stroke-linecap="round" stroke-linejoin="round"/>
<path d="M34.625 26H36.5" stroke="white" stroke-width="1.5" stroke-linecap="round" stroke-linejoin="round"/>
<path d="M32.1031 19.8971L33.425 18.5752" stroke="white" stroke-width="1.5" stroke-linecap="round" stroke-linejoin="round"/>
</svg>
