<svg width="48" height="48" viewBox="0 0 48 48" fill="none" xmlns="http://www.w3.org/2000/svg">
<rect width="48" height="48" rx="4" fill="white"/>
<path d="M14 16.5268C14 15.885 14.2252 15.3555 14.6757 14.9383C15.1261 14.5211 15.7117 14.3125 16.4324 14.3125C17.1403 14.3125 17.713 14.5179 18.1506 14.9287C18.601 15.3523 18.8263 15.9042 18.8263 16.5846C18.8263 17.2008 18.6075 17.7142 18.1699 18.125C17.7194 18.5486 17.1274 18.7604 16.3938 18.7604H16.3745C15.6667 18.7604 15.094 18.5486 14.6564 18.125C14.2188 17.7014 14 17.1687 14 16.5268ZM14.251 33.375V20.5126H18.5367V33.375H14.251ZM20.9112 33.375H25.1969V26.1928C25.1969 25.7435 25.2484 25.397 25.3513 25.1531C25.5315 24.7166 25.805 24.3476 26.1718 24.0459C26.5386 23.7442 26.9987 23.5934 27.5521 23.5934C28.9936 23.5934 29.7143 24.5626 29.7143 26.5009V33.375H34V26.0003C34 24.1005 33.5496 22.6595 32.6486 21.6775C31.7477 20.6955 30.5573 20.2045 29.0772 20.2045C27.417 20.2045 26.1236 20.917 25.1969 22.3418V22.3803H25.1776L25.1969 22.3418V20.5126H20.9112C20.9369 20.9234 20.9498 22.2006 20.9498 24.3444C20.9498 26.4881 20.9369 29.4983 20.9112 33.375Z" fill="#006699"/>
</svg>
