<svg width="217" height="104" viewBox="0 0 217 104" fill="none" xmlns="http://www.w3.org/2000/svg">
<g filter="url(#filter0_d_712_4787)">
<rect x="24" y="16" width="56" height="56" rx="8" fill="#9249F2" shape-rendering="crispEdges"/>
<path d="M43 48.5L52 53.75L61 48.5" stroke="white" stroke-width="1.5" stroke-linecap="round" stroke-linejoin="round"/>
<path d="M43 44L52 49.25L61 44" stroke="white" stroke-width="1.5" stroke-linecap="round" stroke-linejoin="round"/>
<path d="M43 39.5L52 44.75L61 39.5L52 34.25L43 39.5Z" stroke="white" stroke-width="1.5" stroke-linecap="round" stroke-linejoin="round"/>
</g>
<path d="M107.38 38V23.4H110.22V38H107.38ZM97.8 38V23.4H100.64V38H97.8ZM100.12 31.94V29.44H107.9V31.94H100.12ZM120.176 38V34.78H119.716V31.2C119.716 30.5733 119.562 30.1067 119.256 29.8C118.949 29.4933 118.476 29.34 117.836 29.34C117.502 29.34 117.102 29.3467 116.636 29.36C116.169 29.3733 115.696 29.3933 115.216 29.42C114.749 29.4333 114.329 29.4533 113.956 29.48V27.12C114.262 27.0933 114.609 27.0667 114.996 27.04C115.382 27.0133 115.776 27 116.176 27C116.589 26.9867 116.976 26.98 117.336 26.98C118.456 26.98 119.382 27.1267 120.116 27.42C120.862 27.7133 121.422 28.1733 121.796 28.8C122.182 29.4267 122.376 30.2467 122.376 31.26V38H120.176ZM116.676 38.28C115.889 38.28 115.196 38.14 114.596 37.86C114.009 37.58 113.549 37.18 113.216 36.66C112.896 36.14 112.736 35.5133 112.736 34.78C112.736 33.98 112.929 33.3267 113.316 32.82C113.716 32.3133 114.269 31.9333 114.976 31.68C115.696 31.4267 116.536 31.3 117.496 31.3H120.016V32.96H117.456C116.816 32.96 116.322 33.12 115.976 33.44C115.642 33.7467 115.476 34.1467 115.476 34.64C115.476 35.1333 115.642 35.5333 115.976 35.84C116.322 36.1467 116.816 36.3 117.456 36.3C117.842 36.3 118.196 36.2333 118.516 36.1C118.849 35.9533 119.122 35.7133 119.336 35.38C119.562 35.0333 119.689 34.5667 119.716 33.98L120.396 34.76C120.329 35.52 120.142 36.16 119.836 36.68C119.542 37.2 119.129 37.6 118.596 37.88C118.076 38.1467 117.436 38.28 116.676 38.28ZM125.353 38V27.14H127.553V31.8H127.353C127.353 30.6933 127.5 29.7733 127.793 29.04C128.087 28.2933 128.52 27.7333 129.093 27.36C129.68 26.9867 130.407 26.8 131.273 26.8H131.393C132.687 26.8 133.667 27.22 134.333 28.06C135 28.8867 135.333 30.1267 135.333 31.78V38H132.553V31.54C132.553 30.8733 132.36 30.3333 131.973 29.92C131.6 29.5067 131.08 29.3 130.413 29.3C129.733 29.3 129.18 29.5133 128.753 29.94C128.34 30.3533 128.133 30.9133 128.133 31.62V38H125.353ZM143.542 38.38C142.582 38.38 141.736 38.2267 141.002 37.92C140.269 37.6133 139.649 37.2 139.142 36.68C138.636 36.1467 138.249 35.5467 137.982 34.88C137.729 34.2133 137.602 33.52 137.602 32.8V32.38C137.602 31.6333 137.736 30.9267 138.002 30.26C138.282 29.58 138.676 28.98 139.182 28.46C139.702 27.9267 140.329 27.5133 141.062 27.22C141.796 26.9133 142.622 26.76 143.542 26.76C144.462 26.76 145.289 26.9133 146.022 27.22C146.756 27.5133 147.376 27.9267 147.882 28.46C148.402 28.98 148.796 29.58 149.062 30.26C149.329 30.9267 149.462 31.6333 149.462 32.38V32.8C149.462 33.52 149.329 34.2133 149.062 34.88C148.809 35.5467 148.429 36.1467 147.922 36.68C147.416 37.2 146.796 37.6133 146.062 37.92C145.329 38.2267 144.489 38.38 143.542 38.38ZM143.542 36C144.222 36 144.796 35.8533 145.262 35.56C145.729 35.2533 146.082 34.8467 146.322 34.34C146.562 33.82 146.682 33.2333 146.682 32.58C146.682 31.9133 146.556 31.3267 146.302 30.82C146.062 30.3 145.702 29.8933 145.222 29.6C144.756 29.2933 144.196 29.14 143.542 29.14C142.889 29.14 142.322 29.2933 141.842 29.6C141.376 29.8933 141.016 30.3 140.762 30.82C140.509 31.3267 140.382 31.9133 140.382 32.58C140.382 33.2333 140.502 33.82 140.742 34.34C140.996 34.8467 141.356 35.2533 141.822 35.56C142.289 35.8533 142.862 36 143.542 36ZM165.893 38L160.553 31.18H158.493L164.833 23.4H168.093L162.373 30.4L162.293 29L169.353 38H165.893ZM156.433 38V23.4H159.273V38H156.433ZM174.132 38.34C172.878 38.34 171.905 37.9267 171.212 37.1C170.532 36.2733 170.192 35.0467 170.192 33.42V27.12H172.972V33.66C172.972 34.3267 173.158 34.86 173.532 35.26C173.905 35.6467 174.412 35.84 175.052 35.84C175.692 35.84 176.212 35.6333 176.612 35.22C177.025 34.8067 177.232 34.2467 177.232 33.54V27.12H180.012V38H177.812V33.38H178.032C178.032 34.4733 177.892 35.3867 177.612 36.12C177.332 36.8533 176.912 37.4067 176.352 37.78C175.792 38.1533 175.092 38.34 174.252 38.34H174.132ZM183.205 38V27.14H185.405V31.74H185.345C185.345 30.18 185.678 29 186.345 28.2C187.012 27.4 187.992 27 189.285 27H189.685V29.42H188.925C187.992 29.42 187.265 29.6733 186.745 30.18C186.238 30.6733 185.985 31.3933 185.985 32.34V38H183.205ZM196.687 38.38C195.727 38.38 194.88 38.2267 194.147 37.92C193.413 37.6133 192.793 37.2 192.287 36.68C191.78 36.1467 191.393 35.5467 191.127 34.88C190.873 34.2133 190.747 33.52 190.747 32.8V32.38C190.747 31.6333 190.88 30.9267 191.147 30.26C191.427 29.58 191.82 28.98 192.327 28.46C192.847 27.9267 193.473 27.5133 194.207 27.22C194.94 26.9133 195.767 26.76 196.687 26.76C197.607 26.76 198.433 26.9133 199.167 27.22C199.9 27.5133 200.52 27.9267 201.027 28.46C201.547 28.98 201.94 29.58 202.207 30.26C202.473 30.9267 202.607 31.6333 202.607 32.38V32.8C202.607 33.52 202.473 34.2133 202.207 34.88C201.953 35.5467 201.573 36.1467 201.067 36.68C200.56 37.2 199.94 37.6133 199.207 37.92C198.473 38.2267 197.633 38.38 196.687 38.38ZM196.687 36C197.367 36 197.94 35.8533 198.407 35.56C198.873 35.2533 199.227 34.8467 199.467 34.34C199.707 33.82 199.827 33.2333 199.827 32.58C199.827 31.9133 199.7 31.3267 199.447 30.82C199.207 30.3 198.847 29.8933 198.367 29.6C197.9 29.2933 197.34 29.14 196.687 29.14C196.033 29.14 195.467 29.2933 194.987 29.6C194.52 29.8933 194.16 30.3 193.907 30.82C193.653 31.3267 193.527 31.9133 193.527 32.58C193.527 33.2333 193.647 33.82 193.887 34.34C194.14 34.8467 194.5 35.2533 194.967 35.56C195.433 35.8533 196.007 36 196.687 36ZM208.741 38.34C207.488 38.34 206.514 37.9267 205.821 37.1C205.141 36.2733 204.801 35.0467 204.801 33.42V27.12H207.581V33.66C207.581 34.3267 207.768 34.86 208.141 35.26C208.514 35.6467 209.021 35.84 209.661 35.84C210.301 35.84 210.821 35.6333 211.221 35.22C211.634 34.8067 211.841 34.2467 211.841 33.54V27.12H214.621V38H212.421V33.38H212.641C212.641 34.4733 212.501 35.3867 212.221 36.12C211.941 36.8533 211.521 37.4067 210.961 37.78C210.401 38.1533 209.701 38.34 208.861 38.34H208.741Z" fill="#121314"/>
<path d="M101.53 67.252C100.606 67.252 99.8267 67.0747 99.192 66.72C98.5667 66.356 98.0907 65.852 97.764 65.208C97.4467 64.5547 97.288 63.7987 97.288 62.94V56.78H98.66V63.108C98.66 63.6773 98.7673 64.1813 98.982 64.62C99.206 65.0493 99.5327 65.3853 99.962 65.628C100.391 65.8707 100.914 65.992 101.53 65.992C102.146 65.992 102.664 65.8753 103.084 65.642C103.513 65.3993 103.835 65.0633 104.05 64.634C104.274 64.1953 104.386 63.6867 104.386 63.108V56.78H105.758V62.94C105.758 63.7987 105.599 64.5547 105.282 65.208C104.965 65.852 104.493 66.356 103.868 66.72C103.243 67.0747 102.463 67.252 101.53 67.252ZM108.559 67V56.78H109.931V67H108.559ZM111.799 67.84L114.655 56.08H115.915L113.059 67.84H111.799ZM121.792 67.252C120.868 67.252 120.088 67.0747 119.454 66.72C118.828 66.356 118.352 65.852 118.026 65.208C117.708 64.5547 117.55 63.7987 117.55 62.94V56.78H118.922V63.108C118.922 63.6773 119.029 64.1813 119.244 64.62C119.468 65.0493 119.794 65.3853 120.224 65.628C120.653 65.8707 121.176 65.992 121.792 65.992C122.408 65.992 122.926 65.8753 123.346 65.642C123.775 65.3993 124.097 65.0633 124.312 64.634C124.536 64.1953 124.648 63.6867 124.648 63.108V56.78H126.02V62.94C126.02 63.7987 125.861 64.5547 125.544 65.208C125.226 65.852 124.755 66.356 124.13 66.72C123.504 67.0747 122.725 67.252 121.792 67.252ZM127.451 67L131.259 61.54V61.792L127.787 56.78H129.341L132.015 60.7H132.239L134.955 56.78H136.439L132.869 61.848L132.855 61.596L136.719 67H135.165L132.113 62.702H131.889L128.935 67H127.451ZM142.736 67.056V65.796H145.284C145.9 65.796 146.446 65.698 146.922 65.502C147.407 65.2967 147.818 65.0167 148.154 64.662C148.499 64.3073 148.761 63.892 148.938 63.416C149.115 62.94 149.204 62.4267 149.204 61.876C149.204 61.2973 149.115 60.7747 148.938 60.308C148.761 59.832 148.499 59.4213 148.154 59.076C147.818 58.7213 147.407 58.4507 146.922 58.264C146.446 58.0773 145.9 57.984 145.284 57.984H142.736V56.724H145.144C146.068 56.724 146.871 56.8687 147.552 57.158C148.233 57.438 148.798 57.8207 149.246 58.306C149.703 58.782 150.044 59.3187 150.268 59.916C150.492 60.504 150.604 61.106 150.604 61.722V62.03C150.604 62.6273 150.492 63.2247 150.268 63.822C150.044 64.4193 149.703 64.9607 149.246 65.446C148.798 65.9313 148.233 66.3233 147.552 66.622C146.871 66.9113 146.068 67.056 145.144 67.056H142.736ZM141.644 67.056V56.724H143.016V67.056H141.644ZM152.718 67V56.78H154.09V67H152.718ZM153.81 67V65.768H158.766V67H153.81ZM153.81 62.422V61.19H158.332V62.422H153.81ZM153.81 58.012V56.78H158.626V58.012H153.81ZM164.322 67.252C163.472 67.252 162.749 67.112 162.152 66.832C161.554 66.552 161.097 66.1647 160.78 65.67C160.462 65.1753 160.304 64.6153 160.304 63.99H161.676C161.676 64.298 161.755 64.606 161.914 64.914C162.082 65.222 162.357 65.4787 162.74 65.684C163.132 65.8893 163.659 65.992 164.322 65.992C164.938 65.992 165.442 65.9033 165.834 65.726C166.226 65.5393 166.515 65.3013 166.702 65.012C166.888 64.7133 166.982 64.3913 166.982 64.046C166.982 63.626 166.8 63.2807 166.436 63.01C166.072 62.73 165.54 62.5573 164.84 62.492L163.706 62.394C162.8 62.3193 162.077 62.0393 161.536 61.554C160.994 61.0687 160.724 60.4293 160.724 59.636C160.724 59.0107 160.873 58.4647 161.172 57.998C161.48 57.5313 161.904 57.1673 162.446 56.906C162.987 56.6353 163.617 56.5 164.336 56.5C165.045 56.5 165.67 56.6307 166.212 56.892C166.753 57.1533 167.173 57.522 167.472 57.998C167.78 58.4647 167.934 59.0247 167.934 59.678H166.562C166.562 59.3513 166.482 59.0433 166.324 58.754C166.174 58.4647 165.936 58.2267 165.61 58.04C165.283 57.8533 164.858 57.76 164.336 57.76C163.832 57.76 163.412 57.8487 163.076 58.026C162.749 58.2033 162.502 58.4367 162.334 58.726C162.175 59.006 162.096 59.3093 162.096 59.636C162.096 60.0093 162.24 60.3407 162.53 60.63C162.819 60.9193 163.248 61.0873 163.818 61.134L164.952 61.232C165.652 61.288 166.254 61.4373 166.758 61.68C167.271 61.9133 167.663 62.2307 167.934 62.632C168.214 63.024 168.354 63.4953 168.354 64.046C168.354 64.6713 168.186 65.2267 167.85 65.712C167.514 66.1973 167.042 66.5753 166.436 66.846C165.829 67.1167 165.124 67.252 164.322 67.252ZM170.684 67V56.78H172.056V67H170.684ZM179.622 67.252C178.829 67.252 178.11 67.1213 177.466 66.86C176.822 66.5987 176.267 66.23 175.8 65.754C175.343 65.278 174.988 64.718 174.736 64.074C174.484 63.4207 174.358 62.7113 174.358 61.946V61.638C174.358 60.9847 174.47 60.3547 174.694 59.748C174.928 59.132 175.259 58.5813 175.688 58.096C176.127 57.6013 176.659 57.214 177.284 56.934C177.91 56.6447 178.614 56.5 179.398 56.5C180.248 56.5 181.004 56.6633 181.666 56.99C182.329 57.3073 182.861 57.7553 183.262 58.334C183.664 58.9033 183.897 59.566 183.962 60.322H182.562C182.497 59.7527 182.31 59.2813 182.002 58.908C181.694 58.5253 181.312 58.2407 180.854 58.054C180.406 57.858 179.921 57.76 179.398 57.76C178.866 57.76 178.376 57.858 177.928 58.054C177.48 58.2407 177.093 58.5113 176.766 58.866C176.449 59.2207 176.202 59.6453 176.024 60.14C175.847 60.6347 175.758 61.19 175.758 61.806C175.758 62.506 175.852 63.122 176.038 63.654C176.234 64.1767 176.505 64.6153 176.85 64.97C177.196 65.3153 177.602 65.5767 178.068 65.754C178.544 65.9313 179.062 66.02 179.622 66.02C180.416 66.02 181.111 65.8613 181.708 65.544C182.315 65.2173 182.772 64.7973 183.08 64.284L182.576 65.95V62.912H183.864V65.348C183.407 65.9453 182.819 66.412 182.1 66.748C181.382 67.084 180.556 67.252 179.622 67.252ZM179.258 63.192V62.044H184.732V63.192H179.258ZM186.693 67V56.78H188.933L194.127 65.768H194.575L194.295 66.02V56.78H195.611V67H193.343L188.149 58.012H187.701L187.981 57.76V67H186.693ZM198.574 67V56.78H199.946V67H198.574ZM199.666 67V65.768H204.622V67H199.666ZM199.666 62.422V61.19H204.188V62.422H199.666ZM199.666 58.012V56.78H204.482V58.012H199.666ZM206.968 67V56.724H208.34V67H206.968ZM213.282 67L209.894 62.45H211.504L214.948 67H213.282ZM207.822 63.304V62.086H210.566C210.996 62.086 211.364 61.9973 211.672 61.82C211.98 61.6427 212.218 61.4 212.386 61.092C212.554 60.7747 212.638 60.4153 212.638 60.014C212.638 59.6127 212.554 59.258 212.386 58.95C212.218 58.6327 211.98 58.3853 211.672 58.208C211.364 58.0213 210.996 57.928 210.566 57.928H207.822V56.724H210.314C211.061 56.724 211.714 56.836 212.274 57.06C212.834 57.284 213.268 57.6293 213.576 58.096C213.884 58.5627 214.038 59.1647 214.038 59.902V60.126C214.038 60.8633 213.88 61.4653 213.562 61.932C213.254 62.3987 212.82 62.744 212.26 62.968C211.71 63.192 211.061 63.304 210.314 63.304H207.822Z" fill="#7B848B"/>
<defs>
<filter id="filter0_d_712_4787" x="0" y="0" width="104" height="104" filterUnits="userSpaceOnUse" color-interpolation-filters="sRGB">
<feFlood flood-opacity="0" result="BackgroundImageFix"/>
<feColorMatrix in="SourceAlpha" type="matrix" values="0 0 0 0 0 0 0 0 0 0 0 0 0 0 0 0 0 0 127 0" result="hardAlpha"/>
<feOffset dy="8"/>
<feGaussianBlur stdDeviation="12"/>
<feComposite in2="hardAlpha" operator="out"/>
<feColorMatrix type="matrix" values="0 0 0 0 0.54275 0 0 0 0 0.2625 0 0 0 0 1 0 0 0 0.24 0"/>
<feBlend mode="normal" in2="BackgroundImageFix" result="effect1_dropShadow_712_4787"/>
<feBlend mode="normal" in="SourceGraphic" in2="effect1_dropShadow_712_4787" result="shape"/>
</filter>
</defs>
</svg>
