<svg width="200" height="96" viewBox="0 0 200 96" fill="none" xmlns="http://www.w3.org/2000/svg">
<g filter="url(#filter0_b_480_15801)">
<rect width="200" height="96" rx="12" fill="white"/>
<g opacity="0.4">
<g clip-path="url(#clip0_480_15801)">
<path d="M100.556 56.5221C100.556 56.9089 100.556 56.9968 100.814 57.2341L102.254 58.6757V58.7372H95.8683V55.9684C95.2255 57.7931 93.5257 59 91.634 58.9745C88.3512 58.9745 85.9684 56.3375 85.9684 51.4855C85.9684 46.9411 88.5396 43.9086 92.1482 43.9086C93.7478 43.8055 95.2365 44.7504 95.8596 46.2643V40.1556C95.883 40.0172 95.8682 39.875 95.8167 39.7446C95.7653 39.6143 95.6792 39.501 95.5681 39.4172L94.1968 38.0636V38.0021L100.556 37.2373V56.5221ZM95.8683 55.6431V46.528C95.6415 46.2378 95.3518 46.0045 95.0219 45.846C94.6919 45.6875 94.3304 45.608 93.9654 45.6138C92.414 45.6138 90.914 47.0554 90.914 51.3361C90.914 55.3443 92.2083 56.7595 93.8197 56.7595C94.2237 56.7503 94.6199 56.6444 94.9759 56.4504C95.3318 56.2564 95.6375 55.9798 95.868 55.6431H95.8683ZM104.791 58.7372V46.4313C104.811 46.2963 104.798 46.1583 104.753 46.0295C104.708 45.9007 104.633 45.7851 104.534 45.6929L103.119 44.1987V44.1371H109.505V56.6188C109.505 57.0056 109.505 57.0935 109.762 57.3308L111.168 58.6844V58.746L104.791 58.7372ZM104.559 39.6367C104.559 38.1805 105.711 37 107.131 37C108.551 37 109.702 38.1808 109.702 39.637C109.702 41.0932 108.551 42.274 107.131 42.274C105.711 42.274 104.559 41.0932 104.559 39.637V39.6367ZM126.733 56.4958C126.733 56.8825 126.733 56.9968 126.99 57.2341L128.43 58.6757V58.7372H122.01V55.5816C121.426 57.5769 119.645 58.9511 117.613 58.9745C114.768 58.9745 113.242 56.8474 113.242 52.8216C113.242 50.879 113.242 48.7518 113.302 46.361C113.325 46.2298 113.314 46.0948 113.268 45.9697C113.223 45.8446 113.146 45.7339 113.045 45.649L111.631 44.1987V44.1371H117.965V52.1623C117.965 54.7993 118.342 56.5573 119.953 56.5573C120.381 56.529 120.794 56.3928 121.157 56.161C121.519 55.9292 121.818 55.6091 122.027 55.23V46.4401C122.048 46.3051 122.035 46.1671 121.99 46.0383C121.945 45.9095 121.87 45.7939 121.77 45.7017L120.348 44.1987V44.1371H126.733V56.4958ZM148.47 58.7372C148.47 58.2625 148.556 52.2151 148.556 50.8263C148.556 48.1893 148.153 46.3698 146.344 46.3698C145.894 46.3847 145.454 46.5072 145.059 46.7271C144.665 46.947 144.327 47.2583 144.073 47.6355C144.254 48.4574 144.34 49.2983 144.33 50.1406C144.33 51.9689 144.27 54.2983 144.244 56.6276C144.221 56.7587 144.232 56.8938 144.278 57.0189C144.323 57.144 144.4 57.2547 144.501 57.3396L145.941 58.6932V58.7548H139.496C139.496 58.3153 139.581 52.2326 139.581 50.8438C139.581 48.1629 139.179 46.3873 137.396 46.3873C136.962 46.4042 136.539 46.5323 136.168 46.7598C135.796 46.9874 135.487 47.3068 135.27 47.6883V56.654C135.27 57.0407 135.27 57.1286 135.527 57.366L136.933 58.7196V58.7811H130.556V46.4752C130.576 46.3402 130.563 46.2022 130.518 46.0734C130.474 45.9447 130.398 45.8291 130.299 45.7369L128.884 44.1987V44.1371H135.27V47.2663C135.862 45.2007 137.749 43.8125 139.847 43.8998C141.973 43.8998 143.413 45.1128 144.021 47.4158C144.697 45.2918 146.643 43.8667 148.821 43.8998C151.667 43.8998 153.278 46.0533 153.278 50.1231C153.278 52.0656 153.218 54.2807 153.193 56.61C153.168 56.7446 153.182 56.8834 153.234 57.0098C153.286 57.1362 153.373 57.2447 153.484 57.322L154.89 58.6757V58.7372H148.47ZM68.2516 56.821L70.1459 58.6757V58.7372H60.5375V58.6757L62.4662 56.821C62.5675 56.7361 62.6446 56.6254 62.6898 56.5003C62.735 56.3752 62.7465 56.2401 62.7233 56.109V44.2514C62.7233 43.7504 62.7233 43.0735 62.8088 42.4934L56.3289 58.9748H56.2521L49.5407 43.8122C49.3949 43.4342 49.3521 43.4079 49.2576 43.1529V53.0943C49.1773 53.7594 49.2875 54.4338 49.5751 55.0369L52.2748 58.6759V58.7375H45.1094V58.6759L47.8094 55.0281C48.0946 54.4274 48.2046 53.7564 48.1263 53.0943V42.1069C48.1705 41.5668 48.0113 41.0298 47.6808 40.6039L45.7695 38.0636V38.0021H52.6264L58.3691 50.8441L63.4262 38.0021H70.1373V38.0636L68.2516 40.2171C68.1406 40.3009 68.0545 40.4142 68.0031 40.5445C67.9516 40.6749 67.9368 40.8171 67.9601 40.9555V56.1093C67.9356 56.2439 67.9501 56.3828 68.0019 56.5092C68.0537 56.6356 68.1405 56.744 68.2519 56.8213L68.2516 56.821ZM75.7687 50.879V50.9405C75.7687 54.7026 77.663 56.2145 79.8829 56.2145C81.7364 56.2792 83.4522 55.2133 84.2541 53.4984H84.3142C83.5429 57.2165 81.297 58.9745 77.9371 58.9745C74.3115 58.9745 70.8916 56.7331 70.8916 51.5382C70.8916 46.0797 74.3202 43.8998 78.1085 43.8998C81.1601 43.8998 84.4084 45.3765 84.4084 50.1231V50.879H75.7687ZM75.7687 50.1231H79.9944V49.3583C79.9944 45.4908 79.2144 44.4624 78.04 44.4624C76.6172 44.4624 75.7516 46.0006 75.7516 50.1231H75.7687Z" fill="#132238"/>
</g>
</g>
</g>
<defs>
<filter id="filter0_b_480_15801" x="-32" y="-32" width="264" height="160" filterUnits="userSpaceOnUse" color-interpolation-filters="sRGB">
<feFlood flood-opacity="0" result="BackgroundImageFix"/>
<feGaussianBlur in="BackgroundImageFix" stdDeviation="16"/>
<feComposite in2="SourceAlpha" operator="in" result="effect1_backgroundBlur_480_15801"/>
<feBlend mode="normal" in="SourceGraphic" in2="effect1_backgroundBlur_480_15801" result="shape"/>
</filter>
<clipPath id="clip0_480_15801">
<rect width="110" height="22" fill="white" transform="translate(45 37)"/>
</clipPath>
</defs>
</svg>
