<svg width="296" height="192" viewBox="0 0 296 192" fill="none" xmlns="http://www.w3.org/2000/svg">
<g filter="url(#filter0_d_480_15797)">
<rect x="48" y="32" width="200" height="96" rx="12" fill="white" shape-rendering="crispEdges"/>
<g clip-path="url(#clip0_480_15797)">
<path d="M109.346 64C100.319 64 93 71.1634 93 79.9997C93 88.837 100.319 96 109.346 96C118.374 96 125.692 88.837 125.692 79.9997C125.692 71.164 118.374 64.0008 109.346 64.0008L109.346 64ZM116.842 87.0762C116.548 87.5475 115.921 87.6952 115.441 87.408C111.603 85.1117 106.771 84.593 101.081 85.8652C100.533 85.9883 99.9867 85.6518 99.8618 85.1153C99.7362 84.5786 100.078 84.0437 100.628 83.9214C106.855 82.528 112.196 83.1277 116.504 85.7047C116.984 85.9933 117.137 86.6066 116.842 87.0766L116.842 87.0762ZM118.843 82.7202C118.473 83.3073 117.689 83.4915 117.09 83.131C112.697 80.4879 105.999 79.7223 100.802 81.2664C100.128 81.4657 99.4157 81.0939 99.2112 80.4353C99.0082 79.7756 99.3882 79.0801 100.061 78.8795C105.997 77.1164 113.377 77.9705 118.423 81.0055C119.022 81.3666 119.211 82.1346 118.843 82.7204L118.843 82.7202ZM119.015 78.1837C113.746 75.1208 105.054 74.8392 100.025 76.3335C99.2168 76.5732 98.3627 76.1269 98.1179 75.3363C97.8731 74.5453 98.3287 73.7098 99.137 73.4695C104.911 71.7538 114.51 72.0853 120.575 75.6097C121.301 76.0318 121.54 76.9502 121.109 77.6604C120.68 78.3715 119.739 78.6059 119.015 78.1837H119.015ZM137.472 78.7706C134.65 78.1119 134.147 77.6495 134.147 76.6779C134.147 75.7601 135.03 75.1424 136.343 75.1424C137.615 75.1424 138.877 75.6115 140.2 76.5771C140.24 76.6063 140.291 76.6179 140.34 76.6103C140.389 76.6031 140.433 76.5765 140.462 76.5366L141.84 74.6351C141.897 74.5568 141.881 74.4489 141.805 74.3891C140.23 73.1523 138.457 72.5511 136.385 72.5511C133.337 72.5511 131.209 74.3411 131.209 76.9023C131.209 79.6487 133.045 80.6212 136.218 81.3719C138.919 81.9808 139.374 82.4909 139.374 83.4029C139.374 84.4134 138.453 85.0416 136.969 85.0416C135.322 85.0416 133.978 84.4984 132.475 83.2242C132.438 83.1927 132.387 83.1784 132.339 83.1811C132.29 83.1851 132.244 83.2076 132.213 83.2449L130.667 85.0448C130.603 85.1195 130.611 85.2311 130.686 85.2957C132.435 86.824 134.586 87.6312 136.907 87.6312C140.191 87.6312 142.313 85.875 142.313 83.1568C142.318 80.8622 140.915 79.5916 137.478 78.7731L137.472 78.7706ZM149.742 76.0461C148.318 76.0461 147.151 76.5948 146.188 77.7192V76.4536C146.188 76.3537 146.105 76.2723 146.003 76.2723H143.476C143.374 76.2723 143.292 76.3537 143.292 76.4536V90.516C143.292 90.6159 143.374 90.6973 143.476 90.6973H146.003C146.105 90.6973 146.188 90.6159 146.188 90.516V86.0771C147.151 87.1348 148.319 87.6516 149.742 87.6516C152.386 87.6516 155.063 85.6589 155.063 81.8496C155.067 78.0392 152.389 76.0459 149.744 76.0459L149.742 76.0461ZM152.125 81.8496C152.125 83.7894 150.904 85.143 149.156 85.143C147.428 85.143 146.125 83.7279 146.125 81.8496C146.125 79.9714 147.428 78.5561 149.156 78.5561C150.876 78.5559 152.125 79.9407 152.125 81.8494L152.125 81.8496ZM161.925 76.0461C158.52 76.0461 155.851 78.6132 155.851 81.891C155.851 85.1331 158.501 87.6732 161.884 87.6732C165.302 87.6732 167.978 85.1148 167.978 81.8495C167.978 78.5956 165.32 76.0465 161.925 76.0465L161.925 76.0461ZM161.925 85.1623C160.114 85.1623 158.748 83.7376 158.748 81.8486C158.748 79.9516 160.067 78.575 161.884 78.575C163.707 78.575 165.082 79.9997 165.082 81.89C165.082 83.7867 163.755 85.1623 161.926 85.1623H161.925ZM175.251 76.2723H172.47V73.4894C172.47 73.3896 172.388 73.3082 172.286 73.3082H169.759C169.657 73.3082 169.574 73.3896 169.574 73.4894V76.2723H168.359C168.257 76.2723 168.175 76.3537 168.175 76.4536V78.5796C168.175 78.6793 168.257 78.7609 168.359 78.7609H169.574V84.2617C169.574 86.4847 170.704 87.6117 172.933 87.6117C173.84 87.6117 174.592 87.4285 175.301 87.0351C175.358 87.0036 175.394 86.9428 175.394 86.8782V84.8538C175.394 84.7913 175.361 84.7323 175.306 84.6996C175.251 84.6658 175.183 84.6641 175.126 84.6914C174.639 84.9312 174.169 85.0418 173.643 85.0418C172.832 85.0418 172.47 84.6814 172.47 83.8738V78.7618H175.251C175.353 78.7618 175.435 78.6805 175.435 78.5805V76.4548C175.439 76.3549 175.357 76.2735 175.254 76.2735L175.251 76.2723ZM184.94 76.2832V75.9414C184.94 74.9359 185.334 74.4874 186.218 74.4874C186.745 74.4874 187.168 74.5899 187.642 74.7446C187.7 74.7626 187.761 74.7536 187.808 74.7194C187.857 74.6852 187.885 74.6304 187.885 74.5723V72.4878C187.885 72.4081 187.832 72.3376 187.754 72.3141C187.253 72.1683 186.613 72.0188 185.654 72.0188C183.319 72.0188 182.086 73.3054 182.086 75.7381V76.2616H180.871C180.77 76.2616 180.686 76.343 180.686 76.4427V78.5796C180.686 78.6793 180.77 78.7609 180.871 78.7609H182.086V87.2456C182.086 87.3455 182.168 87.4269 182.27 87.4269H184.797C184.899 87.4269 184.982 87.3455 184.982 87.2456V78.7615H187.342L190.956 87.2441C190.546 88.1354 190.142 88.3127 189.591 88.3127C189.146 88.3127 188.677 88.1826 188.198 87.9258C188.153 87.9015 188.099 87.8975 188.051 87.9123C188.003 87.9289 187.962 87.964 187.942 88.0099L187.085 89.8492C187.044 89.9361 187.079 90.0382 187.165 90.0833C188.059 90.5573 188.866 90.7596 189.864 90.7596C191.73 90.7596 192.761 89.9088 193.67 87.6199L198.054 76.5308C198.076 76.475 198.07 76.412 198.035 76.3625C198 76.3134 197.944 76.2838 197.883 76.2838H195.252C195.173 76.2838 195.103 76.3329 195.077 76.4053L192.382 83.9403L189.43 76.4003C189.403 76.3302 189.334 76.2838 189.258 76.2838H184.94L184.94 76.2832ZM179.323 76.2723H176.796C176.694 76.2723 176.61 76.3537 176.61 76.4536V87.2456C176.61 87.3456 176.694 87.4269 176.796 87.4269H179.323C179.425 87.4269 179.508 87.3456 179.508 87.2456V76.4544C179.508 76.4306 179.503 76.4069 179.494 76.3849C179.485 76.3629 179.471 76.3429 179.454 76.326C179.437 76.3092 179.416 76.2958 179.394 76.2867C179.371 76.2776 179.347 76.273 179.323 76.2731L179.323 76.2723ZM178.074 71.3585C177.072 71.3585 176.26 72.1517 176.26 73.1317C176.26 74.1122 177.073 74.9065 178.074 74.9065C179.074 74.9065 179.886 74.1122 179.886 73.1317C179.886 72.1519 179.074 71.3585 178.075 71.3585H178.074ZM200.212 79.7422C199.212 79.7422 198.434 78.9559 198.434 78.0012C198.434 77.0465 199.222 76.2513 200.222 76.2513C201.222 76.2513 202 77.0373 202 77.9913C202 78.946 201.211 79.7422 200.212 79.7422H200.212ZM200.222 76.4244C199.311 76.4244 198.622 77.1332 198.622 78.0012C198.622 78.8688 199.306 79.5681 200.213 79.5681C201.124 79.5681 201.814 78.8599 201.814 77.9913C201.814 77.1237 201.128 76.4244 200.223 76.4244H200.222ZM200.616 78.1703L201.119 78.8597H200.695L200.242 78.2273H199.853V78.8597H199.498V77.0324H200.33C200.764 77.0324 201.049 77.2496 201.049 77.6153C201.051 77.9149 200.874 78.0979 200.618 78.1703H200.616V78.1703ZM200.316 77.3459H199.853V77.9239H200.316C200.547 77.9239 200.685 77.8132 200.685 77.6346C200.685 77.4466 200.546 77.3459 200.316 77.3459H200.316V77.3459Z" fill="#2EBD59"/>
</g>
</g>
<defs>
<filter id="filter0_d_480_15797" x="0" y="0" width="296" height="192" filterUnits="userSpaceOnUse" color-interpolation-filters="sRGB">
<feFlood flood-opacity="0" result="BackgroundImageFix"/>
<feColorMatrix in="SourceAlpha" type="matrix" values="0 0 0 0 0 0 0 0 0 0 0 0 0 0 0 0 0 0 127 0" result="hardAlpha"/>
<feOffset dy="16"/>
<feGaussianBlur stdDeviation="24"/>
<feComposite in2="hardAlpha" operator="out"/>
<feColorMatrix type="matrix" values="0 0 0 0 0.0748 0 0 0 0 0.13288 0 0 0 0 0.22 0 0 0 0.12 0"/>
<feBlend mode="normal" in2="BackgroundImageFix" result="effect1_dropShadow_480_15797"/>
<feBlend mode="normal" in="SourceGraphic" in2="effect1_dropShadow_480_15797" result="shape"/>
</filter>
<clipPath id="clip0_480_15797">
<rect width="109" height="32" fill="white" transform="translate(93 64)"/>
</clipPath>
</defs>
</svg>
