<svg width="200" height="96" viewBox="0 0 200 96" fill="none" xmlns="http://www.w3.org/2000/svg">
<g filter="url(#filter0_b_480_15805)">
<rect width="200" height="96" rx="12" fill="white"/>
<g opacity="0.4">
<g clip-path="url(#clip0_480_15805)">
<path d="M152.73 53.381C150.924 53.381 149.46 54.851 149.46 56.6637C149.46 58.4749 150.924 59.945 152.73 59.945C154.536 59.945 156 58.4749 156 56.6637C156 54.851 154.536 53.381 152.73 53.381ZM134.824 55.2485L134.829 36.001H132.854C132.854 36.001 129.572 37.2176 127.209 37.4763V41.112H128.701C129.181 41.112 129.382 41.322 129.389 41.7814V55.2487C129.389 55.7231 129.117 55.9833 128.677 56.0127C128.3 56.0385 127.455 56.0943 127.455 56.0943V59.7305H136.759V56.0943C136.759 56.0943 135.913 56.0383 135.537 56.0127C135.096 55.9831 134.824 55.7229 134.824 55.2485ZM153.63 45.6954C153.449 41.6394 148.09 41.4527 145.289 44.1926L144.777 42.6221H138.301V46.3393L139.659 46.3373C140.14 46.3373 140.318 46.5467 140.325 47.0059V55.2487C140.325 55.7231 140.052 55.9833 139.612 56.0127C139.235 56.0385 138.476 56.0935 138.476 56.0935V59.7305H147.595V56.0935C147.595 56.0935 146.841 56.0381 146.465 56.0127C146.024 55.9833 145.751 55.7235 145.751 55.2487L145.749 49.66C145.749 48.6125 145.983 46.8644 147.786 46.4173C148.008 48.1653 149.656 48.6874 150.46 48.6874C152.49 48.6871 153.63 47.1294 153.63 45.6954ZM119.272 42.3946C117.891 42.4566 116.434 42.9983 115.376 43.9409V36.001H113.421C113.421 36.001 110.224 37.165 107.75 37.4763L107.669 41.112L109.233 41.1144C109.713 41.1144 109.92 41.324 109.927 41.7839V59.7325L114.397 59.728L115.036 58.2551C115.172 58.3336 117.224 60.3097 120.499 59.9145C124.622 59.4162 126.788 56.0695 126.788 50.9918C126.788 48.3277 125.991 42.0935 119.272 42.3946ZM118.445 55.7624C117.685 55.8196 116.279 55.6889 115.376 54.0628V51.6805L115.376 51.6791H115.376V48.9246C115.376 47.7339 116.449 46.6885 118.109 46.6254C119.791 46.5616 121.28 47.7382 121.28 51.0614C121.28 55.5447 119.361 55.6924 118.445 55.7624ZM106.399 55.263L106.4 50.0733C106.4 48.2239 106.378 46.3124 105.184 44.7521C104.09 43.3243 102.275 42.2771 99.5194 42.413C97.6894 42.5034 95.7374 43.3752 94.6597 44.8681L94.4899 45.0879L94.3865 44.9606C93.2787 43.3207 91.5099 42.2773 88.7547 42.413C86.9241 42.5034 84.9721 43.3752 83.8944 44.8681L83.7326 42.6392H76.9799V46.357L78.5339 46.3805C79.0146 46.3805 79.2174 46.5901 79.224 47.0498L79.2242 54.3253V55.2628C79.2242 55.7375 78.9518 55.9978 78.5119 56.0276C78.1349 56.053 77.3716 56.1083 77.3716 56.1083V59.7443L86.5025 59.7478V56.1084C86.5025 56.1084 85.7831 56.0563 85.3619 56.0277C84.9216 55.9969 84.6501 55.7378 84.6501 55.263C84.6501 55.263 84.6575 50.6192 84.6575 49.6892C84.6575 48.7606 85.4072 46.8546 87.7875 46.8546C89.7078 46.8546 90.1012 48.0541 90.1012 49.4502C90.1012 50.8457 90.1033 55.2637 90.1033 55.2637C90.1033 55.7383 89.8315 55.998 89.3916 56.0277C89.0146 56.0537 88.2511 56.1097 88.2511 56.1097V59.7445H97.3724V56.1084C97.3724 56.1084 96.6533 56.0563 96.2317 56.0277C95.7916 55.9969 95.5238 55.7378 95.5238 55.263H95.5102C95.5102 55.263 95.5181 50.6192 95.5181 49.6892C95.5181 48.7606 96.1864 46.8546 98.5673 46.8546C100.487 46.8546 100.968 48.0541 100.968 49.4502V54.3253L100.967 55.2634C100.967 55.738 100.694 55.9978 100.255 56.0272C99.8776 56.0534 99.1143 56.1091 99.1143 56.1091V59.7442H108.248V56.1084C108.248 56.1084 107.528 56.0563 107.107 56.0277C106.667 55.9969 106.399 55.7376 106.399 55.263ZM74.0145 55.2985V42.64H66.426V46.3568L67.888 46.3572C68.3694 46.3572 68.5712 46.567 68.5777 47.0265L68.5702 52.801C68.5702 53.3669 68.1722 55.4927 65.4074 55.546C63.5235 55.5831 63.1273 54.4441 63.1273 52.9505V42.64H57.5394V53.2451C57.5394 55.9286 58.735 60.1501 64.3134 59.9957C66.1451 59.9441 68.2431 58.9997 69.3334 57.6153L69.379 59.7479H75.6059V56.1118C75.6059 56.1118 75.1023 56.0715 74.7252 56.0459C74.2849 56.0163 74.0145 55.7739 74.0145 55.2985ZM53.3283 55.7201C51.4741 55.7688 51.1155 54.4129 51.0996 53.4286V46.5982H55.4207V42.6397H51.1169V36.7562H47.7238C47.6682 36.7562 47.5709 36.8055 47.5573 36.9301C47.3582 38.7418 46.5126 41.9223 43 43.1927V46.5982H45.6739V53.7881C45.6739 56.3876 47.2555 60.0805 52.3001 59.9936C54.0025 59.9649 55.8935 59.2493 56.3121 58.6325L55.1982 55.3184C54.7669 55.5239 53.944 55.7034 53.3283 55.7201Z" fill="#132238"/>
</g>
</g>
</g>
<defs>
<filter id="filter0_b_480_15805" x="-32" y="-32" width="264" height="160" filterUnits="userSpaceOnUse" color-interpolation-filters="sRGB">
<feFlood flood-opacity="0" result="BackgroundImageFix"/>
<feGaussianBlur in="BackgroundImageFix" stdDeviation="16"/>
<feComposite in2="SourceAlpha" operator="in" result="effect1_backgroundBlur_480_15805"/>
<feBlend mode="normal" in="SourceGraphic" in2="effect1_backgroundBlur_480_15805" result="shape"/>
</filter>
<clipPath id="clip0_480_15805">
<rect width="113" height="24" fill="white" transform="translate(43 36)"/>
</clipPath>
</defs>
</svg>
