<svg width="48" height="48" viewBox="0 0 48 48" fill="none" xmlns="http://www.w3.org/2000/svg">
<rect width="48" height="48" rx="4" fill="white"/>
<path d="M20.2595 32.1786C27.8262 32.1786 31.9641 25.8978 31.9641 20.4512C31.9641 20.2728 31.9605 20.0953 31.9525 19.9185C32.7576 19.3347 33.4525 18.612 34.0045 17.7841C33.2674 18.1124 32.4742 18.3334 31.6421 18.4331C32.4914 17.9228 33.1434 17.1156 33.4511 16.1533C32.6435 16.6333 31.7601 16.9717 30.8389 17.1538C30.0882 16.3526 29.0195 15.8516 27.8361 15.8516C25.5643 15.8516 23.7221 17.6974 23.7221 19.9727C23.7221 20.2962 23.7582 20.6107 23.8288 20.9125C20.4098 20.7402 17.378 19.1 15.349 16.6061C14.9836 17.2351 14.7914 17.95 14.792 18.6778C14.792 20.1078 15.5182 21.3701 16.6227 22.1087C15.9694 22.0887 15.3304 21.9119 14.7596 21.5932C14.759 21.6105 14.759 21.6273 14.759 21.6458C14.759 23.6419 16.1769 25.3086 18.0593 25.6862C17.7057 25.7827 17.3409 25.8314 16.9745 25.8312C16.7099 25.8312 16.452 25.8051 16.2014 25.7569C16.7251 27.3946 18.2438 28.5864 20.0443 28.6197C18.6363 29.7254 16.8627 30.384 14.935 30.384C14.607 30.3843 14.2794 30.3652 13.9537 30.3269C15.7743 31.4961 17.9361 32.1783 20.2597 32.1783" fill="#1DA1F2"/>
</svg>
