<svg width="24" height="24" viewBox="0 0 24 24" fill="none" xmlns="http://www.w3.org/2000/svg">
<path opacity="0.2" d="M12 3C10.1789 2.99947 8.40048 3.55141 6.89967 4.5829C5.39886 5.6144 4.24627 7.07692 3.59417 8.77726C2.94206 10.4776 2.82112 12.3358 3.24732 14.1063C3.67352 15.8768 4.62681 17.4764 5.98126 18.6937C6.54563 17.5824 7.40671 16.649 8.46906 15.997C9.53141 15.345 10.7535 14.9999 12 15C11.2583 15 10.5333 14.7801 9.91662 14.368C9.29993 13.956 8.81929 13.3703 8.53546 12.6851C8.25163 11.9998 8.17737 11.2458 8.32206 10.5184C8.46676 9.79098 8.82391 9.1228 9.34836 8.59835C9.8728 8.0739 10.541 7.71675 11.2684 7.57205C11.9958 7.42736 12.7498 7.50162 13.4351 7.78545C14.1203 8.06928 14.706 8.54993 15.118 9.16661C15.5301 9.7833 15.75 10.5083 15.75 11.25C15.75 12.2446 15.3549 13.1984 14.6517 13.9017C13.9484 14.6049 12.9946 15 12 15C13.2465 14.9999 14.4686 15.345 15.531 15.997C16.5933 16.649 17.4544 17.5824 18.0188 18.6937C19.3732 17.4764 20.3265 15.8768 20.7527 14.1063C21.1789 12.3358 21.058 10.4776 20.4058 8.77726C19.7537 7.07692 18.6012 5.6144 17.1003 4.5829C15.5995 3.55141 13.8211 2.99947 12 3Z" fill="#1777E5"/>
<path d="M12 21C16.9706 21 21 16.9706 21 12C21 7.02944 16.9706 3 12 3C7.02944 3 3 7.02944 3 12C3 16.9706 7.02944 21 12 21Z" stroke="#1777E5" stroke-width="1.5" stroke-linecap="round" stroke-linejoin="round"/>
<path d="M12 15C14.0711 15 15.75 13.3211 15.75 11.25C15.75 9.17893 14.0711 7.5 12 7.5C9.92893 7.5 8.25 9.17893 8.25 11.25C8.25 13.3211 9.92893 15 12 15Z" stroke="#1777E5" stroke-width="1.5" stroke-linecap="round" stroke-linejoin="round"/>
<path d="M5.98126 18.6938C6.54555 17.5824 7.4066 16.6488 8.46896 15.9968C9.53132 15.3447 10.7535 14.9995 12 14.9995C13.2465 14.9995 14.4687 15.3447 15.5311 15.9968C16.5934 16.6488 17.4545 17.5824 18.0188 18.6938" stroke="#1777E5" stroke-width="1.5" stroke-linecap="round" stroke-linejoin="round"/>
</svg>
