<svg width="102" height="17" viewBox="0 0 102 17" fill="none" xmlns="http://www.w3.org/2000/svg">
<path d="M0 16.12H16V0.12H0V16.12ZM22.5846 10.936V9.56H25.1926C25.7473 9.56 26.206 9.45333 26.5686 9.24C26.9313 9.016 27.2033 8.71733 27.3846 8.344C27.5766 7.97067 27.6726 7.55467 27.6726 7.096C27.6726 6.62667 27.5766 6.20533 27.3846 5.832C27.2033 5.45867 26.9313 5.16533 26.5686 4.952C26.206 4.73867 25.7473 4.632 25.1926 4.632H22.5846V3.256H24.9046C25.8646 3.256 26.6646 3.41067 27.3046 3.72C27.9553 4.01867 28.446 4.44533 28.7766 5C29.1073 5.55467 29.2726 6.21067 29.2726 6.968V7.224C29.2726 7.97067 29.1073 8.62667 28.7766 9.192C28.446 9.74667 27.9553 10.1787 27.3046 10.488C26.6646 10.7867 25.8646 10.936 24.9046 10.936H22.5846ZM21.3366 15V3.256H22.9046V15H21.3366ZM35.1268 15.288C34.3801 15.288 33.7241 15.16 33.1588 14.904C32.5934 14.648 32.1134 14.312 31.7188 13.896C31.3348 13.4693 31.0414 12.9947 30.8388 12.472C30.6468 11.9493 30.5508 11.416 30.5508 10.872V10.584C30.5508 10.04 30.6521 9.50667 30.8548 8.984C31.0574 8.45067 31.3561 7.976 31.7508 7.56C32.1454 7.13333 32.6254 6.79733 33.1908 6.552C33.7561 6.296 34.4014 6.168 35.1268 6.168C35.8521 6.168 36.4974 6.296 37.0628 6.552C37.6281 6.79733 38.1081 7.13333 38.5028 7.56C38.8974 7.976 39.1961 8.45067 39.3988 8.984C39.6014 9.50667 39.7028 10.04 39.7028 10.584V10.872C39.7028 11.416 39.6014 11.9493 39.3988 12.472C39.2068 12.9947 38.9134 13.4693 38.5188 13.896C38.1348 14.312 37.6601 14.648 37.0948 14.904C36.5294 15.16 35.8734 15.288 35.1268 15.288ZM35.1268 13.912C35.7668 13.912 36.3108 13.7733 36.7588 13.496C37.2174 13.208 37.5641 12.824 37.7987 12.344C38.0441 11.864 38.1667 11.3253 38.1667 10.728C38.1667 10.12 38.0441 9.576 37.7987 9.096C37.5534 8.616 37.2014 8.23733 36.7428 7.96C36.2948 7.68267 35.7561 7.544 35.1268 7.544C34.5081 7.544 33.9694 7.68267 33.5108 7.96C33.0521 8.23733 32.7001 8.616 32.4548 9.096C32.2094 9.576 32.0868 10.12 32.0868 10.728C32.0868 11.3253 32.2041 11.864 32.4388 12.344C32.6841 12.824 33.0308 13.208 33.4788 13.496C33.9374 13.7733 34.4868 13.912 35.1268 13.912ZM45.5713 15.288C44.9633 15.288 44.4033 15.176 43.8913 14.952C43.3793 14.728 42.9313 14.4133 42.5473 14.008C42.1739 13.6027 41.8806 13.1333 41.6673 12.6C41.4646 12.0667 41.3633 11.4907 41.3633 10.872V10.584C41.3633 9.976 41.4646 9.40533 41.6673 8.872C41.8699 8.33867 42.1526 7.86933 42.5153 7.464C42.8886 7.05867 43.3259 6.744 43.8273 6.52C44.3393 6.28533 44.9046 6.168 45.5233 6.168C46.1739 6.168 46.7659 6.30667 47.2993 6.584C47.8326 6.85067 48.2699 7.272 48.6112 7.848C48.9526 8.424 49.1446 9.17067 49.1873 10.088L48.5473 9.064V3.32H50.0833V15H48.8673V11.208H49.3153C49.2726 12.1787 49.0699 12.968 48.7073 13.576C48.3446 14.1733 47.8859 14.6107 47.3313 14.888C46.7873 15.1547 46.2006 15.288 45.5713 15.288ZM45.7793 13.944C46.3019 13.944 46.7766 13.8267 47.2033 13.592C47.6299 13.3573 47.9713 13.0213 48.2273 12.584C48.4833 12.136 48.6112 11.6133 48.6112 11.016V10.28C48.6112 9.69333 48.4779 9.19733 48.2113 8.792C47.9553 8.376 47.6086 8.06133 47.1713 7.848C46.7446 7.624 46.2753 7.512 45.7633 7.512C45.1979 7.512 44.6966 7.64533 44.2593 7.912C43.8326 8.17867 43.4966 8.552 43.2513 9.032C43.0166 9.512 42.8993 10.0773 42.8993 10.728C42.8993 11.3787 43.0219 11.9493 43.2673 12.44C43.5126 12.92 43.8539 13.2933 44.2913 13.56C44.7286 13.816 45.2246 13.944 45.7793 13.944ZM56.6985 15.288C55.9625 15.288 55.3225 15.16 54.7785 14.904C54.2452 14.648 53.8025 14.3067 53.4505 13.88C53.0985 13.4427 52.8318 12.9627 52.6505 12.44C52.4798 11.9173 52.3945 11.3947 52.3945 10.872V10.584C52.3945 10.04 52.4798 9.50667 52.6505 8.984C52.8318 8.46133 53.0985 7.992 53.4505 7.576C53.8132 7.14933 54.2612 6.808 54.7945 6.552C55.3278 6.296 55.9518 6.168 56.6665 6.168C57.3812 6.168 58.0212 6.30133 58.5865 6.568C59.1625 6.83467 59.6212 7.21333 59.9625 7.704C60.3145 8.184 60.5118 8.75467 60.5545 9.416H59.0825C59.0078 8.88267 58.7625 8.44 58.3465 8.088C57.9305 7.72533 57.3705 7.544 56.6665 7.544C56.0585 7.544 55.5518 7.68267 55.1465 7.96C54.7412 8.23733 54.4372 8.616 54.2345 9.096C54.0318 9.576 53.9305 10.12 53.9305 10.728C53.9305 11.3147 54.0318 11.8533 54.2345 12.344C54.4372 12.824 54.7412 13.208 55.1465 13.496C55.5625 13.7733 56.0798 13.912 56.6985 13.912C57.1785 13.912 57.5945 13.8267 57.9465 13.656C58.2985 13.4853 58.5812 13.256 58.7945 12.968C59.0078 12.68 59.1358 12.3547 59.1785 11.992H60.6505C60.6185 12.664 60.4212 13.2453 60.0585 13.736C59.7065 14.2267 59.2372 14.6107 58.6505 14.888C58.0745 15.1547 57.4238 15.288 56.6985 15.288ZM67.9056 15V12.44H67.6496V9.48C67.6496 8.89333 67.495 8.45067 67.1856 8.152C66.887 7.85333 66.4443 7.704 65.8576 7.704C65.527 7.704 65.1856 7.70933 64.8336 7.72C64.4816 7.73067 64.1456 7.74133 63.8256 7.752C63.5056 7.76267 63.2283 7.77867 62.9936 7.8V6.456C63.2283 6.43467 63.4736 6.41867 63.7296 6.408C63.9963 6.38667 64.2683 6.376 64.5456 6.376C64.823 6.36533 65.0896 6.36 65.3456 6.36C66.2203 6.36 66.935 6.46667 67.4896 6.68C68.0443 6.88267 68.455 7.21867 68.7216 7.688C68.9883 8.15733 69.1216 8.792 69.1216 9.592V15H67.9056ZM65.1056 15.224C64.4656 15.224 63.911 15.1173 63.4416 14.904C62.983 14.68 62.6256 14.36 62.3696 13.944C62.1243 13.528 62.0016 13.0267 62.0016 12.44C62.0016 11.832 62.135 11.3253 62.4016 10.92C62.679 10.5147 63.079 10.2107 63.6016 10.008C64.1243 9.79467 64.7536 9.688 65.4896 9.688H67.8096V10.84H65.4256C64.807 10.84 64.3323 10.9893 64.0016 11.288C63.671 11.5867 63.5056 11.9707 63.5056 12.44C63.5056 12.9093 63.671 13.288 64.0016 13.576C64.3323 13.864 64.807 14.008 65.4256 14.008C65.7883 14.008 66.135 13.944 66.4656 13.816C66.7963 13.6773 67.0683 13.4533 67.2816 13.144C67.5056 12.824 67.6283 12.3867 67.6496 11.832L68.0656 12.44C68.0123 13.048 67.863 13.56 67.6176 13.976C67.383 14.3813 67.0523 14.6907 66.6256 14.904C66.2096 15.1173 65.703 15.224 65.1056 15.224ZM74.7408 15.256C73.6208 15.256 72.7514 15.016 72.1328 14.536C71.5248 14.056 71.2101 13.4 71.1888 12.568H72.6288C72.6501 12.8987 72.8154 13.2133 73.1248 13.512C73.4448 13.8 73.9834 13.944 74.7408 13.944C75.4234 13.944 75.9461 13.8107 76.3088 13.544C76.6714 13.2667 76.8528 12.9307 76.8528 12.536C76.8528 12.184 76.7194 11.912 76.4528 11.72C76.1861 11.5173 75.7541 11.384 75.1568 11.32L74.2288 11.224C73.4181 11.1387 72.7568 10.8987 72.2448 10.504C71.7328 10.0987 71.4768 9.53333 71.4768 8.808C71.4768 8.264 71.6154 7.8 71.8928 7.416C72.1701 7.02133 72.5541 6.72267 73.0448 6.52C73.5354 6.30667 74.1008 6.2 74.7408 6.2C75.7008 6.2 76.4794 6.41333 77.0768 6.84C77.6741 7.26667 77.9834 7.90133 78.0048 8.744H76.5648C76.5541 8.40267 76.3941 8.11467 76.0848 7.88C75.7861 7.63467 75.3381 7.512 74.7408 7.512C74.1434 7.512 73.6901 7.63467 73.3808 7.88C73.0714 8.12533 72.9168 8.43467 72.9168 8.808C72.9168 9.128 73.0234 9.384 73.2368 9.576C73.4608 9.768 73.8234 9.89067 74.3248 9.944L75.2528 10.04C76.1701 10.136 76.9061 10.392 77.4608 10.808C78.0154 11.2133 78.2928 11.7893 78.2928 12.536C78.2928 13.0693 78.1381 13.544 77.8288 13.96C77.5301 14.3653 77.1141 14.6853 76.5808 14.92C76.0474 15.144 75.4341 15.256 74.7408 15.256ZM83.8469 15.096C83.2069 15.096 82.6522 15.0053 82.1829 14.824C81.7242 14.6427 81.3669 14.3333 81.1109 13.896C80.8655 13.448 80.7429 12.8453 80.7429 12.088V3.864H82.2149V12.28C82.2149 12.7387 82.3375 13.096 82.5829 13.352C82.8389 13.5973 83.1962 13.72 83.6549 13.72H85.1589V15.096H83.8469ZM79.2709 7.608V6.456H85.1589V7.608H79.2709ZM90.9009 15.288C90.1542 15.288 89.5089 15.16 88.9649 14.904C88.4209 14.648 87.9782 14.312 87.6369 13.896C87.2955 13.4693 87.0395 12.9947 86.8689 12.472C86.7089 11.9493 86.6289 11.416 86.6289 10.872V10.584C86.6289 10.0293 86.7089 9.49067 86.8689 8.968C87.0395 8.44533 87.2955 7.976 87.6369 7.56C87.9782 7.13333 88.4102 6.79733 88.9329 6.552C89.4662 6.296 90.0902 6.168 90.8049 6.168C91.7329 6.168 92.4955 6.37067 93.0929 6.776C93.7009 7.17067 94.1489 7.68267 94.4369 8.312C94.7355 8.94133 94.8849 9.61333 94.8849 10.328V11.016H87.3009V9.864H93.7649L93.4129 10.488C93.4129 9.88 93.3169 9.35733 93.1249 8.92C92.9329 8.472 92.6449 8.12533 92.2609 7.88C91.8769 7.63467 91.3915 7.512 90.8049 7.512C90.1969 7.512 89.6902 7.65067 89.2849 7.928C88.8902 8.20533 88.5915 8.584 88.3889 9.064C88.1969 9.544 88.1009 10.0987 88.1009 10.728C88.1009 11.336 88.1969 11.8853 88.3889 12.376C88.5915 12.856 88.9009 13.24 89.3169 13.528C89.7329 13.8053 90.2609 13.944 90.9009 13.944C91.5729 13.944 92.1169 13.7947 92.5329 13.496C92.9595 13.1973 93.2155 12.8507 93.3009 12.456H94.7409C94.6235 13.0427 94.3889 13.5493 94.0369 13.976C93.6849 14.4027 93.2422 14.728 92.7089 14.952C92.1755 15.176 91.5729 15.288 90.9009 15.288ZM97.0658 15V6.456H98.2818V9.976H98.2178C98.2178 8.728 98.4898 7.816 99.0338 7.24C99.5884 6.65333 100.415 6.36 101.514 6.36H101.802V7.736H101.258C100.404 7.736 99.7484 7.96533 99.2898 8.424C98.8311 8.872 98.6018 9.52267 98.6018 10.376V15H97.0658Z" fill="#9249F2"/>
</svg>
