<svg width="101" height="17" viewBox="0 0 101 17" fill="none" xmlns="http://www.w3.org/2000/svg">
<path d="M0 16.12H16V0.12H0V16.12ZM21.1469 15V3.32H23.0669V15H21.1469ZM26.0479 15V6.376H27.5359V10.072H27.3599C27.3599 9.21867 27.4719 8.49867 27.6959 7.912C27.9305 7.32533 28.2825 6.88267 28.7519 6.584C29.2212 6.27467 29.8025 6.12 30.4959 6.12H30.5759C31.6425 6.12 32.4372 6.456 32.9599 7.128C33.4825 7.8 33.7439 8.78133 33.7439 10.072V15H31.8719V9.816C31.8719 9.21867 31.7012 8.73867 31.3599 8.376C31.0185 8.00267 30.5492 7.816 29.9519 7.816C29.3439 7.816 28.8532 8.008 28.4799 8.392C28.1065 8.76533 27.9199 9.26667 27.9199 9.896V15H26.0479ZM39.3208 15.256C38.1581 15.256 37.2514 15.0107 36.6008 14.52C35.9608 14.0293 35.6248 13.352 35.5928 12.488H37.3207C37.3421 12.808 37.5074 13.1013 37.8168 13.368C38.1261 13.6347 38.6328 13.768 39.3368 13.768C39.9341 13.768 40.4034 13.6507 40.7448 13.416C41.0861 13.1813 41.2568 12.888 41.2568 12.536C41.2568 12.216 41.1288 11.9653 40.8728 11.784C40.6274 11.592 40.2061 11.464 39.6088 11.4L38.7608 11.32C37.8754 11.224 37.1714 10.9627 36.6488 10.536C36.1368 10.1093 35.8808 9.53333 35.8808 8.808C35.8808 8.232 36.0248 7.74667 36.3128 7.352C36.6008 6.95733 36.9954 6.65333 37.4968 6.44C38.0088 6.22667 38.5954 6.12 39.2568 6.12C40.2808 6.12 41.1074 6.34933 41.7368 6.808C42.3661 7.256 42.6914 7.91733 42.7128 8.792H41.0008C40.9794 8.46133 40.8248 8.184 40.5368 7.96C40.2488 7.736 39.8221 7.624 39.2568 7.624C38.7234 7.624 38.3128 7.73067 38.0248 7.944C37.7474 8.15733 37.6088 8.42933 37.6088 8.76C37.6088 9.05867 37.7154 9.29333 37.9288 9.464C38.1421 9.63467 38.4888 9.74667 38.9688 9.8L39.8168 9.88C40.7874 9.98667 41.5554 10.2587 42.1208 10.696C42.6968 11.1227 42.9848 11.72 42.9848 12.488C42.9848 13.0427 42.8301 13.528 42.5208 13.944C42.2114 14.36 41.7794 14.6853 41.2248 14.92C40.6808 15.144 40.0461 15.256 39.3208 15.256ZM48.5683 15.096C47.8536 15.096 47.2509 15 46.7603 14.808C46.2696 14.616 45.8963 14.2853 45.6403 13.816C45.3949 13.3467 45.2723 12.712 45.2723 11.912V3.864H47.0483V12.072C47.0483 12.52 47.1656 12.8667 47.4003 13.112C47.6456 13.3467 47.9869 13.464 48.4243 13.464H49.8643V15.096H48.5683ZM43.8483 7.768V6.376H49.8643V7.768H43.8483ZM51.8916 15V6.376H53.3796V9.976H53.3156C53.3156 8.73867 53.5876 7.816 54.1316 7.208C54.6756 6.58933 55.481 6.28 56.5476 6.28H56.8516V7.928H56.2756C55.465 7.928 54.841 8.14667 54.4036 8.584C53.977 9.01067 53.7636 9.624 53.7636 10.424V15H51.8916ZM61.4766 15.256C60.4633 15.256 59.6846 14.9307 59.1406 14.28C58.5966 13.6187 58.3246 12.648 58.3246 11.368V6.376H60.1966V11.624C60.1966 12.2213 60.362 12.696 60.6926 13.048C61.0233 13.3893 61.4713 13.56 62.0366 13.56C62.6126 13.56 63.082 13.3787 63.4446 13.016C63.818 12.6427 64.0046 12.136 64.0046 11.496V6.376H65.8766V15H64.3886V11.32H64.5806C64.5806 12.184 64.4633 12.9093 64.2286 13.496C64.0046 14.072 63.6686 14.5093 63.2206 14.808C62.7833 15.1067 62.2286 15.256 61.5566 15.256H61.4766ZM72.4013 15.288C71.6653 15.288 71.0199 15.1653 70.4653 14.92C69.9213 14.664 69.4679 14.3227 69.1053 13.896C68.7533 13.4587 68.4866 12.9787 68.3053 12.456C68.1346 11.9227 68.0493 11.384 68.0493 10.84V10.552C68.0493 9.98667 68.1399 9.44267 68.3213 8.92C68.5026 8.38667 68.7746 7.90667 69.1373 7.48C69.4999 7.05333 69.9479 6.71733 70.4813 6.472C71.0253 6.216 71.6599 6.088 72.3853 6.088C73.1213 6.088 73.7773 6.22667 74.3533 6.504C74.9399 6.78133 75.4093 7.176 75.7613 7.688C76.1133 8.18933 76.3106 8.776 76.3533 9.448H74.5453C74.4813 8.968 74.2626 8.56267 73.8893 8.232C73.5266 7.90133 73.0253 7.736 72.3853 7.736C71.8306 7.736 71.3719 7.864 71.0093 8.12C70.6466 8.376 70.3746 8.728 70.1933 9.176C70.0119 9.61333 69.9213 10.12 69.9213 10.696C69.9213 11.2507 70.0066 11.752 70.1773 12.2C70.3586 12.648 70.6306 13 70.9933 13.256C71.3666 13.512 71.8359 13.64 72.4013 13.64C72.8386 13.64 73.2119 13.5653 73.5213 13.416C73.8413 13.256 74.0973 13.048 74.2893 12.792C74.4813 12.5253 74.5933 12.2213 74.6253 11.88H76.4493C76.4173 12.5733 76.2199 13.176 75.8573 13.688C75.4946 14.1893 75.0146 14.584 74.4173 14.872C73.8199 15.1493 73.1479 15.288 72.4013 15.288ZM81.9276 15.096C81.213 15.096 80.6103 15 80.1196 14.808C79.629 14.616 79.2556 14.2853 78.9996 13.816C78.7543 13.3467 78.6316 12.712 78.6316 11.912V3.864H80.4076V12.072C80.4076 12.52 80.525 12.8667 80.7596 13.112C81.005 13.3467 81.3463 13.464 81.7836 13.464H83.2236V15.096H81.9276ZM77.2076 7.768V6.376H83.2236V7.768H77.2076ZM89.2521 15.288C88.4948 15.288 87.8281 15.1653 87.2521 14.92C86.6761 14.664 86.1908 14.328 85.7961 13.912C85.4015 13.496 85.1028 13.0267 84.9001 12.504C84.6975 11.9707 84.5961 11.4213 84.5961 10.856V10.536C84.5961 9.97067 84.6975 9.42133 84.9001 8.888C85.1135 8.35467 85.4175 7.88 85.8121 7.464C86.2175 7.03733 86.7081 6.70133 87.2841 6.456C87.8601 6.21067 88.5161 6.088 89.2521 6.088C89.9881 6.088 90.6388 6.21067 91.2041 6.456C91.7801 6.70133 92.2708 7.03733 92.6761 7.464C93.0815 7.88 93.3855 8.35467 93.5881 8.888C93.8015 9.42133 93.9081 9.97067 93.9081 10.536V10.856C93.9081 11.4213 93.8068 11.9707 93.6041 12.504C93.4015 13.0267 93.1028 13.496 92.7081 13.912C92.3135 14.328 91.8281 14.664 91.2521 14.92C90.6761 15.1653 90.0095 15.288 89.2521 15.288ZM89.2521 13.656C89.8388 13.656 90.3401 13.528 90.7561 13.272C91.1721 13.0053 91.4868 12.648 91.7001 12.2C91.9241 11.752 92.0361 11.2507 92.0361 10.696C92.0361 10.1307 91.9241 9.624 91.7001 9.176C91.4761 8.728 91.1561 8.376 90.7401 8.12C90.3241 7.85333 89.8281 7.72 89.2521 7.72C88.6761 7.72 88.1801 7.85333 87.7641 8.12C87.3481 8.376 87.0281 8.728 86.8041 9.176C86.5801 9.624 86.4681 10.1307 86.4681 10.696C86.4681 11.2507 86.5748 11.752 86.7881 12.2C87.0121 12.648 87.3321 13.0053 87.7481 13.272C88.1641 13.528 88.6655 13.656 89.2521 13.656ZM96.0479 15V6.376H97.5359V9.976H97.4719C97.4719 8.73867 97.7439 7.816 98.2879 7.208C98.8319 6.58933 99.6372 6.28 100.704 6.28H101.008V7.928H100.432C99.6212 7.928 98.9972 8.14667 98.5599 8.584C98.1332 9.01067 97.9199 9.624 97.9199 10.424V15H96.0479Z" fill="#1777E5"/>
</svg>
