<svg width="93" height="19" viewBox="0 0 93 19" fill="none" xmlns="http://www.w3.org/2000/svg">
<path d="M0 16.12H16V0.12H0V16.12ZM22.5846 15.064V13.624H25.4966C26.2006 13.624 26.8246 13.512 27.3686 13.288C27.9233 13.0533 28.3926 12.7333 28.7766 12.328C29.1713 11.9227 29.47 11.448 29.6726 10.904C29.8753 10.36 29.9766 9.77333 29.9766 9.144C29.9766 8.48267 29.8753 7.88533 29.6726 7.352C29.47 6.808 29.1713 6.33867 28.7766 5.944C28.3926 5.53867 27.9233 5.22933 27.3686 5.016C26.8246 4.80267 26.2006 4.696 25.4966 4.696H22.5846V3.256H25.3366C26.3926 3.256 27.31 3.42133 28.0886 3.752C28.8673 4.072 29.5126 4.50933 30.0246 5.064C30.5473 5.608 30.9366 6.22133 31.1926 6.904C31.4486 7.576 31.5766 8.264 31.5766 8.968V9.32C31.5766 10.0027 31.4486 10.6853 31.1926 11.368C30.9366 12.0507 30.5473 12.6693 30.0246 13.224C29.5126 13.7787 28.8673 14.2267 28.0886 14.568C27.31 14.8987 26.3926 15.064 25.3366 15.064H22.5846ZM21.3366 15.064V3.256H22.9046V15.064H21.3366ZM37.4009 15.288C36.6542 15.288 36.0089 15.16 35.4649 14.904C34.9209 14.648 34.4782 14.312 34.1369 13.896C33.7955 13.4693 33.5395 12.9947 33.3689 12.472C33.2089 11.9493 33.1289 11.416 33.1289 10.872V10.584C33.1289 10.0293 33.2089 9.49067 33.3689 8.968C33.5395 8.44533 33.7955 7.976 34.1369 7.56C34.4782 7.13333 34.9102 6.79733 35.4329 6.552C35.9662 6.296 36.5902 6.168 37.3049 6.168C38.2329 6.168 38.9955 6.37067 39.5929 6.776C40.2009 7.17067 40.6489 7.68267 40.9369 8.312C41.2355 8.94133 41.3849 9.61333 41.3849 10.328V11.016H33.8009V9.864H40.2649L39.9129 10.488C39.9129 9.88 39.8169 9.35733 39.6249 8.92C39.4329 8.472 39.1449 8.12533 38.7609 7.88C38.3769 7.63467 37.8915 7.512 37.3049 7.512C36.6969 7.512 36.1902 7.65067 35.7849 7.928C35.3902 8.20533 35.0915 8.584 34.8889 9.064C34.6969 9.544 34.6009 10.0987 34.6009 10.728C34.6009 11.336 34.6969 11.8853 34.8889 12.376C35.0915 12.856 35.4009 13.24 35.8169 13.528C36.2329 13.8053 36.7609 13.944 37.4009 13.944C38.0729 13.944 38.6169 13.7947 39.0329 13.496C39.4595 13.1973 39.7155 12.8507 39.8009 12.456H41.2409C41.1235 13.0427 40.8889 13.5493 40.5369 13.976C40.1849 14.4027 39.7422 14.728 39.2089 14.952C38.6755 15.176 38.0729 15.288 37.4009 15.288ZM46.3658 15.256C45.2458 15.256 44.3764 15.016 43.7578 14.536C43.1498 14.056 42.8351 13.4 42.8138 12.568H44.2538C44.2751 12.8987 44.4404 13.2133 44.7498 13.512C45.0698 13.8 45.6084 13.944 46.3658 13.944C47.0484 13.944 47.5711 13.8107 47.9338 13.544C48.2964 13.2667 48.4778 12.9307 48.4778 12.536C48.4778 12.184 48.3444 11.912 48.0778 11.72C47.8111 11.5173 47.3791 11.384 46.7818 11.32L45.8538 11.224C45.0431 11.1387 44.3818 10.8987 43.8698 10.504C43.3578 10.0987 43.1018 9.53333 43.1018 8.808C43.1018 8.264 43.2404 7.8 43.5178 7.416C43.7951 7.02133 44.1791 6.72267 44.6698 6.52C45.1604 6.30667 45.7258 6.2 46.3658 6.2C47.3258 6.2 48.1044 6.41333 48.7018 6.84C49.2991 7.26667 49.6084 7.90133 49.6298 8.744H48.1898C48.1791 8.40267 48.0191 8.11467 47.7098 7.88C47.4111 7.63467 46.9631 7.512 46.3658 7.512C45.7684 7.512 45.3151 7.63467 45.0058 7.88C44.6964 8.12533 44.5418 8.43467 44.5418 8.808C44.5418 9.128 44.6484 9.384 44.8618 9.576C45.0858 9.768 45.4484 9.89067 45.9498 9.944L46.8778 10.04C47.7951 10.136 48.5311 10.392 49.0858 10.808C49.6404 11.2133 49.9178 11.7893 49.9178 12.536C49.9178 13.0693 49.7631 13.544 49.4538 13.96C49.1551 14.3653 48.7391 14.6853 48.2058 14.92C47.6724 15.144 47.0591 15.256 46.3658 15.256ZM52.5599 15V6.456H54.0959V15H52.5599ZM51.2479 7.672V6.456H54.0959V7.672H51.2479ZM52.9919 5.08C52.6505 5.08 52.3945 4.98933 52.2239 4.808C52.0639 4.62667 51.9839 4.39733 51.9839 4.12C51.9839 3.84267 52.0639 3.61333 52.2239 3.432C52.3945 3.25067 52.6505 3.16 52.9919 3.16C53.3332 3.16 53.5839 3.25067 53.7439 3.432C53.9145 3.61333 53.9999 3.84267 53.9999 4.12C53.9999 4.39733 53.9145 4.62667 53.7439 4.808C53.5839 4.98933 53.3332 5.08 52.9919 5.08ZM60.2977 18.328C59.9031 18.328 59.5031 18.312 59.0978 18.28C58.7031 18.248 58.3244 18.2053 57.9618 18.152V16.856C58.3458 16.9093 58.7458 16.952 59.1618 16.984C59.5884 17.0267 59.9884 17.048 60.3618 17.048C61.1404 17.048 61.7591 16.9413 62.2178 16.728C62.6871 16.5253 63.0231 16.2 63.2258 15.752C63.4391 15.3147 63.5458 14.7493 63.5458 14.056V12.424L64.0578 11.208C64.0258 12.072 63.8444 12.792 63.5138 13.368C63.1831 13.9333 62.7511 14.36 62.2178 14.648C61.6951 14.9253 61.1138 15.064 60.4738 15.064C59.8764 15.064 59.3271 14.952 58.8258 14.728C58.3351 14.4933 57.9084 14.1733 57.5458 13.768C57.1938 13.3627 56.9164 12.8987 56.7138 12.376C56.5218 11.8427 56.4258 11.2827 56.4258 10.696V10.408C56.4258 9.81067 56.5271 9.256 56.7298 8.744C56.9324 8.22133 57.2151 7.768 57.5778 7.384C57.9404 7 58.3724 6.70133 58.8738 6.488C59.3858 6.27467 59.9458 6.168 60.5538 6.168C61.2684 6.168 61.8978 6.32267 62.4418 6.632C62.9858 6.93067 63.4124 7.37333 63.7218 7.96C64.0418 8.536 64.2178 9.24533 64.2498 10.088L63.8018 10.104V6.456H65.0178V13.992C65.0178 15.016 64.8578 15.8427 64.5378 16.472C64.2284 17.112 63.7271 17.5813 63.0338 17.88C62.3511 18.1787 61.4391 18.328 60.2977 18.328ZM60.7618 13.656C61.2738 13.656 61.7378 13.544 62.1538 13.32C62.5804 13.096 62.9164 12.776 63.1618 12.36C63.4178 11.9333 63.5458 11.4267 63.5458 10.84V10.104C63.5458 9.528 63.4124 9.04267 63.1458 8.648C62.8898 8.25333 62.5538 7.95467 62.1378 7.752C61.7218 7.54933 61.2684 7.448 60.7778 7.448C60.2231 7.448 59.7324 7.576 59.3058 7.832C58.8791 8.088 58.5484 8.45067 58.3138 8.92C58.0791 9.37867 57.9618 9.92267 57.9618 10.552C57.9618 11.1813 58.0791 11.7307 58.3138 12.2C58.5591 12.6693 58.8898 13.032 59.3058 13.288C59.7324 13.5333 60.2178 13.656 60.7618 13.656ZM67.8626 15V6.456H69.0786V10.12H68.8866C68.8866 9.27733 68.9986 8.568 69.2226 7.992C69.4573 7.40533 69.8093 6.96267 70.2786 6.664C70.748 6.35467 71.34 6.2 72.0546 6.2H72.1186C73.196 6.2 73.9906 6.536 74.5026 7.208C75.0253 7.88 75.2866 8.85067 75.2866 10.12V15H73.7506V9.8C73.7506 9.13867 73.564 8.61067 73.1906 8.216C72.8173 7.81067 72.3053 7.608 71.6546 7.608C70.9826 7.608 70.4386 7.816 70.0226 8.232C69.6066 8.648 69.3986 9.20267 69.3986 9.896V15H67.8626ZM81.729 15.288C80.9823 15.288 80.337 15.16 79.793 14.904C79.249 14.648 78.8063 14.312 78.465 13.896C78.1237 13.4693 77.8677 12.9947 77.697 12.472C77.537 11.9493 77.457 11.416 77.457 10.872V10.584C77.457 10.0293 77.537 9.49067 77.697 8.968C77.8677 8.44533 78.1237 7.976 78.465 7.56C78.8063 7.13333 79.2383 6.79733 79.761 6.552C80.2943 6.296 80.9183 6.168 81.633 6.168C82.561 6.168 83.3237 6.37067 83.921 6.776C84.529 7.17067 84.977 7.68267 85.265 8.312C85.5637 8.94133 85.713 9.61333 85.713 10.328V11.016H78.129V9.864H84.593L84.241 10.488C84.241 9.88 84.145 9.35733 83.953 8.92C83.761 8.472 83.473 8.12533 83.089 7.88C82.705 7.63467 82.2197 7.512 81.633 7.512C81.025 7.512 80.5183 7.65067 80.113 7.928C79.7183 8.20533 79.4197 8.584 79.217 9.064C79.025 9.544 78.929 10.0987 78.929 10.728C78.929 11.336 79.025 11.8853 79.217 12.376C79.4197 12.856 79.729 13.24 80.145 13.528C80.561 13.8053 81.089 13.944 81.729 13.944C82.401 13.944 82.945 13.7947 83.361 13.496C83.7877 13.1973 84.0437 12.8507 84.129 12.456H85.569C85.4517 13.0427 85.217 13.5493 84.865 13.976C84.513 14.4027 84.0703 14.728 83.537 14.952C83.0037 15.176 82.401 15.288 81.729 15.288ZM87.8939 15V6.456H89.1099V9.976H89.0459C89.0459 8.728 89.3179 7.816 89.8619 7.24C90.4165 6.65333 91.2432 6.36 92.3419 6.36H92.6299V7.736H92.0859C91.2325 7.736 90.5765 7.96533 90.1179 8.424C89.6592 8.872 89.4299 9.52267 89.4299 10.376V15H87.8939Z" fill="#CF5955"/>
</svg>
